<?xml version="1.0" encoding="UTF-8"?>
<svg version="1.1" xmlns="http://www.w3.org/2000/svg" width="512" height="512">
<path d="M0 0 C1.08716309 0.00081573 1.08716309 0.00081573 2.19628906 0.00164795 C14.16079666 0.04280723 25.48395796 0.96380089 37 4.375 C37.73025391 4.58930664 38.46050781 4.80361328 39.21289062 5.02441406 C78.99450989 17.10662999 110.6023595 45.6043062 130.04760742 81.91699219 C149.52415073 119.49261821 149.65879467 160.32136688 137.12451172 200.00830078 C120.73594565 249.07437244 93.05054009 292.72863485 62.60351562 334.19042969 C60.92303449 336.47985496 59.25042514 338.77490617 57.578125 341.0703125 C50.08972126 351.32056725 42.39064991 361.38701059 34.56054688 371.37792969 C32.35709916 374.19773605 30.17779565 377.03532528 28 379.875 C24.08468612 384.97580172 20.13993588 390.05292291 16.1875 395.125 C11.35071642 401.33565854 6.53581345 407.56246595 1.75 413.8125 C1.20110107 414.52825195 0.65220215 415.24400391 0.08666992 415.98144531 C-0.4214624 416.6462793 -0.92959473 417.31111328 -1.453125 417.99609375 C-1.89817383 418.5780249 -2.34322266 419.15995605 -2.80175781 419.75952148 C-3.91683744 421.26287965 -4.96173394 422.81760091 -6 424.375 C46.14 424.375 98.28 424.375 152 424.375 C152 453.415 152 482.455 152 512.375 C59.6 512.375 -32.8 512.375 -128 512.375 C-128 437.74196511 -128 437.74196511 -114.625 423.5625 C-109.95316099 418.56954716 -105.50199685 413.46931243 -101.2265625 408.12890625 C-99.23326049 405.6635064 -97.19043843 403.24985805 -95.12231445 400.84716797 C-89.27407617 394.04069673 -83.80472548 386.98657745 -78.390625 379.83203125 C-75.53846189 376.06641404 -72.63249055 372.34621715 -69.71191406 368.63354492 C-63.56429633 360.80861211 -57.69753575 352.8412699 -52.01171875 344.67578125 C-48.32356863 339.38281704 -44.52483957 334.17037432 -40.71459961 328.96484375 C-37.02799881 323.89613983 -33.53280393 318.71627842 -30.07080078 313.49194336 C-26.69123353 308.40506113 -23.25020671 303.36019602 -19.8125 298.3125 C-19.07346436 297.22686768 -18.33442871 296.14123535 -17.57299805 295.02270508 C-15.38294609 291.80615763 -13.19143572 288.59060484 -11 285.375 C-10.39929688 284.49263672 -9.79859375 283.61027344 -9.1796875 282.70117188 C-3.11800061 273.79895032 2.99586348 264.93739529 9.1875 256.125 C18.48653333 242.86879606 27.40087658 229.46153504 35.69921875 215.55224609 C36.52712295 214.16650105 37.35993031 212.78366499 38.19921875 211.40478516 C51.82309602 188.96374841 65.73025545 160.40453131 59.375 133.75 C54.53889608 117.29710101 44.46669157 104.22201727 29.7421875 95.4296875 C14.37433096 87.21286935 -0.32778082 85.34821394 -16.97265625 90.0625 C-31.51807096 94.56884849 -43.94065406 104.41603102 -51.55078125 117.609375 C-52.26814453 118.97835937 -52.26814453 118.97835937 -53 120.375 C-53.44730469 121.20515625 -53.89460938 122.0353125 -54.35546875 122.890625 C-58.86010703 132.37115602 -60.37351499 142.84791512 -62.35302734 153.07617188 C-63.45338221 158.686736 -64.63737215 164.27971267 -65.8125 169.875 C-66.23605018 171.90617224 -66.65926263 173.93741495 -67.08203125 175.96875 C-67.38799832 177.43750469 -67.69398385 178.90625553 -68 180.375 C-76.72222264 179.79418049 -85.17467801 178.03773144 -93.7109375 176.25 C-95.21155214 175.93951933 -96.71225573 175.62946832 -98.21304321 175.31982422 C-102.13488939 174.50936648 -106.0554128 173.69267792 -109.97570801 172.87475586 C-113.18027568 172.20726667 -116.38575927 171.54424173 -119.59129906 170.88143921 C-123.42314469 170.08906977 -127.25460705 169.29485637 -131.0859375 168.5 C-132.17665621 168.27373932 -132.17665621 168.27373932 -133.28940964 168.04290771 C-135.34727862 167.61551899 -137.40488753 167.18690259 -139.46240234 166.7578125 C-141.21585464 166.39260498 -141.21585464 166.39260498 -143.00473022 166.02001953 C-145.3513254 165.51468952 -147.67725286 164.9786372 -150 164.375 C-149.43668738 157.83371758 -148.57757791 151.43642902 -147.328125 144.9921875 C-147.16382996 144.13424591 -146.99953491 143.27630432 -146.83026123 142.3923645 C-146.482979 140.58858886 -146.13327916 138.78527711 -145.78125 136.98242188 C-145.25566695 134.27914728 -144.7446803 131.57338181 -144.234375 128.8671875 C-138.70888132 100.09814801 -128.16412739 73.79783201 -109 51.375 C-108.55398437 50.84922363 -108.10796875 50.32344727 -107.6484375 49.78173828 C-80.61263073 18.2300822 -41.58553047 -0.11776223 0 0 Z " fill="#D90429" transform="translate(255,-0.375)"/>
</svg>
