<?xml version="1.0" encoding="UTF-8"?>
<svg version="1.1" xmlns="http://www.w3.org/2000/svg" width="512" height="512">
<path d="M0 0 C1.34650635 0.37125 1.34650635 0.37125 2.72021484 0.75 C21.93745196 6.25064365 40.39538643 14.3133223 56 27 C56.90621094 27.70640625 57.81242188 28.4128125 58.74609375 29.140625 C85.41097405 50.29500993 102.76372043 79.15507975 111 112 C111.17934082 112.7007666 111.35868164 113.4015332 111.54345703 114.12353516 C116.51222844 134.54632051 116.1834576 159.66525829 111 180 C110.80664062 180.78165527 110.61328125 181.56331055 110.4140625 182.36865234 C104.50688161 205.58259698 93.64761484 225.91010771 78 244 C76.95005859 245.21623047 76.95005859 245.21623047 75.87890625 246.45703125 C74.26263589 248.31395354 72.63780423 250.16207821 71 252 C72.67909891 256.12233864 75.63372576 259.11027813 78.5625 262.375 C84.49942643 269.16400181 89.45251004 276.22263711 94 284 C94.34514648 284.58330078 94.69029297 285.16660156 95.04589844 285.76757812 C113.5271586 317.3852833 120.06776755 358.28376125 111 394 C110.81195801 394.77102051 110.62391602 395.54204102 110.43017578 396.33642578 C103.91294157 422.33796085 90.934435 444.33251564 73 464 C72.32453125 464.74765625 71.6490625 465.4953125 70.953125 466.265625 C53.39055585 484.72883872 28.5874839 498.6081873 4 505 C3.26136719 505.19464844 2.52273438 505.38929688 1.76171875 505.58984375 C-36.26954374 515.11322044 -78.34990999 508.97230026 -111.91503906 488.85205078 C-147.84360244 466.73868134 -171.77512116 432.64589186 -181.5390625 391.74169922 C-183.95150797 381.04125903 -184 371.14830029 -184 360 C-156.28 360 -128.56 360 -100 360 C-99.01 365.61 -98.02 371.22 -97 377 C-91.04610272 395.54213725 -80.30785977 409.07672089 -63 418 C-46.19587666 425.28233166 -29.26499128 426.13217449 -12 420 C3.74380561 413.77019305 15.53544771 403.22152218 23 388 C30.533395 370.32232699 30.81891052 352.8428182 24.25 334.75 C21.90452988 329.30993622 18.61641569 324.66609567 15 320 C14.4534375 319.28714844 13.906875 318.57429688 13.34375 317.83984375 C2.16501631 304.15644096 -13.07268248 299.3854635 -30 296 C-50.295 295.505 -50.295 295.505 -71 295 C-71 267.28 -71 239.56 -71 211 C-57.47 210.67 -43.94 210.34 -30 210 C-17.67181354 207.83045411 -17.67181354 207.83045411 -6.6875 203.3125 C-6.02363281 202.96364746 -5.35976563 202.61479492 -4.67578125 202.25537109 C11.03102666 193.74879006 21.43242342 180.73303109 26.8125 163.6875 C31.44051072 146.48218954 29.0681628 129.25998247 20.62109375 113.671875 C11.15330111 98.06712762 -2.93762752 87.64497871 -20.5625 83 C-38.68346317 79.58558206 -56.44294078 83.17834659 -72 93 C-85.00254359 102.34277088 -92.66745858 114.90837705 -97.02734375 130.11328125 C-98 133 -98 133 -100 134 C-102.61548995 133.62004956 -105.16643128 133.16677378 -107.75439453 132.64477539 C-108.55447937 132.48886429 -109.35456421 132.33295319 -110.17889404 132.1723175 C-112.83148746 131.65376732 -115.48210308 131.12574533 -118.1328125 130.59765625 C-119.96829988 130.23692036 -121.80390331 129.87677443 -123.63961792 129.51719666 C-128.47739436 128.56792507 -133.31354789 127.6106212 -138.14941406 126.65167236 C-143.08173255 125.67506278 -148.01553407 124.70600775 -152.94921875 123.73632812 C-162.63428436 121.83163654 -172.31765332 119.91846156 -182 118 C-181.39272526 115.32958225 -180.77994056 112.66062271 -180.1640625 109.9921875 C-179.99527588 109.24735107 -179.82648926 108.50251465 -179.65258789 107.73510742 C-171.21083481 71.3386966 -146.50940932 38.73025981 -115 19 C-100.7949955 10.4339702 -85.97541132 4.40463683 -70 0 C-69.25314941 -0.20625 -68.50629883 -0.4125 -67.73681641 -0.625 C-47.4407899 -5.85647994 -20.17442491 -5.57136222 0 0 Z " fill="#FFFFFF
" transform="translate(291,3)"/>
</svg>
