<?xml version="1.0" encoding="UTF-8"?>
<svg version="1.1" xmlns="http://www.w3.org/2000/svg" width="512" height="512">
<path d="M0 0 C38.28 0 76.56 0 116 0 C116 98.01 116 196.02 116 297 C135.14 297 154.28 297 174 297 C174 325.05 174 353.1 174 382 C154.86 382 135.72 382 116 382 C116 424.9 116 467.8 116 512 C88.28 512 60.56 512 32 512 C32 469.1 32 426.2 32 382 C11.6740625 382.22623047 11.6740625 382.22623047 -9.0625 382.45703125 C-17.63935504 382.52344343 -26.21602406 382.58656091 -34.79296875 382.63476562 C-48.411617 382.71192042 -62.02922008 382.80264208 -75.64697266 382.98071289 C-85.56467753 383.11033862 -95.48153507 383.19416772 -105.40006351 383.22315043 C-110.65181952 383.24009231 -115.90115168 383.27985947 -121.15213013 383.37449074 C-126.09740883 383.46288885 -131.03927199 383.48992502 -135.98526573 383.47039986 C-137.79783403 383.47397001 -139.61051902 383.49975298 -141.42240334 383.54967117 C-146.88323932 383.69271153 -151.75811746 383.64413372 -157 382 C-160.93027208 378.07179466 -162.79548273 374.10800572 -165 369 C-166.23517376 366.83048473 -167.49244377 364.67324633 -168.78125 362.53515625 C-170.67997272 359.23961444 -172.57038954 355.93943455 -174.45874023 352.63793945 C-178.56131554 345.46530794 -178.56131554 345.46530794 -182.81640625 338.3828125 C-183.40035156 337.41976196 -183.40035156 337.41976196 -183.99609375 336.43725586 C-184.9759565 334.82950029 -185.9734786 333.23254236 -186.97265625 331.63671875 C-188 329 -188 329 -187.44921875 326.6328125 C-186.73185547 325.32957031 -186.73185547 325.32957031 -186 324 C-185.70681885 323.4419165 -185.4136377 322.88383301 -185.11157227 322.30883789 C-184.02077812 320.25081094 -182.88962057 318.21888948 -181.75 316.1875 C-181.31526367 315.40834229 -180.88052734 314.62918457 -180.43261719 313.82641602 C-176.20385684 306.28758245 -171.829822 298.83492386 -167.45605469 291.37963867 C-163.21605266 284.13411611 -159.08203365 276.83553005 -155 269.5 C-149.9025455 260.34417112 -144.68915137 251.2655481 -139.38842773 242.22607422 C-134.89448663 234.55513437 -130.46527921 226.84849698 -126.0625 219.125 C-120.89945501 210.06910415 -115.7162631 201.02539938 -110.5 192 C-105.33161038 183.05450125 -100.18583654 174.09636548 -95.0625 165.125 C-94.73139221 164.54528442 -94.40028442 163.96556885 -94.05914307 163.36828613 C-90.68478936 157.45983362 -87.31309538 151.54986911 -83.94416809 145.63832092 C-82.25523789 142.67509502 -80.56534878 139.71241688 -78.875 136.75 C-78.54253265 136.16723297 -78.21006531 135.58446594 -77.86752319 134.98403931 C-73.25230757 126.89790307 -68.5838856 118.84444921 -63.875 110.8125 C-59.1547159 102.75985815 -54.54065335 94.65523578 -50 86.5 C-44.90390832 77.34716978 -39.69362589 68.27051078 -34.39282227 59.23486328 C-31.23938504 53.85389728 -28.10874648 48.46107487 -25.01953125 43.04296875 C-24.67952087 42.44665146 -24.3395105 41.85033417 -23.98919678 41.23594666 C-22.36300913 38.38188477 -20.73974938 35.52621422 -19.11962891 32.66870117 C-12.87830084 21.69551014 -6.42605929 10.87486956 0 0 Z M31 116 C30.4738208 116.94746094 30.4738208 116.94746094 29.93701172 117.9140625 C23.39814433 129.67428011 16.81384249 141.3965352 10 153 C5.23566094 161.11416091 0.57571916 169.27800463 -4 177.5 C-9.13631389 186.72931402 -14.40212535 195.87236973 -19.75 204.98046875 C-23.92243959 212.1052819 -27.98495244 219.28546141 -32 226.5 C-36.57572106 234.72199879 -41.23580096 242.88575516 -46 251 C-53.18088211 263.23293209 -60.11269387 275.59996164 -67 288 C-69.475 292.455 -69.475 292.455 -72 297 C-37.68 297 -3.36 297 32 297 C32 237.27 32 177.54 32 116 C31.67 116 31.34 116 31 116 Z " fill="#FFFFFF" transform="translate(263,0)"/>
</svg>
