<svg width="41" height="40" viewBox="0 0 41 40" fill="none" xmlns="http://www.w3.org/2000/svg">
<path d="M36.4331 24.5563V9.98672L19.1355 0L1.83802 9.98672V29.9602L19.1355 39.9469L23.7371 37.2902C25.3715 38.961 27.6494 40 30.1658 40C35.1263 40 39.1621 35.9642 39.1621 31.0037C39.1621 28.4777 38.1152 26.192 36.4331 24.5563ZM19.1355 2.70984L32.9128 10.6641L27.1976 13.9638L13.4204 6.00953L19.1355 2.70984ZM17.9621 36.5595L4.1849 28.6052V12.6966L17.9621 20.6509V36.5595ZM5.35834 10.6641L11.0735 7.36445L24.8508 15.3188L19.1355 18.6184L5.35834 10.6641ZM20.309 36.5595V20.6509L34.0861 12.6966V22.9076C32.9005 22.3311 31.5703 22.0074 30.1658 22.0074C25.2052 22.0074 21.1694 26.0432 21.1694 31.0037C21.1694 32.5991 21.5874 34.0986 22.3188 35.3991L20.309 36.5595ZM30.1658 37.6531C26.4993 37.6531 23.5163 34.6702 23.5163 31.0037C23.5163 27.3372 26.4993 24.3542 30.1658 24.3542C33.8322 24.3542 36.8152 27.3372 36.8152 31.0037C36.8152 34.6702 33.8323 37.6531 30.1658 37.6531Z" fill="#D90429"/>
<path d="M32.9444 27.5947L29.102 31.4584L27.3808 29.7546L25.7298 31.4224L29.115 34.7735L34.6085 29.2496L32.9444 27.5947Z" fill="#D90429"/>
</svg>
