<svg xmlns="http://www.w3.org/2000/svg" width="512" height="512"><path d="m233.813-.375 2.328.002C258.799-.3 283.76 2.997 304 14c3.173 3.327 4.247 5.938 4.5 10.438-.208 4.92-1.957 9.02-5.5 12.562l1.737.343C330.584 42.476 355.204 48.457 379 60l2.319 1.12C398.185 69.373 413.849 79.636 428 92l2.32 1.988c12.238 10.724 23.788 22.201 33.437 35.325a368.925 368.925 0 0 0 3.716 4.933c30.092 40.08 45.006 89.777 44.902 139.566v2.853c-.036 15.76-1.098 30.875-4.375 46.335l-.551 2.682C499.88 361.52 483.703 394.402 461 423l-1.31 1.665c-11.573 14.59-24.978 28.144-40.035 39.125a303.447 303.447 0 0 0-4.893 3.675c-39.97 30.027-89.917 45.013-139.575 44.91h-2.852c-15.76-.036-30.875-1.098-46.335-4.375l-2.682-.551C187.48 499.88 154.598 483.703 126 461l-1.665-1.31c-14.59-11.573-28.144-24.978-39.125-40.035a303.447 303.447 0 0 0-3.675-4.893C74.033 404.774 67.917 393.982 62 383l-1.148-2.118c-10.885-20.449-17.27-43.702-21.38-66.373-.726-3.86-1.598-7.68-2.472-11.509l-2.313 1.938c-4.287 3.29-8.42 3.72-13.687 3.062-3.584-1.07-6.198-2.599-8.087-5.898-9.266-21.868-13.256-44.39-13.35-68.04l-.02-2.211c-.137-25.225 6.666-50.096 24.379-68.765C28.18 158.81 28.18 158.81 30 157c-1.341-3.022-2.789-4.981-5.223-7.207l-1.88-1.78a421.962 421.962 0 0 0-3.93-3.617c-3.06-2.919-4.78-4.846-6.162-8.912.246-4.393 1.846-6.985 4.383-10.422l1.367-1.942A426.97 426.97 0 0 1 23 117l1.479-2.04C31.25 105.62 38.429 96.701 46 88l1.926-2.23A739.94 739.94 0 0 1 53 80l1.898-2.18C64.218 67.253 74.18 57.038 85 48l2.664-2.328C97.36 37.239 107.592 29.528 118 22l2.151-1.562c1.87-1.34 3.759-2.646 5.662-3.938l3.144-2.156c4.08-1.802 5.797-1.77 10.043-.344 3.11 2.417 5.754 5.188 8.438 8.063l2.216 2.298A530.753 530.753 0 0 1 155 30c3.417-1.603 5.392-3.32 7.938-6.125C181.387 5.03 208.483-.443 233.813-.375ZM168.065 40.18l-1.816 2.133c-2.514 2.929-4.55 5.3-8.25 6.687-3.984.12-5.985-.211-9.162-2.68-2.337-2.229-4.567-4.526-6.775-6.883l-2.362-2.443A602.865 602.865 0 0 1 134 31c-4.012 1.527-7.02 3.316-10.438 5.938l-1.552 1.187c-1.675 1.286-3.342 2.58-5.01 3.875l-3.543 2.723c-6.2 4.791-12.22 9.69-17.98 15.011a253.682 253.682 0 0 1-6.082 5.36c-4.828 4.214-9.374 8.699-13.904 13.23a1036.097 1036.097 0 0 1-4.27 4.23C65.038 88.725 59.439 95.172 54 102a291.708 291.708 0 0 1-2.61 3.066C44.038 113.642 37.523 122.786 31 132c1.376 3.132 2.932 5.116 5.441 7.426l2.018 1.916a489.62 489.62 0 0 0 4.219 3.906c3.244 3.106 5.106 5.065 6.474 9.42-.236 5.167-2.044 7.294-5.754 10.77L40.375 168C25.333 181.285 17.857 199.377 15 219c-1.426 25.598 2.077 48.65 10 73a250.604 250.604 0 0 0 13.91-12.606l1.974-1.915a3182.809 3182.809 0 0 0 17.875-17.534 1663.13 1663.13 0 0 1 11.97-11.713c3.905-3.78 7.78-7.589 11.636-11.42 1.46-1.44 2.93-2.87 4.41-4.287 10.218-9.806 15.94-18.81 20.411-32.252C113.482 182.685 124.634 166.787 137 153l2.309-2.676c19.21-22.019 44.166-37.562 71.507-47.44 6.518-2.64 10.692-5.972 15.566-10.926l2.16-2.159c2.345-2.346 4.679-4.703 7.013-7.06a7145.919 7145.919 0 0 0 17.697-17.784c4.358-4.39 8.725-8.77 13.092-13.152C274.904 43.21 283.455 34.608 292 26c-15.455-10.304-39.738-11.251-57.688-11.375l-3.886-.042c-23.36.116-46.522 7.744-62.36 25.597Zm112.738 17.2-1.675 1.735a322.898 322.898 0 0 0-3.55 3.752 412.2 412.2 0 0 1-5.69 5.955c-5.432 5.605-10.806 11.265-16.164 16.94-27.987 29.574-27.987 29.574-45.65 33.7-4.936 1.28-9.413 3.896-13.887 6.288l-2.884 1.525C178.589 134.177 167.429 143.005 157 153l-2.629 2.438c-16.4 15.677-30.973 37.272-37.449 59.214-3.792 12.626-11.36 19.971-20.797 28.848a1867.821 1867.821 0 0 0-4.398 4.262c-3.55 3.44-7.13 6.848-10.727 10.238 3.082 2.422 6.286 4.39 9.691 6.328l3.366 1.926 3.505 1.996c4.495 2.559 8.972 5.142 13.438 7.75l3.268 1.854 3.029 1.79 2.702 1.566C122 283 122 283 122.656 285.765c.03 2.511-.166 4.775-.656 7.235-5.431 1.435-8.171 1.253-13.063-1.582l-2.92-1.667L103 288c-1.94-1.087-3.882-2.171-5.824-3.254l-5.864-3.308-2.97-1.67c-5.006-2.827-9.894-5.69-14.6-8.998-1.728-.933-1.728-.933-3.718-.585C62.874 273.063 56.129 280.671 52 287c-1.682 4.922-.638 9.7.485 14.653.544 2.481.927 4.954 1.288 7.468C58.756 342.126 71.433 374.854 91 402l2.04 2.867C105.083 421.38 118.91 436.375 135 449l2.879 2.36C166.787 474.544 201.787 488.397 238 495l2.085.382c56.458 9.886 115.013-5.747 161.794-37.664 3.48-2.445 6.816-5.043 10.121-7.718l2.977-2.363C429.615 435.787 442.926 422.234 454 407l1.902-2.559c24.39-33.681 40.935-76.773 41.336-118.593l.03-2.574c.175-19.096-.017-37.557-4.268-56.274l-.65-2.868C484.69 191.527 470.175 159.325 448 134c-.948-1.127-1.893-2.256-2.836-3.387-9.482-11.315-19.52-21.477-31.164-30.613l-2.879-2.36C378.991 71.87 337.101 55.21 296 52l-2.078-.215c-6.06-.372-9.033 1.076-13.118 5.596Z" fill="#FFC513"/><path d="M363.938 169.625C391.962 193.859 408.77 227.071 412 264c2.422 37.54-9.477 73.168-34.039 101.573-24.887 28.216-59.011 44.02-96.407 46.595-40.441 1.988-75.286-13.57-104.788-40.184-24.756-23.567-38.8-58.557-40.016-92.394-.752-38.613 12.943-73.813 39.512-101.781 50.123-51.41 133.136-54.127 187.675-8.184ZM189 187l-2.273 2.078c-22.453 21.27-34.149 52.506-35.077 83.042-.359 33.655 12.385 63.57 35.35 87.88l2.078 2.273c21.27 22.453 52.506 34.149 83.042 35.077 33.655.359 63.57-12.385 87.88-35.35l2.273-2.078c22.453-21.27 34.149-52.506 35.077-83.042.359-33.655-12.385-63.57-35.35-87.88l-2.078-2.273c-20.996-22.162-52.127-34.207-82.33-35.077C243.611 151.31 213.6 163.762 189 187Z" fill="#FFC513"/><path d="M300.313 233.813c11.06 7.096 17.468 17.1 20.992 29.699 2.795 14.02.071 27.326-7.684 39.277C305.837 313.406 294.838 319.441 282 322c-14.88 1.537-28.313-2.147-39.96-11.59-9.606-8.912-14.94-21.396-15.513-34.417-.183-13.806 4.76-25.924 13.973-36.18 16.521-15.694 40.654-16.73 59.813-6Zm-51.399 19.613c-6.208 8.349-8.417 17.292-6.914 27.574 2.287 8.886 6.717 15.429 14 21 8.593 4.95 17.883 6.549 27.656 4.422 8.933-3.11 16.125-9.381 20.406-17.797 3.738-8.38 4.255-16.565 1.375-25.375-2.184-5.368-5.285-9.26-9.437-13.25l-2.313-2.25c-14.963-9.744-32.676-7.63-44.773 5.676ZM360 298c5.707 5.454 8.878 10.263 9.438 18.25-.186 6.47-2.779 12.194-7.446 16.68-6.733 5.193-12.591 5.817-20.992 5.07-6.184-1.703-10.534-5.69-14-11-2.883-6.082-3.099-12.278-1.195-18.727 2.823-6.444 6.813-10.311 13.195-13.273 7.022-1.897 14.963-1.159 21 3Zm-19 14c-1.248 3.405-1.248 3.405-1 7 1.417 2.583 1.417 2.583 4 4 3 .75 3 .75 6 0 2.591-2.01 2.591-2.01 4-5 .253-3.147.253-3.147-1-6-4.733-3.64-7.292-3.742-12 0ZM357.375 212.563c5.044 2.973 8.49 7.065 11 12.312 1.391 6.956 1.477 13.94-2.375 20.125-4.509 5.085-9.072 9.15-16 10-6.52.054-12.774-.87-18-5-5.341-6.435-7.383-11.82-7.273-20.148.666-6.95 4.158-11.276 9.394-15.625 6.771-4.42 15.857-4.985 23.254-1.665Zm-15.813 15c-1.874 2.454-1.874 2.454-1.625 6 .775 3.504.775 3.504 3.25 5.5 3.692 1.23 5.36.625 8.813-1.063 2.315-2.817 2.315-2.817 1.813-6-.977-3.706-.977-3.706-3.813-6-3.616-.539-5.341-.422-8.438 1.563ZM212.375 212.563c5.024 2.962 8.456 7.045 11 12.25 1.384 7.058 1.475 13.083-2.176 19.437-3.64 5.312-7.946 8.687-14.23 10.258-6.851 1.134-13.324.084-19.051-3.988-5.481-5.043-7.944-10.557-8.356-17.958.244-5.872 2.13-11.002 6.086-15.39 7.393-6.65 17.379-8.806 26.727-4.61Zm-15.813 15.562c-1.8 2.787-1.8 2.787-1.625 6 .857 2.994.857 2.994 3.25 4.875 2.835 1.277 2.835 1.277 6 .375 3.063-1.205 3.063-1.205 4.813-4.375.507-3.298.31-4.558-1.625-7.313-2.312-1.892-2.312-1.892-5.375-2.25-3.146.328-3.146.328-5.438 2.688ZM286.215 171.66c4.253 3.192 7.82 7.373 9.785 12.34.864 7.6.829 14.784-4 21-4.988 5.399-9.915 7.965-17.313 8.375-5.944-.17-11.108-2-15.515-6.059-5.233-5.906-7.448-11.55-7.067-19.52 1.023-6.879 4.78-11.272 9.895-15.796 7.336-4.568 16.716-4.667 24.215-.34ZM268 188c-.458 3.204-.61 5.07 1.188 7.813 2.405 1.576 3.917 2.118 6.812 2.187 2.932-1.429 2.932-1.429 5-4 .75-3 .75-3 0-6-1.983-2.791-3.13-3.826-6.5-4.5-3.37.674-4.517 1.709-6.5 4.5ZM288 340c4.339 3.996 7.674 8.213 8.371 14.172.142 7.638-.053 13.079-5.371 18.828-4.744 4.83-9.51 7.277-16.313 7.375-6.335-.145-10.84-1.641-15.44-6.059-5.746-6.437-6.761-11.156-6.626-19.828.69-6.353 3.719-10.153 8.316-14.363 8.586-5.957 18.345-5.746 27.063-.125Zm-18.375 12.563c-2.086 3.128-2.24 4.743-1.625 8.437 1.417 2.583 1.417 2.583 4 4 3.626.09 3.626.09 7-1 2.313-3.47 2.425-4.922 2-9-1.64-2.643-2.953-2.985-5.938-3.938-3.11-.352-3.11-.352-5.437 1.5ZM211.45 295.91c5.193 3.077 8.827 7.136 11.863 12.34 1.567 6.269 1.416 12.878-1.133 18.863-3.284 5.253-8.316 9.023-14.18 10.887-7.372.874-13.932.544-20-4-5.153-5.038-7.524-10.326-8.438-17.375.928-7.688 3.455-13.597 9.56-18.469 6.578-4.048 15.025-4.96 22.327-2.246Zm-14.262 15.215c-2.503 2.687-2.503 2.687-2.188 6 1.204 3.585 1.204 3.585 4 5.875 3.616.539 5.341.422 8.438-1.563 1.882-2.454 1.882-2.454 1.562-6-.716-3.426-.716-3.426-2.813-5.375-3.813-1.852-5.685-1.441-9 1.063ZM115.953 85.59c4.43 3.052 7.36 7.351 9.047 12.41.67 7.424.611 13.885-4 20-3.883 4.16-8.156 6.663-13.832 7.336-6.48.085-12.04-.018-17.168-4.336-5.075-6.152-7.39-11.394-7.273-19.371.617-5.939 3.343-10.056 7.71-14.004 7.771-6.033 16.7-6.397 25.516-2.035ZM99.687 99.625c-2.008 2.315-2.008 2.315-1.562 5.5.658 2.972.658 2.972 2.875 4.875 3.103.33 5.158.505 7.875-1.125 1.672-2.786 1.589-4.695 1.125-7.875-1.654-1.99-1.654-1.99-4-3-3.926-.383-3.926-.383-6.313 1.625ZM222.125 33.652c5.544 2.884 9.637 7.704 12.25 13.285C235.757 53.71 235.625 59.986 232 66c-5.18 5.706-9.996 8.981-17.75 9.375-6.308-.169-11.658-1.669-16.11-6.316C192.737 62.07 192.08 55.74 193 47c2.266-6 6.489-10.346 12.29-13.078 5.288-1.799 11.474-1.915 16.835-.27Zm-12.938 15.473C207.43 51.9 207.532 53.789 208 57c1.519 2.098 1.519 2.098 4 3 3.127.007 3.127.007 6-1 2.32-2.826 2.32-2.826 1.813-6.063-.55-3.234-.55-3.234-3.813-4.937-2.83-.354-4.368-.392-6.813 1.125ZM62.453 193.688c5.686 2.604 9.16 6.405 11.86 12.062 1.465 6.93 1.612 13.158-1.981 19.43-3.68 5.03-8.156 8.56-14.332 9.82-5.85.472-10.888.091-16-3-4.43-4.1-8.58-8.578-9.336-14.734-.097-7.465.482-13.237 5.797-18.793 7.007-6.136 14.982-7.31 23.992-4.786Zm-13.39 15.375c-1.73 3.153-.922 5.562-.063 8.937 2.748 2.277 2.748 2.277 5.5 1.813 2.731-.888 3.891-1.442 5.5-3.813.428-2.855.407-4.345-1.125-6.813-3.261-2.065-6.456-1.965-9.813-.125ZM436 254c2.798 1.218 2.798 1.218 5.676 2.93l3.236 1.897 3.4 2.048c1.164.69 2.328 1.378 3.493 2.066 2.32 1.37 4.635 2.748 6.948 4.13 2.861 1.7 5.737 3.366 8.63 5.011l2.366 1.354c1.418.81 2.838 1.617 4.262 2.417 3.39 1.965 6.1 3.648 7.989 7.147-.066 3.752-.184 6.063-2.688 8.938-3.007 1.381-5.014 1.318-8.312 1.062-2.798-1.218-2.798-1.218-5.676-2.93l-3.236-1.897-3.4-2.048c-1.163-.688-2.327-1.375-3.49-2.061-2.32-1.37-4.635-2.745-6.947-4.127a822.99 822.99 0 0 0-8.669-5.09l-4.582-2.66c-.693-.4-1.385-.802-2.099-1.216-2.561-1.503-4.791-2.861-6.901-4.971-.674-6.963-.674-6.963 1.625-10.5 3.08-1.945 4.766-1.812 8.375-1.5ZM290 68c2.538 2.21 2.95 3.444 3.25 6.79-.29 3.724-1.278 5.687-3.18 8.886l-1.897 3.236-2.048 3.4c-.688 1.163-1.375 2.327-2.061 3.49-1.37 2.32-2.745 4.635-4.127 6.947a822.99 822.99 0 0 0-5.09 8.669l-2.66 4.582c-.4.693-.802 1.385-1.216 2.099-1.503 2.561-2.861 4.791-4.971 6.901-6.963.674-6.963.674-10.5-1.625-1.945-3.08-1.812-4.766-1.5-8.375 1.218-2.798 1.218-2.798 2.93-5.676l1.897-3.236 2.048-3.4c.69-1.164 1.378-2.328 2.066-3.493 1.37-2.32 2.748-4.635 4.13-6.948 1.7-2.861 3.366-5.737 5.011-8.63l1.354-2.366c.81-1.418 1.617-2.838 2.417-4.262 3.84-6.627 6.4-9.102 14.147-6.989ZM286.875 425.625c2.946.097 4.07.342 6.688 1.875 1.692 2.944 1.602 4.785 1.108 8.096-1.412 5.057-4.383 9.399-7.108 13.841l-3.833 6.383-1.916 3.161a411.475 411.475 0 0 0-4.826 8.261l-1.352 2.362a671.92 671.92 0 0 0-2.438 4.306c-1.98 3.422-3.66 6.19-7.198 8.09-3.752-.066-6.063-.184-8.938-2.688-1.381-3.007-1.318-5.014-1.062-8.312 1.218-2.798 1.218-2.798 2.93-5.676l1.897-3.236 2.048-3.4c.688-1.163 1.375-2.327 2.061-3.49 1.37-2.32 2.745-4.635 4.127-6.947a822.99 822.99 0 0 0 5.09-8.669l2.66-4.582c.4-.693.802-1.385 1.216-2.099 3.994-6.806 3.994-6.806 8.846-7.276ZM421 335c3.809 3.33 6.281 6.797 8.742 11.191l1.005 1.776c1.05 1.86 2.09 3.728 3.128 5.596 1.03 1.834 2.062 3.666 3.095 5.499.68 1.208 1.357 2.417 2.033 3.628 2.777 4.967 5.69 9.847 8.654 14.704 1.353 2.626 2.062 4.67 2.343 7.606-1.142 2.283-2.19 4.19-4 6-5.732.564-5.732.564-8 0-2.931-3.325-5.196-6.843-7.39-10.684l-1.891-3.291-1.969-3.462a10313.067 10313.067 0 0 1-5.963-10.459c-1.486-2.582-3-5.139-4.549-7.682l-1.145-1.905a581.452 581.452 0 0 0-2.87-4.685c-1.506-3.487-1.558-6.07-1.223-9.832 2.728-4.091 5.204-4.88 10-4ZM389 101c2.547 2.547 2.353 4.445 2.559 7.93-1.05 3.887-5.018 5.732-8.291 7.774l-2.952 1.687-3.291 1.89-3.462 1.969a10313.067 10313.067 0 0 1-10.459 5.963c-2.582 1.486-5.139 3-7.682 4.549l-1.905 1.145a581.452 581.452 0 0 0-4.685 2.87c-3.487 1.506-6.07 1.558-9.832 1.223-2.438-1.625-2.438-1.625-4-4-.563-2.938-.563-2.938 0-6 3.204-3.635 6.484-6.11 10.684-8.488l3.292-1.88 3.462-1.945c1.176-.668 2.353-1.336 3.529-2.006 2.302-1.309 4.606-2.613 6.912-3.915a887.23 887.23 0 0 0 7.84-4.489l1.959-1.133 1.76-1.019c5.714-3.304 8.222-4.688 14.562-2.125ZM210 411c2.5 2.063 2.5 2.063 4 5 .313 3.438.313 3.438-1 7-5.995 5.06-13.484 8.64-20.313 12.438-7.865 4.343-7.865 4.343-15.57 8.96-5.64 3.534-9.39 5.825-16.117 4.602-2-1-2-1-3-3-.708-5.574-.708-5.574 0-8 3.331-2.924 6.842-5.196 10.684-7.39l3.291-1.891 3.463-1.969 5.3-3.023 5.158-2.94c2.582-1.486 5.139-3 7.682-4.549l1.905-1.145a581.452 581.452 0 0 0 4.685-2.87c3.497-1.51 6.06-1.59 9.832-1.223ZM364.313 397.688c3.687.312 3.687.312 5.886 1.99 2.198 2.833 2.302 4.225 2.303 7.777l.028 3.307-.034 3.554.005 3.661c-.002 2.553-.014 5.106-.034 7.658-.03 3.916-.021 7.83-.008 11.746a4071.31 4071.31 0 0 1-.025 7.435l.008 3.561-.038 3.297-.016 2.904c-.456 2.845-1.111 3.714-3.388 5.422-2.984 1.02-4.62 1.097-7.688.313-2.737-1.554-3.184-2.425-4.312-5.313-.26-2.384-.26-2.384-.275-5.056l-.029-3.045.003-3.27-.013-3.377c-.006-2.356-.006-4.713-.002-7.069.003-3.603-.02-7.206-.045-10.81-.003-2.29-.003-4.58-.002-6.87l-.028-3.263c.085-13.834.085-13.834 7.704-14.553ZM99.056 356.725l3.045-.029 3.27.003 3.377-.013c2.356-.006 4.713-.006 7.069-.002 3.603.003 7.206-.02 10.81-.045 2.29-.003 4.58-.003 6.87-.002l3.263-.028c9.405.058 9.405.058 13.24 3.391 1.42 2.84 1.315 4.855 1 8-2.043 2.634-3.242 3.851-6.549 4.501h-2.906l-3.307.03-3.554-.035-3.661.005c-2.553-.002-5.106-.014-7.658-.034-3.916-.03-7.83-.021-11.746-.008a4071.3 4071.3 0 0 1-7.435-.025l-3.561.008-3.297-.038-2.904-.016c-2.845-.456-3.714-1.111-5.422-3.388-1.02-2.984-1.097-4.62-.312-7.688 2.403-4.234 5.762-4.563 10.368-4.587ZM407.455 176.498l3.307-.028 3.554.034 3.661-.005c2.553.002 5.106.014 7.658.034 3.916.03 7.83.021 11.746.008 2.478.006 4.957.015 7.435.025l3.561-.008 3.297.038 2.904.016c2.845.456 3.714 1.111 5.422 3.388 1.01 2.954 1.084 4.638.375 7.687-1.774 2.983-3.111 3.27-6.375 4.313-2.466.26-2.466.26-5.078.275l-2.984.029-3.188-.003-3.306.013c-2.303.006-4.606.006-6.909.002-3.522-.003-7.044.02-10.566.045-2.24.003-4.48.003-6.719.002l-3.188.028c-9.194-.058-9.194-.058-13.062-3.391-1.42-2.84-1.315-4.855-1-8 2.888-3.723 4.803-4.5 9.455-4.502Z" fill="#FFC513"/></svg>