<svg xmlns="http://www.w3.org/2000/svg" width="512" height="512"><path d="M263.94 155.684c2.055.003 4.107-.02 6.162-.045l3.96-.002 3.598-.01c5 .558 8.248 2.192 11.652 5.873 2.303 3.411 2.813 5.93 2.786 9.95l-.01 2.568-.026 2.67-.013 2.705c-.012 2.202-.028 4.405-.049 6.607l2.648.332c4.367.87 7.84 2.764 11.766 4.805 2.479 1.091 2.479 1.091 4.613.32 3.558-2.627 6.417-5.933 9.438-9.144 3.088-2.818 5.555-4.11 9.71-4.536 4.511.338 7.245 1.2 10.595 4.297l2.087 1.914L345 186l2.11 1.928a374.535 374.535 0 0 1 6.265 5.947l2.152 1.988c4.077 3.969 6.626 7.254 7.473 12.976 0 5.216-2.281 8.395-5.734 12.075a219.997 219.997 0 0 1-4.59 4.078c-1.681 1.492-1.681 1.492-3.676 4.008-.13 2.502-.13 2.502 1 5l1.191 3.262 1.371 3.426C355 246.785 355 246.785 355 249l1.74-.063c2.629-.084 5.256-.136 7.885-.187l2.738-.102c5.749-.083 9.142.397 13.637 4.352 3.023 3.032 3.366 5.566 3.442 9.788l-.008 2.267.015 2.36c.007 1.647.006 3.292-.003 4.938-.008 2.507.02 5.011.052 7.518.002 1.603.001 3.206-.002 4.809l.034 2.254c-.068 5.16-1.19 8.146-4.53 12.066-2.975 2.091-5.397 2.24-8.984 2.195l-2.832-.02-2.934-.05-2.98-.027A993.885 993.885 0 0 1 355 301l-.336 2.648c-.862 4.35-2.71 7.836-4.703 11.766-1.08 2.44-1.08 2.44-.95 4.598 1.499 3.014 3.962 4.96 6.426 7.176 3.984 3.797 6.767 6.939 7.805 12.449-.939 9.162-6.254 14.056-12.617 20.176l-2.578 2.56c-10.253 10.053-10.253 10.053-16.485 10.065-9.193-.409-14.542-8.255-20.562-14.438l-18 7c-.21 5.608-.21 5.608-.388 11.217-.239 5.148-.907 9.27-3.612 13.783-5.082 3.511-8.434 4.505-14.727 4.496l-2.153.005c-1.491-.002-2.982-.014-4.473-.034-2.273-.03-4.545-.021-6.819-.008-7.907-.034-12.981-.09-19.125-5.47-2.572-4.514-2.13-8.708-1.953-13.801l.055-2.967c.047-2.408.112-4.814.195-7.221l-1.99-.58c-4.628-1.364-9.173-2.759-13.635-4.607l-2.54-1.043L220 358l-2.738 2.809-3.575 3.629-1.802 1.853-1.748 1.768-1.603 1.634c-3.097 2.639-6.495 2.482-10.401 2.635-5.13-.789-8.658-4.606-12.18-8.144l-2.808-2.815-1.44-1.458a983.981 983.981 0 0 0-4.396-4.417c-8.456-8.51-8.456-8.51-8.622-14.244.086-4.986.96-7.407 4.313-11.25 2.402-2.28 4.798-4.55 7.27-6.754 1.986-2.085 1.986-2.085 1.652-4.605a221.755 221.755 0 0 0-3.485-9.328C176 303.215 176 303.215 176 301l-1.848.048c-2.78.062-5.56.101-8.34.14l-2.908.076c-9.152.095-9.152.095-12.904-3.264-3.153-4.175-3.454-7.864-3.434-12.934l-.015-2.29c-.007-1.592-.006-3.185.003-4.777.008-2.426-.02-4.849-.052-7.274-.002-1.553-.001-3.106.002-4.659l-.034-2.178c.07-5.09 1.33-7.97 4.53-11.888 5.085-3.599 9.895-3.363 15.875-3.187l2.664.04c2.154.036 4.308.09 6.461.147l.516-1.871c1.707-5.967 3.848-11.516 6.484-17.129l-2.809-2.773-3.629-3.602-1.853-1.828-1.768-1.758-1.634-1.619c-2.46-2.674-2.61-5.003-2.807-8.545l-.219-2.758c1.12-4.857 4.303-7.615 7.719-11.117l1.995-2.105c2.02-2.114 4.07-4.195 6.13-6.27l2.09-2.152 2.043-2.059 1.817-1.845c3.406-2.776 6.87-3.959 11.237-3.631 5.69.793 8.814 4.066 12.688 8.062l1.832 1.797c1.407 1.383 2.79 2.79 4.168 4.203 4.895-1.587 9.701-3.372 14.512-5.195C237 186 237 186 240 186l-.08-1.924c-.104-2.9-.168-5.8-.233-8.701l-.126-3.027c-.139-8.35-.139-8.35 2.584-11.934 6.428-5.435 13.775-4.756 21.795-4.73ZM253 170c-.21 7.763-.21 7.763-.388 15.527l-.1 2.93-.08 3c-.497 2.927-1.07 3.802-3.432 5.543a112.1 112.1 0 0 1-6.938 2.313c-6.192 1.91-11.66 4.37-17.28 7.648-3.855 1.44-5.837 1.243-9.782.039-2.776-2.088-5.085-4.515-7.438-7.062l-1.927-2.01A400.323 400.323 0 0 1 201 193c-3.043 1.358-5.123 2.885-7.453 5.258l-1.875 1.894-1.922 1.973-1.969 1.996A1236.767 1236.767 0 0 0 183 209c3.303 3.925 6.625 7.74 10.312 11.313 4.587 4.446 4.587 4.446 4.95 8.902-.296 4.276-1.384 6.617-3.45 10.348-3.274 6.094-5.632 12.196-7.769 18.769C186 261 186 261 184 262c-1.812.153-3.628.25-5.445.316l-2.938.116-3.742.13L160 263v25c8.092.13 8.092.13 16.185.208l3.053.085 3.127.048C185 289 185 289 186.8 291.376c1.235 2.7 2.165 5.342 3.012 8.187 1.762 5.564 4.155 10.472 7.016 15.55 1.528 3.765 1.882 5.851 1.172 9.887-2.171 3.006-4.775 5.436-7.5 7.938l-2.168 2.072A402.874 402.874 0 0 1 183 340c1.358 3.043 2.885 5.123 5.258 7.453l1.894 1.875 1.973 1.922 1.996 1.969c1.622 1.598 3.248 3.192 4.879 4.781 3.889-3.258 7.608-6.524 11.062-10.25 3.12-3.125 5.386-5.266 9.938-5.75 2.562.854 4.627 1.768 7 3 6.737 3.22 13.42 5.922 20.566 8.105C250 354 250 354 252 356c.319 2.43.319 2.43.414 5.445l.108 2.938.103 3.742L253 380h25c.13-7.763.13-7.763.208-15.527l.085-2.93.048-3C279 356 279 356 281.35 354.228c3.002-1.39 6.01-2.492 9.149-3.54 6.15-2.105 11.807-4.7 17.562-7.746C311 342 311 342 313.914 342.395c4.265 2.218 7.175 5.266 10.461 8.73l1.941 1.996A600.102 600.102 0 0 1 331 358c4.329-3.63 8.467-7.35 12.437-11.375l2.622-2.648L348 342c-1.65-4.296-4.817-7.005-8.063-10.125-6.812-6.599-6.812-6.599-7.203-10.59.323-3.984 1.59-6.356 3.516-9.847 3.102-5.802 5.207-11.516 6.926-17.891C344 291 344 291 346 289c2.522-.319 2.522-.319 5.664-.414l3.061-.108 3.9-.103L371 288v-25c-7.763-.21-7.763-.21-15.527-.388l-2.93-.1-3-.08c-2.927-.497-3.802-1.07-5.543-3.432a112.1 112.1 0 0 1-2.313-6.937c-1.916-6.185-4.362-11.718-7.55-17.38-1.346-3.176-1.556-5.265-1.137-8.683 1.25-2.055 1.25-2.055 3-3.875l1.91-2.023L340 218l2.246-2.29c1.903-1.919 3.82-3.821 5.754-5.71-4.984-6.033-10.42-11.518-16-17-4.848 1.84-7.947 5.973-11.314 9.744-2.701 2.854-4.322 4.144-8.166 5.322-4.213-.08-6.372-1.115-10.02-3.191-6.351-3.476-12.69-5.747-19.613-7.832C280 196 280 196 279 194c-.153-1.812-.25-3.628-.316-5.445l-.116-2.938-.13-3.742L278 170h-25ZM100.188 330.313c5.427.978 7.964 3.922 11.812 7.687a323.31 323.31 0 0 0 4 3.438l3 2.562 2.555-2.59 3.32-3.348 1.684-1.708c5.185-5.218 5.185-5.218 9.316-5.666 3.125.312 3.125.312 5.563 1.875C143 335 143 335 143.097 338.214c-1.348 4.646-3.18 5.954-6.827 8.924-5.994 4.912-10.477 9.077-11.552 17.017-.353 5.63-.21 11.227.281 16.844l1.712-1.01c2.552-1.501 5.107-2.996 7.663-4.49l2.695-1.59 2.578-1.504 2.38-1.396C144 370 144 370 146 370l.297-1.95c3.241-19.588 3.241-19.588 7.703-24.05 3.142-1.104 4.595-1.147 7.75 0 3.174 2.822 2.987 4.81 3.25 9-.518 2.716-1.086 5.186-1.875 7.813l-.566 2.021c-.707 2.484-1.402 4.851-2.559 7.166l3.313.313c13.371 1.74 13.371 1.74 18.437 6 1.606 3.453 1.495 5.107.25 8.687-1.563 1.938-1.563 1.938-4 3-6.729-.127-13.1-2.359-19.512-4.258-6.834-1.454-11.044 1.461-16.8 4.82l-2.245 1.288A1122.391 1122.391 0 0 0 134 393c3.47 2.86 6.994 5.436 10.813 7.813l2.957 1.894c6.981 2.794 15.15-.574 22.138-2.51 3.33-.85 5.67-1.308 9.026-.424 2.525 1.5 3.26 2.407 4.066 5.227-.203 2.77-.512 4.406-2.286 6.566-1.972 1.65-3.466 2.17-5.944 2.82l-2.432.655-2.525.647-2.561.681A904.037 904.037 0 0 1 161 418l.875 3.29 1.125 4.335.578 2.16c1.064 4.141 1.845 7.905 1.422 12.215-2.125 2.438-2.125 2.438-5 4-3.287 0-5.138-.145-7.512-2.5-2.16-3.63-3.101-7.436-4.175-11.5l-.682-2.445C146.616 423.817 146 420.926 146 417c-.654-.235-1.307-.47-1.98-.71-3.951-1.688-7.607-3.784-11.333-5.915l-2.244-1.273c-1.816-1.031-3.63-2.066-5.443-3.102-1.352 13.258-1.352 13.258 2.602 25.547 3.288 3.79 6.954 6.917 10.835 10.078 3 2.526 3.509 3.181 4.622 7.16C143 452 143 452 142.063 454.437c-2.594 1.965-4.706 2.088-7.913 2.024-4.107-.88-6.445-3.929-9.15-6.961l-1.77-1.879A309.54 309.54 0 0 1 119 443c-3.757 3.144-7.194 6.205-10.438 9.875-2.55 2.602-4.14 3.616-7.812 3.75C97 456 97 456 95 454.875c-1.604-3.008-1.64-4.483-1-7.875 2.628-3.916 5.845-7.163 9.656-9.926 4.12-3.238 6.843-5.579 7.885-10.77.703-6.757.691-13.52.459-20.304l-1.712 1.01a3328.573 3328.573 0 0 1-7.663 4.49l-2.695 1.59-2.578 1.504-2.38 1.396C93 417 93 417 91 417l-.297 1.695c-.989 5.301-2.203 10.528-3.578 15.743l-.93 3.558c-1.289 3.24-2.138 4.397-5.195 6.004-3.11-.127-5.2-.52-7.875-2.125-2.36-3.934-1.255-8.774-.25-13.059.367-1.42.742-2.838 1.125-4.253l.578-2.217c.467-1.784.943-3.565 1.422-5.346l-3.602-.383c-3.743-.47-7.183-1.301-10.773-2.492l-3.086-.992C56 412 56 412 54 409c.453-6.453.453-6.453 3-9 5.67-2.177 11.446.598 16.963 2.262 6.68 1.911 10.877 1.99 17.123-1.328a390.273 390.273 0 0 0 4.289-2.497l2.23-1.287c1.803-1.042 3.6-2.095 5.395-3.15a328.001 328.001 0 0 0-6.441-4.324 143.095 143.095 0 0 1-4.774-3.258c-4.278-2.808-7.049-3.79-12.16-2.918-2.883.7-5.711 1.525-8.559 2.355C61.4 388.65 61.4 388.65 57 387c-1.938-1.688-1.938-1.688-3-4 .122-2.982.351-5.076 2.086-7.547 2.835-2.152 6.015-2.809 9.414-3.64l2.05-.538C70.447 370.536 73 370 76 370l-.875-3.254L74 362.438l-.578-2.135C72.255 355.779 71.69 351.713 72 347c1.44-2.16 2.519-2.792 4.875-3.813 3.047-.268 4.508.202 7.125 1.813 1.935 3.773 3.101 7.042 3.684 11.234 1.335 8.755 1.335 8.755 6.503 15.667 5.592 3.71 11.618 6.545 17.813 9.099 1.419-13.341 1.419-13.341-2.716-25.661-3.538-4.043-7.468-7.429-11.6-10.843-3.607-3.067-3.607-3.067-4.278-6.812 1.03-4.657 1.987-6.337 6.781-7.372ZM107 58c10.928 6.809 19.625 16.561 23.586 28.813 1.477 7.802.908 16.489-1.137 24.117-.788 3.634-.804 7.374-.449 11.07.983 1.206.983 1.206 2.848 1.098L138 123l.297-2.922.453-3.828.422-3.797c.907-3.783 1.768-5.128 4.828-7.453 2.813-.75 2.813-.75 6 0 9.715 7.477 15.237 22.257 17 34 1.67 15.231-3.196 30.19-12.656 42.082-8.702 9.42-20.728 14.258-33.356 15.043-14.141.406-28.411-3.432-38.988-13.125-9.605-9.174-14.68-20.383-15.336-33.648-.175-9.154.04-17.057 4.336-25.352l1.367-2.8c3.786-7.11 8.643-12.803 13.987-18.75C94.073 93.738 97.545 85.602 97 74l-.5-2.5c-.77-3.846-1.025-7.602-.5-11.5 3.033-4.125 6.399-3.004 11-2Zm4 24-.262 2.055c-1.752 11.61-6.427 18.877-14.07 27.474-10.877 12.366-16.744 23.72-15.85 40.422.86 9.68 5.98 16.805 13.182 23.049 9.934 6.54 21.005 8.542 32.71 6.535 8.887-2.31 16.227-7.873 21.29-15.535 5.54-11.291 6.684-22.208 2.656-34.2L150 130l-3 2v2c-7.108 2.881-13.75 4.521-21.36 2.316-4.71-2.134-7.171-4.675-9.64-9.316-2.01-6.032-1.765-13.37 0-19.438 2.028-7.223 2.432-15.609-1-22.437L113 82h-2ZM416 323c19.896 11.699 34.83 46.794 40.5 68.188 3.335 13.966 2.376 27.203-5.008 39.59-7.06 10.515-15.98 17.14-28.367 20.222-13.623 2.4-25.963.22-37.375-7.75-8.87-7.248-15.274-15.91-17.75-27.25-1.216-12.837.209-24.1 5-36l.747-1.934C379.256 363.919 397.252 320.223 416 323Zm-4 17a88.22 88.22 0 0 0-4.5 5.875l-1.333 1.885c-5.347 7.73-9.835 15.91-14.167 24.24l-1.052 2.005c-6.261 12.088-12.793 27.219-8.823 40.933 2.555 7.868 7.918 14.566 14.875 19.062 9.363 4.575 17.63 5.398 27.516 2.098 8.871-3.92 15.109-11.024 18.613-19.985 4.722-16.878-3.97-34.468-11.942-49.01-5.242-9.28-10.67-18.653-17.187-27.103h-2Z" fill="#FFC513"/><path d="M296.465 233.09c11.06 8.333 17.958 19.244 20.535 32.91 1.78 16.652-2.043 30.673-12.309 43.996C296.54 319.598 284.3 325.308 272 327c-15.058 1.017-28.655-2.266-40.188-12.25-10.242-9.761-17.076-20.838-18.05-35.281-.31-16.54 4.294-29.94 15.726-42.11 18.586-17.458 46.267-18.304 66.977-4.27Zm-59.84 17.222C228.48 260.055 226.94 270.637 228 283c2.915 11.282 10.045 20.066 20 26 8.66 4.364 17.59 5.605 27.059 3.234 5.143-1.758 9.597-3.924 13.941-7.234l2.434-1.793c2.697-2.32 4.363-4.516 6.253-7.52l1.762-2.738c4.576-8.701 5.059-19.412 2.863-28.93-3.987-10.715-11.836-19.392-22.207-24.207-15.72-6.066-32.008-1.65-43.48 10.5ZM186.332 120.606l3.947-.035 4.324.01a2117.073 2117.073 0 0 1 16.937-.049c3.444 0 6.889-.01 10.333-.018 8.126-.019 16.251-.022 24.377-.015 8.383.007 16.766-.016 25.15-.053a4494.4 4494.4 0 0 1 21.592-.038c4.299.002 8.597-.004 12.896-.028 4.043-.023 8.085-.02 12.127 0 1.483.003 2.967-.002 4.45-.016 2.025-.019 4.05-.003 6.076.015l3.434-.003c3.998.825 5.526 2.463 8.025 5.624.063 3.125.063 3.125-1 6-3.266 3.238-5.84 3.376-10.339 3.381l-3.95.026-4.33-.019c-1.521.004-3.042.01-4.564.016-4.13.014-8.26.008-12.39-.001-4.32-.008-8.642 0-12.963.004a8001.26 8001.26 0 0 1-21.77-.016c-8.39-.016-16.781-.01-25.172.006-7.203.013-14.406.015-21.608.007-4.303-.004-8.605-.005-12.908.005-4.045.009-8.09.003-12.135-.015-1.485-.004-2.97-.003-4.455.004a577.22 577.22 0 0 1-6.077-.017l-3.437-.003c-3.218-.42-4.599-1.13-6.902-3.378-.531-1.937-.531-1.937-.5-4l-.031-2.062c1.427-5.207 6.222-5.317 10.863-5.332ZM197.49 415.492l2.007-.019c2.223-.016 4.444-.003 6.667.01a1815.217 1815.217 0 0 1 17.754-.02c4.523.01 9.046 0 13.569-.006 7.596-.007 15.192.002 22.788.022 8.789.021 17.576.014 26.365-.008 7.539-.018 15.077-.02 22.616-.01 4.506.006 9.011.007 13.517-.006 4.235-.012 8.47-.004 12.706.02 1.556.005 3.112.003 4.669-.006 2.12-.01 4.24.003 6.361.023l3.6.005c2.891.503 2.891.503 4.804 2.308 1.65 3.331.999 5.677.087 9.195-3.586 2.39-5.154 2.251-9.415 2.254l-1.981.01c-2.195.007-4.39.001-6.584-.005-1.572.002-3.144.006-4.716.01-4.273.01-8.545.006-12.818 0-4.467-.005-8.934 0-13.4.002-7.503.004-15.005 0-22.507-.01-8.679-.011-17.358-.008-26.037.003-7.446.01-14.891.01-22.336.006-4.45-.004-8.9-.004-13.35.003-4.182.005-8.365.001-12.547-.01-1.537-.003-3.075-.002-4.612.002a852.15 852.15 0 0 1-6.282-.011l-3.555-.002C192 429 192 429 189 427c-1.535-5.92-1.535-5.92.087-9.195 2.753-2.597 4.656-2.308 8.404-2.313ZM412.5 178.625C416 179 416 179 419 181c.983 2.948 1.135 4.884 1.154 7.959l.026 3.101.013 3.4.025 3.583c.025 3.92.041 7.841.055 11.762l.017 4.051c.021 5.617.04 11.235.051 16.852.016 8.047.05 16.093.107 24.14.038 5.66.058 11.321.063 16.982.004 3.38.016 6.76.048 10.14.032 3.77.032 7.54.024 11.31l.05 3.389c-.06 7.529-.06 7.529-2.939 11.563C415 311 415 311 411.312 311 408 310 408 310 406 307c-.254-2.295-.254-2.295-.26-5.041l-.022-3.157.007-3.462-.015-3.647a2325.71 2325.71 0 0 1-.012-9.905c.001-2.756-.003-5.512-.008-8.268-.011-6.502-.012-13.003-.006-19.505.006-6.708-.006-13.416-.027-20.124a4767.88 4767.88 0 0 1-.02-17.277c.001-3.44-.001-6.879-.015-10.318-.015-3.836-.006-7.671.006-11.507l-.023-3.455.02-3.166v-2.748c.716-4.625 2.247-6.3 6.875-6.795ZM408 111a206.865 206.865 0 0 1 4.063 3.188c7.516 5.808 16.676 6.909 25.937 5.812 4.726-1.228 9.204-2.64 13.125-5.61 2.737-2.03 4.557-1.874 7.875-1.39 2.966 2.03 3.825 3.343 4.75 6.813-1.196 5.084-4.466 7.416-8.75 10.187-13.52 6.33-27.868 6.647-42 2-5.514-2.447-10.404-5.445-15.125-9.188-8.36-6.408-17.585-6.82-27.875-5.812-4.723 1.25-8.682 3.131-12.75 5.813C355 124 355 124 351.812 123.874 349 123 349 123 347 120c-.563-3.313-.563-3.313 0-7 4.655-6.504 12.981-8.764 20.395-10.59 14.678-2.31 28.157.6 40.605 8.59ZM408.012 146.516l1.925 1.547c8.731 6.744 18.27 7.996 29.063 6.937 4.749-.962 8.225-2.453 12.188-5.25C454 148 454 148 457.188 148c2.812 1 2.812 1 4.75 2.625 1.658 3.706 1.386 5.535.062 9.375-7.696 7.789-19.539 10.356-30.125 10.438-11.569-.186-23.693-3.315-32.25-11.5-6.932-6.269-16.39-7.626-25.438-7.333-5.82.721-11.617 2.365-16.269 6.04C356 159 356 159 352.375 158.875 349 158 349 158 347 155c-.582-3.823-.43-5.412 1.875-8.563 17.002-13.26 41.904-12.905 59.137.079ZM407 75.438a112 112 0 0 1 4.363 3.609C418.421 84.275 428.362 86.162 437 85c4.974-1.027 9.018-2.34 13.25-5.188 3.28-2.161 4.897-2.482 8.75-1.812 2.438 1.563 2.438 1.563 4 4 .125 3.438.125 3.438-1 7-7.78 8.363-18.857 10.414-29.813 11.313-11.694-.407-24.492-3.956-33.312-11.938C392.771 83.333 384.902 80.869 377 81c-7.66.792-13.567 2.711-20 7-6.02.537-6.02.537-8.938-1.063-1.782-3.25-1.678-5.3-1.062-8.937 12.806-17.32 44.83-13.466 60-2.563ZM122 208c2.04 1.522 2.883 2.407 3.38 4.923l.008 2.214.03 2.55-.014 2.786.02 2.942c.02 3.216.015 6.431.01 9.648l.015 6.691c.01 4.678.007 9.355-.003 14.032-.011 6.003.009 12.005.038 18.008.018 4.607.018 9.213.012 13.82 0 2.214.006 4.427.019 6.64a894.82 894.82 0 0 1-.013 9.273l.029 2.787c-.072 6.17-.072 6.17-2.371 8.755-2.924 1.26-5.01 1.333-8.16.931-2.009-1.53-2.886-2.42-3.378-4.923l-.003-2.214-.026-2.55.019-2.786-.016-2.942c-.013-3.216-.005-6.432.006-9.647a3561.31 3561.31 0 0 1 .007-20.724c.017-6.003.007-12.005-.01-18.008-.012-4.607-.008-9.213 0-13.82.002-2.214 0-4.427-.008-6.64-.007-3.092.004-6.182.02-9.273l-.018-2.787.026-2.549.003-2.214c1.103-5.613 5.492-5.447 10.378-4.923Z" fill="#FFC513"/></svg>