<svg width="260" height="50" viewBox="0 0 260 50" fill="none" xmlns="http://www.w3.org/2000/svg">
<path d="M39.4539 17.1658C35.8263 12.456 30.3316 9.75817 24.3872 9.75817C18.4429 9.75817 12.9482 12.456 9.32057 17.1658C9.13005 17.4173 9.10718 17.7526 9.27484 18.0269C11.302 21.3954 13.7255 27.0502 13.7255 34.9074C13.7255 35.3266 14.0684 35.6695 14.4876 35.6695H34.3021C34.7213 35.6695 35.0642 35.3266 35.0642 34.9074C35.0642 27.0502 37.4801 21.3878 39.5149 18.0269C39.6749 17.7602 39.6597 17.4173 39.4692 17.1658H39.4539Z" fill="#F4B400"/>
<path d="M29.3028 30.8379C28.9141 30.0606 28.1292 29.5728 27.2604 29.5728H21.5218C20.653 29.5728 19.868 30.0606 19.4794 30.8379L17.6122 34.5646C17.4903 34.8008 17.5055 35.0828 17.6427 35.3038C17.7799 35.5248 18.0237 35.662 18.2905 35.662H30.4841C30.7508 35.662 30.9947 35.5248 31.1318 35.3038C31.269 35.0828 31.2843 34.8008 31.1623 34.5646L29.2952 30.8379H29.3028Z" fill="#C23020"/>
<path d="M43.4397 29.5728H40.5742C39.7054 29.5728 38.9205 30.0606 38.5318 30.8379L36.6647 34.5646C36.5427 34.8008 36.558 35.0828 36.6952 35.3038C36.8323 35.5248 37.0762 35.662 37.3429 35.662H44.9639C45.3831 35.662 45.726 35.319 45.726 34.8999V31.8515C45.726 30.594 44.6972 29.5652 43.4397 29.5652V29.5728Z" fill="#C23020"/>
<path d="M10.2503 30.8381C9.86164 30.0608 9.07668 29.5731 8.20788 29.5731H5.3424C4.08493 29.5731 3.0561 30.6019 3.0561 31.8594V34.9077C3.0561 35.3269 3.39905 35.6698 3.8182 35.6698H11.4392C11.7059 35.6698 11.9498 35.5327 12.087 35.3117C12.2241 35.0906 12.2394 34.8087 12.1174 34.5724L10.2503 30.8458V30.8381Z" fill="#C23020"/>
<path d="M9.99886 16.2885L9.32059 17.1649C6.71421 20.5258 5.33482 24.5497 5.33482 28.8098V35.6687H15.2421V34.9066C15.2421 26.6988 12.7043 20.7697 10.5781 17.2335L10.0065 16.2809L9.99886 16.2885Z" fill="#FFC219"/>
<path d="M39.4539 17.1649L38.7757 16.2885L38.2041 17.2411C36.0779 20.7697 33.5401 26.7064 33.5401 34.9142V35.6763H43.4473V28.8174C43.4473 24.5573 42.0679 20.5334 39.4616 17.1726L39.4539 17.1649Z" fill="#FFC219"/>
<path d="M29.1503 7.50154C28.7006 6.99855 28.0528 6.70895 27.367 6.70895H21.3997C20.7138 6.70895 20.0661 6.99855 19.6164 7.50154C19.1896 7.98166 18.9839 8.62944 19.0601 9.26198L21.0796 26.0281C21.2168 27.1789 22.2228 28.0477 23.4117 28.0477H25.3474C26.5363 28.0477 27.5422 27.1789 27.6794 26.0281L29.699 9.26198C29.7752 8.62944 29.5694 7.98928 29.1426 7.50154H29.1503Z" fill="#FFC219"/>
<path d="M47.2119 39.2357L45.6877 34.6631C45.5811 34.3507 45.2915 34.1449 44.9637 34.1449H3.81046C3.48276 34.1449 3.19316 34.3583 3.08646 34.6631L1.56227 39.2357C1.48606 39.472 1.52416 39.7235 1.66896 39.9216C1.81376 40.1197 2.04239 40.2417 2.28626 40.2417H9.06893C9.9301 40.2417 10.776 40.5389 11.4467 41.08L12.7499 42.1241C13.6949 42.8785 14.8761 43.2901 16.0802 43.2901H32.6864C33.8905 43.2901 35.0793 42.8785 36.0167 42.1241L37.3199 41.08C37.9906 40.5389 38.8365 40.2417 39.6977 40.2417H46.4803C46.7242 40.2417 46.9528 40.1274 47.0976 39.9216C47.2424 39.7235 47.2805 39.4643 47.2043 39.2357H47.2119Z" fill="#E53825"/>
<path d="M70.4121 27.7807H62.9102L62.8702 23.1795H68.9518C70.0454 23.1795 70.9189 23.0595 71.5724 22.8194C72.2259 22.5661 72.6994 22.1993 72.9928 21.7192C73.2995 21.239 73.4529 20.6389 73.4529 19.9187C73.4529 19.0918 73.2995 18.425 72.9928 17.9182C72.6861 17.4114 72.1993 17.0447 71.5324 16.8179C70.8789 16.5779 70.032 16.4578 68.9918 16.4578H65.5509V40.1638H58.5291V11.0365H68.9918C70.7922 11.0365 72.3993 11.2032 73.813 11.5366C75.2267 11.8567 76.427 12.3501 77.4139 13.017C78.4142 13.6838 79.1744 14.524 79.6945 15.5376C80.2146 16.5379 80.4747 17.7182 80.4747 19.0785C80.4747 20.2655 80.2213 21.3791 79.7145 22.4193C79.2077 23.4596 78.3608 24.3065 77.1739 24.96C76.0002 25.6002 74.3932 25.9336 72.3526 25.9602L70.4121 27.7807ZM70.1321 40.1638H61.2098L63.6104 34.7625H70.1321C71.0923 34.7625 71.8592 34.6158 72.4327 34.3224C73.0195 34.0156 73.4396 33.6155 73.693 33.1221C73.9597 32.6153 74.0931 32.0551 74.0931 31.4416C74.0931 30.6948 73.9664 30.0479 73.713 29.5011C73.4729 28.9543 73.0862 28.5342 72.5527 28.2408C72.0192 27.9341 71.3057 27.7807 70.4121 27.7807H64.5106L64.5507 23.1795H71.6124L73.2529 25.02C75.2 24.94 76.7404 25.2134 77.874 25.8402C79.021 26.467 79.8412 27.2939 80.3347 28.3208C80.8281 29.3478 81.0748 30.4214 81.0748 31.5417C81.0748 33.4488 80.6614 35.0425 79.8345 36.3229C79.021 37.6032 77.8007 38.5634 76.1736 39.2036C74.5465 39.8438 72.5327 40.1638 70.1321 40.1638Z" fill="white"/>
<path d="M97.299 34.9025V18.5184H104.061V40.1638H97.7391L97.299 34.9025ZM97.9391 30.5014L99.6996 30.4614C99.6996 31.9151 99.5262 33.2621 99.1794 34.5024C98.8327 35.7294 98.3192 36.7963 97.639 37.7032C96.9722 38.6101 96.1453 39.317 95.1584 39.8238C94.1848 40.3172 93.0579 40.5639 91.7776 40.5639C90.7106 40.5639 89.7304 40.4172 88.8368 40.1238C87.9566 39.8171 87.1964 39.3436 86.5562 38.7035C85.9161 38.05 85.4159 37.2164 85.0559 36.2028C84.7091 35.1759 84.5357 33.9489 84.5357 32.5219V18.5184H91.2774V32.5619C91.2774 33.042 91.3374 33.4555 91.4575 33.8022C91.5775 34.149 91.7509 34.4424 91.9776 34.6825C92.2043 34.9092 92.4844 35.0826 92.8178 35.2026C93.1646 35.3093 93.558 35.3626 93.9981 35.3626C95.0117 35.3626 95.8052 35.1492 96.3787 34.7225C96.9522 34.2957 97.3523 33.7155 97.579 32.982C97.8191 32.2485 97.9391 31.4216 97.9391 30.5014Z" fill="white"/>
<path d="M114.903 18.5184V40.1638H108.142V18.5184H114.903ZM107.742 12.9369C107.742 11.9767 108.088 11.1898 108.782 10.5763C109.475 9.96285 110.376 9.65611 111.483 9.65611C112.59 9.65611 113.49 9.96285 114.183 10.5763C114.877 11.1898 115.224 11.9767 115.224 12.9369C115.224 13.8972 114.877 14.6841 114.183 15.2975C113.49 15.911 112.59 16.2178 111.483 16.2178C110.376 16.2178 109.475 15.911 108.782 15.2975C108.088 14.6841 107.742 13.8972 107.742 12.9369Z" fill="white"/>
<path d="M126.186 9.43605V40.1638H119.425V9.43605H126.186Z" fill="white"/>
<path d="M142.79 35.2026V9.43605H149.572V40.1638H143.491L142.79 35.2026ZM129.507 29.6012V29.1811C129.507 27.5406 129.687 26.0469 130.047 24.6999C130.407 23.3396 130.941 22.1726 131.648 21.199C132.355 20.2121 133.235 19.4519 134.288 18.9185C135.342 18.385 136.556 18.1183 137.929 18.1183C139.156 18.1183 140.23 18.405 141.15 18.9785C142.07 19.5386 142.857 20.3255 143.511 21.3391C144.164 22.3527 144.698 23.5396 145.111 24.9C145.525 26.247 145.838 27.7007 146.051 29.2611V29.7612C145.838 31.2282 145.525 32.6153 145.111 33.9223C144.698 35.2159 144.164 36.3629 143.511 37.3631C142.857 38.3634 142.064 39.1503 141.13 39.7237C140.21 40.2839 139.13 40.5639 137.889 40.5639C136.516 40.5639 135.302 40.2905 134.248 39.7437C133.208 39.1969 132.335 38.4301 131.628 37.4432C130.934 36.4562 130.407 35.2959 130.047 33.9623C129.687 32.6286 129.507 31.1749 129.507 29.6012ZM136.249 29.1811V29.6012C136.249 30.4147 136.302 31.1682 136.409 31.8617C136.516 32.5552 136.696 33.1687 136.949 33.7022C137.216 34.2223 137.562 34.6291 137.989 34.9225C138.429 35.2159 138.97 35.3626 139.61 35.3626C140.477 35.3626 141.19 35.1559 141.75 34.7425C142.324 34.329 142.744 33.7422 143.011 32.982C143.291 32.2218 143.411 31.3283 143.371 30.3013V28.7209C143.397 27.8407 143.337 27.0672 143.191 26.4004C143.044 25.7202 142.81 25.1534 142.49 24.6999C142.184 24.2465 141.79 23.9064 141.31 23.6797C140.843 23.4396 140.29 23.3196 139.65 23.3196C139.023 23.3196 138.489 23.4663 138.049 23.7597C137.623 24.0531 137.276 24.4665 137.009 25C136.742 25.5201 136.549 26.1403 136.429 26.8605C136.309 27.5673 136.249 28.3408 136.249 29.1811Z" fill="white"/>
<path d="M168.717 32.4219C168.717 31.9684 168.65 31.5617 168.517 31.2016C168.384 30.8281 168.137 30.4814 167.777 30.1613C167.417 29.8412 166.897 29.5211 166.216 29.2011C165.55 28.8676 164.669 28.5209 163.576 28.1608C162.295 27.734 161.062 27.2539 159.875 26.7204C158.688 26.1736 157.628 25.5401 156.694 24.82C155.76 24.0864 155.02 23.2329 154.473 22.2593C153.927 21.2724 153.653 20.1254 153.653 18.8184C153.653 17.5648 153.933 16.4378 154.493 15.4376C155.054 14.424 155.834 13.5638 156.834 12.8569C157.848 12.1367 159.035 11.5899 160.395 11.2165C161.755 10.8297 163.242 10.6364 164.856 10.6364C166.99 10.6364 168.87 11.0098 170.498 11.7566C172.138 12.4902 173.418 13.5371 174.338 14.8974C175.272 16.2444 175.739 17.8382 175.739 19.6787H168.757C168.757 18.9451 168.604 18.2983 168.297 17.7382C168.004 17.178 167.557 16.7379 166.957 16.4178C166.356 16.0977 165.603 15.9377 164.696 15.9377C163.816 15.9377 163.076 16.0711 162.475 16.3378C161.875 16.6045 161.422 16.9646 161.115 17.4181C160.808 17.8582 160.655 18.345 160.655 18.8784C160.655 19.3186 160.775 19.7187 161.015 20.0788C161.269 20.4255 161.622 20.7523 162.075 21.059C162.542 21.3657 163.102 21.6592 163.756 21.9392C164.423 22.2193 165.169 22.4927 165.996 22.7594C167.543 23.2529 168.917 23.8064 170.117 24.4199C171.331 25.02 172.351 25.7068 173.178 26.4804C174.018 27.2406 174.652 28.1075 175.079 29.081C175.519 30.0546 175.739 31.1549 175.739 32.3819C175.739 33.6889 175.485 34.8492 174.979 35.8628C174.472 36.8763 173.745 37.7366 172.798 38.4434C171.851 39.1369 170.718 39.6637 169.397 40.0238C168.077 40.3839 166.603 40.5639 164.976 40.5639C163.482 40.5639 162.009 40.3772 160.555 40.0038C159.115 39.617 157.808 39.0302 156.634 38.2434C155.46 37.4432 154.52 36.4229 153.813 35.1826C153.12 33.9289 152.773 32.4419 152.773 30.7215H159.815C159.815 31.575 159.928 32.2952 160.155 32.882C160.382 33.4688 160.715 33.9423 161.155 34.3024C161.595 34.6491 162.135 34.9025 162.776 35.0626C163.416 35.2093 164.149 35.2826 164.976 35.2826C165.87 35.2826 166.59 35.1559 167.137 34.9025C167.683 34.6358 168.084 34.289 168.337 33.8622C168.59 33.4221 168.717 32.942 168.717 32.4219Z" fill="white"/>
<path d="M190.443 18.5184V23.1995H177.399V18.5184H190.443ZM180.14 13.137H186.882V33.1021C186.882 33.6755 186.948 34.1223 187.082 34.4424C187.215 34.7491 187.442 34.9692 187.762 35.1026C188.095 35.2226 188.535 35.2826 189.082 35.2826C189.469 35.2826 189.789 35.2759 190.042 35.2626C190.296 35.2359 190.536 35.2026 190.763 35.1626V39.9838C190.189 40.1705 189.589 40.3105 188.962 40.4039C188.335 40.5106 187.669 40.5639 186.962 40.5639C185.521 40.5639 184.288 40.3372 183.261 39.8838C182.247 39.4303 181.474 38.7168 180.94 37.7432C180.407 36.7697 180.14 35.5027 180.14 33.9423V13.137Z" fill="white"/>
<path d="M200.245 18.5184V40.1638H193.483V18.5184H200.245ZM193.083 12.9369C193.083 11.9767 193.43 11.1898 194.124 10.5763C194.817 9.96285 195.717 9.65611 196.824 9.65611C197.931 9.65611 198.831 9.96285 199.525 10.5763C200.218 11.1898 200.565 11.9767 200.565 12.9369C200.565 13.8972 200.218 14.6841 199.525 15.2975C198.831 15.911 197.931 16.2178 196.824 16.2178C195.717 16.2178 194.817 15.911 194.124 15.2975C193.43 14.6841 193.083 13.8972 193.083 12.9369Z" fill="white"/>
<path d="M215.809 18.5184V23.1995H202.766V18.5184H215.809ZM205.506 13.137H212.248V33.1021C212.248 33.6755 212.315 34.1223 212.448 34.4424C212.582 34.7491 212.808 34.9692 213.128 35.1026C213.462 35.2226 213.902 35.2826 214.449 35.2826C214.835 35.2826 215.156 35.2759 215.409 35.2626C215.662 35.2359 215.902 35.2026 216.129 35.1626V39.9838C215.556 40.1705 214.955 40.3105 214.329 40.4039C213.702 40.5106 213.035 40.5639 212.328 40.5639C210.888 40.5639 209.654 40.3372 208.627 39.8838C207.614 39.4303 206.84 38.7168 206.307 37.7432C205.773 36.7697 205.506 35.5027 205.506 33.9423V13.137Z" fill="white"/>
<path d="M227.632 35.3626C228.259 35.3626 228.792 35.2493 229.232 35.0225C229.686 34.7825 230.026 34.4491 230.253 34.0223C230.493 33.5822 230.606 33.0554 230.593 32.4419H236.934C236.948 34.069 236.548 35.496 235.734 36.723C234.934 37.9366 233.84 38.8835 232.453 39.5637C231.08 40.2305 229.526 40.5639 227.792 40.5639C226.098 40.5639 224.618 40.2905 223.351 39.7437C222.084 39.1836 221.024 38.4101 220.17 37.4232C219.33 36.4229 218.696 35.2559 218.27 33.9223C217.856 32.5886 217.649 31.1416 217.649 29.5812V29.121C217.649 27.5606 217.856 26.1136 218.27 24.7799C218.696 23.4329 219.33 22.266 220.17 21.2791C221.024 20.2788 222.077 19.5053 223.331 18.9585C224.598 18.3983 226.072 18.1183 227.752 18.1183C229.552 18.1183 231.14 18.4583 232.513 19.1385C233.9 19.8187 234.987 20.8056 235.774 22.0993C236.561 23.3929 236.948 24.96 236.934 26.8005H230.593C230.606 26.147 230.506 25.5601 230.293 25.04C230.079 24.5199 229.746 24.1064 229.292 23.7997C228.852 23.4796 228.285 23.3196 227.592 23.3196C226.898 23.3196 226.338 23.4729 225.912 23.7797C225.485 24.0864 225.158 24.5132 224.931 25.06C224.718 25.5935 224.571 26.207 224.491 26.9005C224.425 27.594 224.391 28.3342 224.391 29.121V29.5812C224.391 30.3814 224.425 31.1349 224.491 31.8417C224.571 32.5352 224.725 33.1487 224.951 33.6822C225.178 34.2023 225.505 34.6158 225.932 34.9225C226.358 35.2159 226.925 35.3626 227.632 35.3626Z" fill="white"/>
<path d="M246.417 9.43605V40.1638H239.675V9.43605H246.417ZM245.617 28.6009L244.036 28.6409C244.036 27.1205 244.223 25.7202 244.596 24.4399C244.97 23.1595 245.503 22.0459 246.197 21.099C246.89 20.1521 247.724 19.4186 248.697 18.8985C249.671 18.3783 250.751 18.1183 251.938 18.1183C253.005 18.1183 253.979 18.2716 254.859 18.5784C255.752 18.8851 256.519 19.3786 257.159 20.0587C257.813 20.7389 258.313 21.6258 258.66 22.7194C259.02 23.813 259.2 25.1467 259.2 26.7204V40.1638H252.418V26.6804C252.418 25.8002 252.292 25.12 252.038 24.6399C251.798 24.1465 251.451 23.8064 250.998 23.6197C250.544 23.4196 249.991 23.3196 249.337 23.3196C248.551 23.3196 247.91 23.4529 247.417 23.7197C246.924 23.9864 246.543 24.3598 246.277 24.84C246.023 25.3067 245.85 25.8602 245.757 26.5004C245.663 27.1405 245.617 27.8407 245.617 28.6009Z" fill="white"/>
</svg>
