<svg width="86" height="81" viewBox="0 0 86 81" fill="none" xmlns="http://www.w3.org/2000/svg">
<path fill-rule="evenodd" clip-rule="evenodd" d="M67.4895 0.562603C67.3763 0.743731 67.565 1.45009 67.9087 2.1325C68.4536 3.21382 68.7101 3.3728 69.9083 3.3728C70.6643 3.3728 71.2825 3.49513 71.2825 3.64504C71.2821 3.79495 71.4587 3.91727 71.6746 3.91727C71.8908 3.91727 72.3441 4.19133 72.6823 4.52672C73.2583 5.09696 73.3052 5.09587 73.4188 4.51148C73.5771 3.69767 74.8252 4.05775 75.9366 5.23816C76.3804 5.70968 76.9788 6.09516 77.2661 6.09516C77.5534 6.09516 77.9934 6.34017 78.2445 6.63963C78.8307 7.33946 79.7102 7.34273 79.7102 6.64508C79.7102 6.33763 80.4182 6.82766 81.3592 7.78665C83.0499 9.50973 83.4299 10.2255 82.4585 9.85637C82.077 9.71118 81.9088 9.88142 81.9088 10.4121C81.9088 10.8328 81.711 11.1769 81.4691 11.1769C81.1272 11.1769 81.1272 11.2738 81.4691 11.6125C81.711 11.852 81.9088 12.2931 81.9088 12.5925C81.9088 13.0161 81.811 13.0401 81.4691 12.7014C80.8502 12.0883 79.7102 12.1591 79.7102 12.8103C79.7102 13.1098 79.5504 13.3548 79.3551 13.3548C79.1602 13.3548 79.0935 13.1145 79.2075 12.8205C79.3211 12.5265 79.1972 11.8001 78.9319 11.2063C78.3185 9.83387 76.8428 9.3903 76.0535 10.341C75.5156 10.9885 75.4731 10.9889 74.8417 10.3555C74.4815 9.99394 74.2851 9.54094 74.4053 9.34892C74.7867 8.73694 73.8142 8.97215 72.8479 9.72497C72.3353 10.1243 71.7735 10.4509 71.5991 10.4509C71.4247 10.4509 71.2821 10.1243 71.2821 9.72497C71.2821 9.10645 71.0377 8.99901 69.6332 8.99901C68.7262 8.99901 67.9842 9.12315 67.9842 9.27451C67.9842 9.42624 67.6372 9.7649 67.2128 10.0273C66.6503 10.3754 66.517 10.3841 66.7192 10.0596C66.9321 9.71807 66.6207 9.68178 65.3836 9.90283C64.4961 10.0615 62.9042 10.1587 61.8463 10.1188C60.6924 10.0752 59.9225 10.1998 59.9225 10.4302C59.9225 10.6411 59.6026 10.8139 59.2113 10.8139C58.8199 10.8139 58.3963 10.9798 58.2699 11.1827C58.1431 11.3856 57.8862 11.4578 57.6986 11.3428C57.511 11.2281 57.3575 11.3166 57.3575 11.5399C57.3575 11.7791 57.1695 11.8252 56.8994 11.652C56.127 11.1569 54.6546 11.325 53.9818 11.9853C53.6033 12.3569 53.0899 12.5163 52.7217 12.3762C52.2669 12.203 52.1573 12.2876 52.3134 12.6905C52.4758 13.1094 52.3215 13.2027 51.6696 13.0793C51.1291 12.9769 50.5065 13.1991 49.9851 13.6804C49.53 14.1 48.8429 14.4437 48.4585 14.4437C48.0741 14.4437 46.8685 14.7004 45.7795 15.014C44.4039 15.41 43.7974 15.7704 43.7938 16.1937C43.7894 16.6492 43.7124 16.6851 43.4885 16.3352C43.1331 15.7806 41.6578 16.2234 40.9176 17.1066C40.6592 17.4151 40.2214 17.5813 39.9443 17.4761C39.6677 17.3708 38.863 17.8572 38.1565 18.557C37.34 19.3661 36.6314 19.7672 36.2114 19.6583C35.8479 19.5643 35.1876 19.8227 34.7435 20.2322C34.2993 20.642 33.7145 20.9774 33.4441 20.9774C32.8248 20.9774 28.518 23.7121 27.3513 24.846C26.8702 25.3136 26.3344 25.6961 26.1604 25.6961C25.9863 25.6961 25.5495 25.9876 25.1893 26.3444C24.8295 26.7009 23.9225 27.4551 23.1739 28.0207C22.4256 28.5862 21.813 29.3514 21.813 29.7205C21.813 30.1485 21.6261 30.3209 21.2974 30.196C20.6239 29.9401 16.2175 34.2095 15.5461 35.7689C15.2574 36.4397 14.7697 36.9486 14.4157 36.9486C13.6304 36.9486 12.652 38.3025 12.652 39.3889C12.652 39.8433 12.4849 40.2154 12.2804 40.2154C11.5941 40.2154 9.74395 42.5635 9.512 43.7294C9.38558 44.3643 9.03783 44.9766 8.73918 45.0902C8.34526 45.2398 8.26244 45.5951 8.43797 46.3853C8.63694 47.2826 8.57758 47.4354 8.10048 47.2543C7.72598 47.112 7.52187 47.2336 7.52187 47.5995C7.52187 47.9106 7.29028 48.2953 7.00703 48.4551C6.72413 48.6148 6.43538 49.0721 6.36576 49.4714C6.29613 49.8707 6.03303 50.4133 5.78129 50.6769C5.52918 50.9408 5.32324 51.3901 5.32324 51.6751C5.32324 51.9604 5.14845 52.1938 4.93518 52.1938C4.71569 52.1938 4.67208 52.3909 4.83441 52.6475C5.36721 53.4892 4.81682 55.1648 3.13524 57.82C2.71273 58.4868 2.43498 59.6145 2.41849 60.7293C2.40273 61.8106 2.09419 63.0992 1.65886 63.9039C0.848664 65.4012 0.720411 67.2186 1.31514 68.7689C1.58777 69.4789 1.5885 69.8216 1.31807 69.9109C1.04801 70.0002 1.04874 70.2546 1.32064 70.7584C1.59766 71.271 1.59327 71.6172 1.30525 71.961C1.0044 72.32 1.03885 72.5806 1.43936 72.9773C1.84134 73.3759 1.87249 73.6158 1.56212 73.9233C1.25138 74.2311 1.25614 74.3356 1.58117 74.3356C1.82082 74.3356 2.12204 74.989 2.25102 75.7875C2.39247 76.6634 2.68489 77.2395 2.9883 77.2395C3.33971 77.2395 3.49105 77.7306 3.49105 78.8729C3.49105 80.1909 3.61491 80.5041 4.13232 80.4947C5.02753 80.4787 6.24264 79.5393 5.62995 79.3371C5.3423 79.242 5.19938 78.6732 5.25545 77.8485C5.30529 77.1142 5.1763 76.5135 4.96816 76.5135C4.45771 76.5135 4.4874 73.5047 5.0092 72.3701C5.34266 71.6456 5.30968 71.2169 4.84834 70.2735C4.45442 69.4677 4.39395 69.011 4.65962 68.8484C4.87472 68.7167 4.94947 68.447 4.82562 68.2484C4.70213 68.0502 5.02459 67.2695 5.54237 66.5134C6.33937 65.35 6.42109 65.0023 6.07481 64.2491C5.73365 63.5075 5.756 63.3935 6.20856 63.5656C6.70178 63.7533 7.23458 62.9464 7.36577 61.8128C7.38885 61.6131 7.59809 60.9899 7.83115 60.428C8.0642 59.8661 8.25475 59.1855 8.25475 58.9154C8.25475 58.6458 8.46105 58.3419 8.71279 58.2407C9.06458 58.0995 9.06934 57.9851 8.73368 57.7481C8.42221 57.5285 8.66113 57.0864 9.5644 56.2116C10.427 55.3764 10.7648 54.772 10.6208 54.3226C10.4952 53.9306 10.7011 53.352 11.1273 52.899C12.253 51.7019 12.3819 50.3117 11.4362 49.5701C10.7487 49.0311 10.7264 48.9418 11.2779 48.9349C11.6304 48.9306 11.9191 48.6787 11.9191 48.3756C11.9191 47.9687 12.1591 47.8837 12.8352 48.0518C13.3911 48.1901 13.7693 48.1215 13.7971 47.8772C13.8224 47.6561 13.884 47.3117 13.9345 47.112C13.9851 46.9124 14.0467 46.5857 14.072 46.3861C14.0972 46.1864 14.3651 46.0231 14.6674 46.0231C14.9697 46.0231 15.2171 45.8499 15.2171 45.6387C15.2171 45.4274 15.0676 45.3458 14.8847 45.4576C14.7022 45.5697 14.6359 45.3454 14.7378 44.9599C14.8396 44.5741 15.1126 44.3243 15.345 44.4046C15.8767 44.5889 16.9676 43.7839 17.1182 43.0956C17.1812 42.8092 17.5344 42.3523 17.9031 42.08C18.3864 41.7236 18.5081 41.3257 18.338 40.6557C18.1449 39.8934 18.1937 39.8005 18.607 40.1406C19.0068 40.4691 19.5843 40.1232 21.382 38.4796C22.6309 37.338 23.651 36.2001 23.6488 35.9504C23.647 35.701 23.7782 35.4966 23.9409 35.4966C24.4121 35.4966 27.676 32.3659 27.676 31.9136C27.676 31.6882 28.0344 31.1488 28.4726 30.7147C28.9999 30.1924 29.1934 30.1209 29.0454 30.5035C28.6456 31.5351 29.7262 31.4621 30.897 30.3782C31.525 29.7967 32.4177 29.159 32.8805 28.9612C34.1275 28.4287 35.1502 27.7513 35.4811 27.2388C35.6423 26.9894 36.0546 26.7847 36.3972 26.7847C36.7398 26.7844 37.4991 26.376 38.085 25.8773C38.6706 25.3782 39.4537 24.9702 39.8256 24.9702C40.1972 24.9702 40.5013 24.7252 40.5013 24.4257C40.5013 24.0816 40.8513 23.8812 41.4526 23.8812C41.9755 23.8812 42.8414 23.6373 43.3764 23.3389C43.9114 23.0409 45.132 22.475 46.0895 22.0816C47.047 21.6881 47.8301 21.197 47.8301 20.9905C47.8301 20.7836 48.1423 20.6144 48.5237 20.6144C48.9052 20.6144 49.3112 20.3723 49.4259 20.0761C49.5406 19.7799 49.8598 19.6231 50.135 19.728C50.4102 19.8325 51.087 19.748 51.6392 19.54C52.4344 19.2405 52.6004 18.9922 52.4384 18.3454C52.3263 17.8964 52.3288 17.7334 52.4446 17.9828C52.6956 18.5247 53.9225 18.5868 54.2427 18.0735C54.3673 17.8739 54.8305 17.6975 55.2721 17.6819C55.7136 17.6663 55.869 17.5708 55.6169 17.4703C54.9789 17.2151 55.043 16.6216 55.7085 16.6216C56.0108 16.6216 56.2582 16.4634 56.2582 16.2699C56.2582 16.0768 56.5055 16.0125 56.8078 16.1272C57.4542 16.373 57.5517 17.3476 56.9298 17.3476C56.695 17.3476 56.6114 17.4554 56.7444 17.5875C56.8774 17.7193 57.3172 17.5305 57.7217 17.1683C58.1376 16.7951 58.4568 16.6909 58.4568 16.9283C58.4568 17.4419 59.7921 17.4877 60.1058 16.9846C60.2303 16.785 60.6521 16.6216 61.0435 16.6216C61.5682 16.6216 61.7624 16.3595 61.7837 15.6234L61.8126 14.6252L62.1629 15.5708C62.4451 16.3323 62.6946 16.4819 63.4466 16.3392C63.96 16.2423 64.466 15.9403 64.5715 15.6681C64.6767 15.3962 64.9072 15.2622 65.0835 15.3701C65.2597 15.4779 65.7372 15.3897 66.1443 15.1737C66.6522 14.9044 66.8849 14.9007 66.8849 15.1613C66.8849 15.631 69.893 15.2212 70.2334 14.7051C70.362 14.5102 70.676 14.4786 70.9314 14.6347C71.2301 14.8176 71.3041 14.7726 71.1392 14.5083C70.7973 13.9606 74.4822 14.2016 75.0502 14.7642C75.6402 15.3486 76.9007 15.2822 76.6669 14.6789C76.5325 14.3316 76.7882 14.1991 77.5431 14.2252C78.1294 14.2455 78.6094 14.4532 78.6102 14.6862C78.6105 14.9196 78.7036 15.3494 78.8165 15.6412C78.955 15.9984 78.6552 16.2989 77.9004 16.5595C76.6926 16.9766 76.5292 17.3182 77.214 17.9966C77.5497 18.3291 77.3844 18.4797 76.4892 18.6572C75.8512 18.7835 75.1766 19.0714 74.9905 19.2971C74.3917 20.0206 74.3324 23.8812 74.9198 23.8812C75.5313 23.8812 76.3364 21.842 75.9766 21.2046C75.5335 20.4209 76.0238 20.446 76.6076 21.2369C77.0392 21.8217 77.1488 21.8162 78.4137 21.1462C79.3295 20.6612 79.8271 20.107 79.9685 19.4148C80.0953 18.7941 80.3573 18.4656 80.6399 18.573C81.2375 18.8002 81.5812 17.5312 81.0616 17.0165C80.5838 16.5432 81.6135 15.6877 83.0081 15.3991C84.1328 15.1664 85.0342 13.4789 84.4233 12.7501C84.124 12.3925 84.132 12.2658 84.4538 12.2658C84.7165 12.2658 84.8011 11.9896 84.667 11.5704C84.5443 11.1878 84.6157 10.77 84.8253 10.6415C85.4241 10.2753 85.2713 9.43713 84.6161 9.49303C83.9308 9.55147 83.0833 8.44075 83.4992 8.02876C83.6542 7.87522 83.9341 7.98992 84.1218 8.28357C84.3669 8.66761 84.4644 8.68612 84.4684 8.34927C84.4801 7.36015 82.8337 5.71367 81.4695 5.3496C80.6629 5.13471 80.0766 4.75503 80.0766 4.44759C80.0766 3.85883 79.5028 3.73179 79.18 4.2494C79.066 4.43198 79.18 4.66393 79.4332 4.7652C79.7458 4.89006 79.7139 4.95794 79.3339 4.97754C79.0257 4.99315 78.4075 4.75177 77.9597 4.44106C77.439 4.08025 77.1451 4.02544 77.1451 4.29006C77.1451 4.51765 76.9392 4.63235 76.6871 4.54523C76.4353 4.45775 76.2723 4.13942 76.3254 3.83742C76.4419 3.17389 75.8721 2.69584 74.369 2.19602C73.4485 1.89002 73.1667 1.92995 72.8333 2.41562C72.4697 2.94412 72.4221 2.92743 72.4031 2.26571C72.3598 0.776399 70.7251 0.109966 69.8061 1.2069C69.392 1.70128 69.2477 1.67768 68.5173 0.998181C68.0652 0.577123 67.6023 0.381112 67.4895 0.562603ZM65.838 1.69946C65.5323 1.89148 65.4821 2.09801 65.7079 2.23631C65.9101 2.36009 66.1696 2.21707 66.2854 1.9187C66.528 1.29183 66.5052 1.28094 65.838 1.69946ZM70.059 11.9936C69.9575 12.2433 69.8743 12.039 69.8743 11.5399C69.8743 11.0408 69.9575 10.8368 70.059 11.0862C70.1608 11.3359 70.1608 11.7442 70.059 11.9936ZM64.2491 13.9087C64.1362 14.0205 63.9314 13.819 63.7936 13.4611C63.595 12.9439 63.6368 12.9021 63.9988 13.2579C64.2494 13.5043 64.3619 13.7973 64.2491 13.9087ZM52.36 16.8031C52.2438 17.1026 52.0841 17.3476 52.0049 17.3476C51.9258 17.3476 51.8609 17.1026 51.8609 16.8031C51.8609 16.5036 52.0207 16.2586 52.216 16.2586C52.4109 16.2586 52.4758 16.5036 52.36 16.8031ZM54.3098 17.0528C54.1929 17.3421 54.1061 17.2561 54.0885 16.8332C54.0727 16.4506 54.1592 16.2365 54.2809 16.357C54.4025 16.4775 54.4157 16.7908 54.3098 17.0528ZM5.23933 63.3783C5.45919 64.0313 4.70176 63.8941 4.44599 63.2342C4.30931 62.881 4.39102 62.7148 4.65889 62.8033C4.89817 62.8825 5.15944 63.1409 5.23933 63.3783Z" fill="#FFFFFF"/>
</svg>
