<svg width="32" height="32" viewBox="0 0 32 32" fill="none" xmlns="http://www.w3.org/2000/svg">
<path d="M6.27222 15.7439C6.27222 16.1279 6.52822 16.3839 6.91222 16.3839C7.23222 16.3839 7.55222 16.1279 7.55222 15.7439C7.61622 12.9279 9.02422 10.4959 11.2642 8.95992C11.5842 8.76792 11.6482 8.38392 11.4562 8.06392C11.2642 7.74392 10.8802 7.67992 10.5602 7.87192C8.00022 9.66392 6.40022 12.4799 6.27222 15.7439Z" fill="#FFC513"/>
<path d="M29.6321 1.85596H28.9921C28.2241 1.85596 27.6481 2.36796 27.3921 3.00796L24.3201 3.83996H16.0001H15.9361C13.8881 3.83996 11.9041 4.35196 10.1121 5.37596L9.2161 4.47996C8.5121 3.77596 7.2961 3.77596 6.5921 4.47996L4.4801 6.59196C3.7761 7.29596 3.7761 8.51196 4.4801 9.21596L5.3761 10.112C4.9281 10.88 4.6081 11.776 4.3521 12.608H3.0721C2.0481 12.608 1.2161 13.44 1.2161 14.464V17.472C1.2161 18.496 2.0481 19.328 3.0721 19.328H4.3521C4.5441 20.096 4.8641 20.864 5.2481 21.568L4.6721 21.44C4.4161 20.8 3.8401 20.288 3.0721 20.288H2.4321C1.4721 20.288 0.704102 21.056 0.704102 22.016V28.48C0.704102 29.44 1.4721 30.208 2.4321 30.208H3.0721C3.8401 30.208 4.4161 29.696 4.6721 29.056L7.6801 28.16H15.9361H16.0001C18.0481 28.16 20.0961 27.648 21.8881 26.624L22.7841 27.52C23.1681 27.904 23.6161 28.096 24.1281 28.096C24.5761 28.096 25.0881 27.904 25.4721 27.52L27.5841 25.408C28.2881 24.704 28.2881 23.488 27.5841 22.784L26.6881 21.888C27.1361 21.12 27.4561 20.224 27.7121 19.392H28.9281C29.9521 19.392 30.7841 18.56 30.7841 17.536V14.528C30.7841 13.504 29.9521 12.672 28.9281 12.672H27.6481C27.4561 11.904 27.1361 11.136 26.7521 10.432L27.3281 10.56C27.5841 11.2 28.1601 11.712 28.9281 11.712H29.5681C30.5281 11.712 31.2961 10.944 31.2961 9.98396V3.58396C31.3601 2.62396 30.5921 1.85596 29.6321 1.85596ZM25.0241 8.63996V4.92796L27.2641 4.35196V9.21596L25.0241 8.63996ZM16.0001 5.11996C16.0001 5.11996 16.0641 5.11996 16.0001 5.11996H23.7441V8.44796C23.6801 8.44796 15.8721 8.44796 16.0001 8.44796C11.8401 8.44796 8.4481 11.84 8.4481 16C8.4481 18.56 9.7281 20.864 11.7761 22.272H7.6801L6.9761 22.08C2.0481 14.848 7.3601 5.11996 16.0001 5.11996ZM16.0001 22.272H15.8721C15.3601 22.272 14.9121 22.208 14.4641 22.08C15.4241 20.864 15.7441 19.2 15.8721 18.176C16.4481 19.008 17.2801 20.8 17.0241 22.208C16.6401 22.208 16.3841 22.272 16.0001 22.272ZM16.0001 9.72796C16.5121 9.72796 17.0241 9.79196 17.5361 9.91996C16.5761 11.136 16.2561 12.8 16.1281 13.824C15.6801 13.12 14.6561 11.328 14.9761 9.79196C15.3601 9.79196 15.6801 9.72796 16.0001 9.72796ZM16.8961 16C16.8961 16.512 16.5121 16.896 16.0001 16.896C15.4881 16.896 15.1041 16.512 15.1041 16C15.1041 15.488 15.4881 15.104 16.0001 15.104C16.5121 15.104 16.8961 15.488 16.8961 16ZM14.8481 14.144C14.0801 13.824 12.2241 12.992 11.5841 11.584C12.1601 11.008 12.9281 10.496 13.6961 10.176C13.6321 11.712 14.3361 13.248 14.8481 14.144ZM10.6881 12.672C11.5201 13.952 13.0561 14.784 13.9521 15.168C12.9921 15.424 11.0721 15.744 9.7921 15.04C9.9841 14.144 10.2401 13.376 10.6881 12.672ZM11.8401 16.768C12.6081 16.768 13.3761 16.64 13.8881 16.512C13.2481 17.28 11.8401 18.688 10.4321 18.88C10.0481 18.112 9.7921 17.28 9.7921 16.448C10.4321 16.64 11.1361 16.768 11.8401 16.768ZM14.5921 17.664C14.5281 18.496 14.3361 20.544 13.1841 21.568C12.4161 21.184 11.7121 20.672 11.2001 19.968C12.6721 19.584 13.8881 18.432 14.5921 17.664ZM17.1521 17.856C18.1121 18.24 19.8401 19.136 20.4161 20.416C19.8401 20.992 19.0721 21.504 18.3041 21.824C18.3681 20.288 17.6641 18.752 17.1521 17.856ZM21.3121 19.328C20.4801 18.048 18.9441 17.216 18.0481 16.832C19.0081 16.576 20.9281 16.256 22.2081 16.96C22.0161 17.856 21.7601 18.624 21.3121 19.328ZM18.1121 15.488C18.7521 14.72 20.1601 13.312 21.5681 13.12C21.9521 13.888 22.2081 14.72 22.2081 15.552C20.8001 15.04 19.0721 15.296 18.1121 15.488ZM17.4081 14.336C17.4721 13.312 17.7921 11.392 18.8161 10.432C19.5841 10.816 20.2881 11.392 20.8001 12.032C19.3281 12.416 18.1121 13.568 17.4081 14.336ZM5.3761 7.48796L7.4881 5.37596C7.7441 5.11996 8.0641 5.11996 8.3201 5.37596L9.0241 6.07996L8.9601 6.14396C7.8721 6.91196 6.9761 7.87196 6.1441 8.95996L6.0801 9.02396L5.3761 8.31996C5.1201 8.12796 5.1201 7.74396 5.3761 7.48796ZM3.0721 18.112C2.7521 18.112 2.4961 17.856 2.4961 17.536V14.528C2.4961 14.208 2.7521 13.952 3.0721 13.952H4.0321C3.7761 15.232 3.7761 16.704 4.0321 18.112H3.0721ZM3.0081 28.864H2.3681C2.1121 28.864 1.9201 28.672 1.9201 28.416V22.016C1.9201 21.76 2.1121 21.568 2.3681 21.568H3.0081C3.2641 21.568 3.4561 21.76 3.4561 22.016V28.48C3.4561 28.672 3.2641 28.864 3.0081 28.864ZM4.7361 22.784C4.9921 22.848 7.0401 23.424 6.9761 23.36V27.008L4.7361 27.584V22.784ZM26.6241 24.512L24.5121 26.624C24.2561 26.88 23.9361 26.88 23.6801 26.624L22.9761 25.92C24.0641 25.152 25.0881 24.192 25.8561 23.04L25.9201 22.976L26.6241 23.68C26.8801 23.936 26.8801 24.256 26.6241 24.512ZM28.9281 13.888C29.2481 13.888 29.5041 14.144 29.5041 14.464V17.472C29.5041 17.792 29.2481 18.048 28.9281 18.048H27.9681C28.0961 17.536 28.1601 16.64 28.1601 16C28.1601 15.296 28.0961 14.464 27.9681 13.888H28.9281ZM26.8801 16C26.8801 21.952 22.0161 26.88 16.0001 26.88C16.0001 26.88 16.0001 26.88 15.9361 26.88H8.2561V23.552H15.8721C20.0961 23.616 23.5521 20.224 23.5521 16C23.5521 13.44 22.2081 11.072 20.2241 9.72796H24.3201L25.0241 9.91996C26.3041 11.776 26.8801 13.952 26.8801 16ZM30.0801 9.98396C30.0801 10.24 29.8881 10.432 29.6321 10.432H28.9921C28.7361 10.432 28.5441 10.24 28.5441 9.98396V3.58396C28.5441 3.32796 28.7361 3.13596 28.9921 3.13596H29.6321C29.8881 3.13596 30.0801 3.32796 30.0801 3.58396V9.98396Z" fill="#FFC513"/>
</svg>
