<svg width="41" height="40" viewBox="0 0 41 40" fill="none" xmlns="http://www.w3.org/2000/svg">
<g clip-path="url(#clip0_0_73)">
<path d="M3.50538 15.2206C4.69098 10.9997 7.38996 7.3889 11.1052 5.05369C14.546 2.89091 18.4938 1.99492 22.5221 2.46245C25.4423 2.80119 28.2368 3.87144 30.6236 5.53679L28.7748 5.60057L28.8554 7.94249L34.943 7.73314L34.723 1.72057L32.3808 1.80632L32.4604 3.97337C29.6519 1.88322 26.302 0.541977 22.7922 0.134567C20.579 -0.122085 18.3583 -0.010391 16.1918 0.467209C13.9497 0.961594 11.8187 1.83714 9.85791 3.06944C5.64924 5.7147 2.59199 9.80528 1.24921 14.5871C-0.0840992 19.3344 0.372749 24.3768 2.53522 28.7854L4.63941 27.7533C2.73115 23.8632 2.32831 19.4122 3.50538 15.2206Z" fill="#D90429"/>
<path d="M37.9062 10.1589L35.8671 11.3137C38.1058 15.2679 38.7281 19.8791 37.6194 24.2977C36.507 28.7301 33.7629 32.5109 29.8923 34.9438C26.3187 37.1899 22.056 38.0801 17.8901 37.4505C14.6485 36.9607 11.6208 35.581 9.14404 33.4969L11.3285 33.4216L11.2479 31.0793L5.15997 31.289L5.38031 37.3016L7.72223 37.2155L7.65204 35.3042C10.4545 37.6568 13.8773 39.2141 17.54 39.7677C18.5291 39.9172 19.5231 39.9911 20.5137 39.9911C24.2505 39.9911 27.9392 38.9394 31.1396 36.9277C35.524 34.172 38.6322 29.8891 39.8923 24.8681C41.1484 19.8632 40.4432 14.6392 37.9062 10.1589Z" fill="#D90429"/>
<path d="M32.9276 22.8031V16.6443L30.5533 16.1835C30.4267 15.8243 30.2805 15.4718 30.1157 15.1282L31.4713 13.1235L27.121 8.76437L25.1139 10.116C24.7638 9.94723 24.4049 9.798 24.0387 9.66891L23.5779 7.29465H17.4192L16.9583 9.66891C16.5991 9.79556 16.2467 9.94174 15.903 10.1065L13.8983 8.75095L9.53921 13.1012L10.8908 15.1084C10.7221 15.4584 10.5728 15.8173 10.4438 16.1832L8.06949 16.6443V22.8031L10.4438 23.2639C10.5704 23.6231 10.7166 23.9752 10.8814 24.3192L9.52579 26.3236L13.8761 30.683L15.8835 29.3314C16.2332 29.5001 16.5921 29.6494 16.9583 29.7785L17.4192 32.1527H23.5779L24.0387 29.7785C24.3979 29.6518 24.7504 29.5056 25.0943 29.3408L27.0987 30.6964L31.4582 26.3462L30.1065 24.339C30.275 23.989 30.4245 23.6301 30.5536 23.2639L32.9276 22.8031ZM28.7091 21.2348L28.516 21.9348C28.3335 22.5965 28.0677 23.2352 27.7265 23.8327L27.3657 24.4647L28.4348 26.0523L26.8109 27.6728L25.2255 26.6004L24.5926 26.9599C23.9994 27.2971 23.3658 27.5601 22.7097 27.7414L22.0096 27.9346L21.6455 29.8093H19.3515L18.9878 27.9346L18.2877 27.7414C17.6255 27.5586 16.987 27.2928 16.3898 26.9516L15.7578 26.5909L14.1703 27.6599L12.5498 26.0361L13.6219 24.4507L13.2624 23.8181C12.9251 23.2245 12.6624 22.591 12.4811 21.9348L12.2879 21.2348L10.4132 20.8707V18.5767L12.2879 18.2129L12.4811 17.5128C12.6639 16.8509 12.9297 16.2125 13.2706 15.615L13.6316 14.9829L12.5626 13.3954L14.1864 11.7749L15.7718 12.8473L16.4044 12.4875C16.9977 12.1503 17.6316 11.8875 18.2877 11.7063L18.9878 11.5131L19.3515 9.6384H21.6455L22.0096 11.5131L22.7097 11.7063C23.3716 11.8891 24.0103 12.1549 24.6076 12.4958L25.2396 12.8568L26.8271 11.7877L28.4476 13.4113L27.3752 14.997L27.7347 15.6296C28.0719 16.2229 28.3347 16.8564 28.516 17.5128L28.7094 18.2129L30.5841 18.5767V20.8707L28.7091 21.2348Z" fill="#D90429"/>
<path d="M20.5962 13.6289C17.2353 13.6289 14.5012 16.363 14.5012 19.7239C14.5012 23.0845 17.2353 25.8185 20.5962 25.8185C23.9568 25.8185 26.6908 23.0845 26.6908 19.7239C26.6908 16.363 23.9568 13.6289 20.5962 13.6289ZM20.5962 23.4751C18.5277 23.4751 16.8446 21.7921 16.8446 19.7236C16.8446 17.6551 18.5277 15.9724 20.5962 15.9724C22.6646 15.9724 24.3474 17.6551 24.3474 19.7236C24.3474 21.7921 22.6646 23.4751 20.5962 23.4751Z" fill="#D90429"/>
</g>
<defs>
<clipPath id="clip0_0_73">
<rect width="40" height="40" fill="white" transform="translate(0.5)"/>
</clipPath>
</defs>
</svg>
