<svg width="41" height="40" viewBox="0 0 41 40" fill="none" xmlns="http://www.w3.org/2000/svg">
<g clip-path="url(#clip0_0_29)">
<path d="M31.2173 17.3876C31.2173 11.4847 26.4113 6.70433 20.4987 6.74597C14.7133 6.78676 9.98571 11.5048 9.93391 17.2901C9.90594 20.4121 11.2225 23.2271 13.3396 25.1911C14.4307 26.2032 15.0634 27.615 15.0634 29.1034V34.326H26.0873V29.089C26.0873 27.6166 26.7038 26.2119 27.7864 25.2139C29.8959 23.2693 31.2173 20.4828 31.2173 17.3876Z" stroke="#D90429" stroke-width="2.8125" stroke-miterlimit="10"/>
<path d="M15.0634 29.1032H26.0872" stroke="#D90429" stroke-width="2.8125" stroke-miterlimit="10"/>
<path d="M23.6983 34.3259V35.6993C23.6983 37.4241 22.3001 38.8223 20.5753 38.8223C18.8505 38.8223 17.4523 37.4241 17.4523 35.6993V34.3259" stroke="#D90429" stroke-width="2.8125" stroke-miterlimit="10"/>
<path d="M20.5754 29.1032V23.2158" stroke="#D90429" stroke-width="2.8125" stroke-miterlimit="10"/>
<path d="M23.7605 18.2792V21.1672L20.5753 23.2159L17.3901 21.1672V18.2792" stroke="#D90429" stroke-width="2.8125" stroke-miterlimit="10"/>
<path d="M20.4989 3.1667V-1.62085e-05" stroke="#D90429" stroke-width="2.8125" stroke-miterlimit="10"/>
<path d="M13.3881 5.07198L11.8007 2.32244" stroke="#D90429" stroke-width="2.8125" stroke-miterlimit="10"/>
<path d="M8.183 10.2771L5.43347 8.68963" stroke="#D90429" stroke-width="2.8125" stroke-miterlimit="10"/>
<path d="M6.27787 17.3876H3.10303" stroke="#D90429" stroke-width="2.8125" stroke-miterlimit="10"/>
<path d="M34.7196 17.3876H37.8944" stroke="#D90429" stroke-width="2.8125" stroke-miterlimit="10"/>
<path d="M32.8143 10.2771L35.5639 8.68963" stroke="#D90429" stroke-width="2.8125" stroke-miterlimit="10"/>
<path d="M27.6089 5.07198L29.1963 2.32244" stroke="#D90429" stroke-width="2.8125" stroke-miterlimit="10"/>
</g>
<defs>
<clipPath id="clip0_0_29">
<rect width="40" height="40" fill="white" transform="translate(0.5)"/>
</clipPath>
</defs>
</svg>
