<svg width="33" height="32" viewBox="0 0 33 32" fill="none" xmlns="http://www.w3.org/2000/svg">
<path d="M5.56348 9.63853V26.3903C5.56348 28.6512 7.4031 30.4905 9.66371 30.4905H23.3365C25.5971 30.4905 27.4367 28.6512 27.4367 26.3903V13.1108C27.4367 11.4894 26.7091 9.97962 25.4408 8.96931L20.4196 4.9696C19.6083 4.32367 18.4591 4.30215 17.6254 4.91565L14.0552 7.53947H13.2103V5.82809H13.5252C13.8589 5.82809 14.1289 5.55775 14.1289 5.22432V3.30067C14.1289 2.31306 13.3259 1.5094 12.3382 1.5094H7.9314C6.94378 1.5094 6.14013 2.31306 6.14013 3.30067V5.22432C6.14013 5.55775 6.41017 5.82809 6.7439 5.82809H7.05935V7.63838C6.1971 7.89944 5.56348 8.69218 5.56348 9.63853ZM7.34767 3.30067C7.34767 2.97874 7.60947 2.71695 7.9314 2.71695H12.3382C12.6596 2.71695 12.9214 2.97874 12.9214 3.30067V4.62054C12.7897 4.62054 7.09102 4.62054 7.34767 4.62054V3.30067ZM12.0027 5.82809V7.538H8.2669V5.82809H12.0027ZM7.66253 8.74702H14.2533C14.3819 8.74702 14.5075 8.70604 14.6106 8.62968L18.34 5.88853C18.7362 5.59755 19.2828 5.60787 19.6673 5.91418L24.6885 9.91388C25.6678 10.6937 26.2292 11.859 26.2292 13.1108V26.3903C26.2292 27.9852 24.9314 29.283 23.3365 29.283H9.66371C8.06878 29.283 6.77102 27.9852 6.77102 26.3903V9.63853C6.77102 9.14708 7.17079 8.74702 7.66253 8.74702Z" fill="#FFC513"/>
<path d="M15.4892 12.2128L23.0016 13.007C23.0234 13.0091 23.0447 13.0102 23.0653 13.0102C23.3082 13.0102 23.5305 12.864 23.6243 12.6355C23.7257 12.387 23.6514 12.1013 23.4415 11.9342L19.3177 8.6494C19.1042 8.47959 18.8029 8.47369 18.5842 8.63525L15.1956 11.1258C14.9945 11.2735 14.9049 11.5294 14.9704 11.77C15.0352 12.0105 15.2416 12.1865 15.4892 12.2128ZM18.9267 9.88171L21.0688 11.5884L17.1661 11.1756L18.9267 9.88171Z" fill="#FFC513"/>
<path d="M9.81239 28.1467C10.1461 28.1467 10.4162 27.8764 10.4162 27.543C10.4162 27.2095 10.1461 26.9392 9.81239 26.9392C9.50992 26.9392 9.26346 26.693 9.26346 26.3902V12.8634C9.26346 12.53 8.99341 12.2596 8.65968 12.2596C8.32596 12.2596 8.05591 12.53 8.05591 12.8634V26.3902C8.05591 27.3587 8.84364 28.1467 9.81239 28.1467Z" fill="#FFC513"/>
<path d="M16.5003 26.3647C19.4001 26.3647 21.7591 24.0056 21.7591 21.1058C21.7591 18.3408 17.3948 14.4516 16.8971 14.0171C16.6707 13.8184 16.3299 13.8184 16.1035 14.0171C15.6058 14.4516 11.2415 18.3408 11.2415 21.1058C11.2415 24.0056 13.6005 26.3647 16.5003 26.3647ZM16.5003 15.2856C17.916 16.6011 20.5516 19.4018 20.5516 21.1058C20.5516 23.3396 18.7344 25.1571 16.5003 25.1571C14.2662 25.1571 12.449 23.3396 12.449 21.1058C12.449 19.4018 15.0846 16.6011 16.5003 15.2856Z" fill="#FFC513"/>
<path d="M16.5005 23.6809C17.9191 23.6809 19.0754 22.5439 19.0777 21.1462C19.0783 20.8127 18.8083 20.5421 18.4751 20.5415C18.4746 20.5415 18.4746 20.5415 18.474 20.5415C18.1408 20.5415 17.8708 20.8113 17.8702 21.1444C17.869 21.8646 17.2417 22.4734 16.5005 22.4734C16.1668 22.4734 15.8967 22.7437 15.8967 23.0772C15.8967 23.4106 16.1668 23.6809 16.5005 23.6809Z" fill="#FFC513"/>
</svg>
