<?xml version="1.0" standalone="no"?>
<!DOCTYPE svg PUBLIC "-//W3C//DTD SVG 20010904//EN"
 "http://www.w3.org/TR/2001/REC-SVG-20010904/DTD/svg10.dtd">
<svg version="1.0" xmlns="http://www.w3.org/2000/svg"
 width="512.000000pt" height="512.000000pt" viewBox="0 0 512.000000 512.000000"
 preserveAspectRatio="xMidYMid meet">

<g transform="translate(0.000000,512.000000) scale(0.100000,-0.100000)"
fill="#D90429" stroke="none">
<path d="M2744 5073 c-65 -179 -126 -296 -221 -422 -212 -285 -685 -619 -1055
-746 l-108 -37 0 -574 0 -573 192 65 c204 70 408 156 548 231 103 56 305 181
377 234 29 22 55 39 58 39 3 0 5 -740 5 -1645 l0 -1645 610 0 610 0 0 2560 0
2560 -499 0 -499 0 -18 -47z"/>
</g>
</svg>
