<svg width="41" height="40" viewBox="0 0 41 40" fill="none" xmlns="http://www.w3.org/2000/svg">
<g clip-path="url(#clip0_0_62)">
<path d="M16.4088 20.9336V15.9089H11.3841C11.3841 14.6144 10.3348 13.5651 9.04039 13.5651C7.74594 13.5651 6.69664 14.6144 6.69664 15.9089H1.67188V30.6458H16.4088V25.6212C15.1144 25.6212 14.0651 24.5719 14.0651 23.2774C14.0651 21.983 15.1144 20.9336 16.4088 20.9336Z" stroke="#D90429" stroke-width="2.8125" stroke-miterlimit="10"/>
<path d="M11.3841 15.9088H16.4088V10.8841C17.7032 10.8841 18.7525 9.83484 18.7525 8.54039C18.7525 7.24594 17.7032 6.19664 16.4088 6.19664V1.17188H1.67188V15.9088H6.69656C6.69656 14.6144 7.74586 13.5651 9.04031 13.5651C10.3348 13.5651 11.3841 14.6144 11.3841 15.9088Z" stroke="#D90429" stroke-width="2.8125" stroke-miterlimit="10"/>
<path d="M16.4086 10.8841V15.9088H21.4333C21.4333 17.2032 22.4826 18.2525 23.7771 18.2525C25.0715 18.2525 26.1208 17.2032 26.1208 15.9088H31.1455V1.17188H16.4086V6.19656C17.7031 6.19656 18.7524 7.24586 18.7524 8.54031C18.7524 9.83477 17.703 10.8841 16.4086 10.8841Z" stroke="#D90429" stroke-width="2.8125" stroke-miterlimit="10"/>
<path d="M29.6161 24.0911H24.5914V29.1158C23.2969 29.1158 22.2476 30.1651 22.2476 31.4595C22.2476 32.754 23.2969 33.8033 24.5914 33.8033V38.8281H39.3282V24.0911H34.3036C34.3036 25.3856 33.2543 26.4349 31.9598 26.4349C30.6654 26.4349 29.6161 25.3856 29.6161 24.0911Z" stroke="#D90429" stroke-width="2.8125" stroke-miterlimit="10"/>
</g>
<defs>
<clipPath id="clip0_0_62">
<rect width="40" height="40" fill="white" transform="translate(0.5)"/>
</clipPath>
</defs>
</svg>
