<svg width="20" height="20" viewBox="0 0 20 20" fill="none" xmlns="http://www.w3.org/2000/svg">
<path d="M9.16671 1.66666C7.51853 1.66666 5.90737 2.1554 4.53696 3.07108C3.16655 3.98675 2.09845 5.28824 1.46772 6.81096C0.836985 8.33368 0.671957 10.0092 0.9935 11.6257C1.31504 13.2423 2.10872 14.7271 3.27415 15.8925C4.43959 17.058 5.92445 17.8517 7.54096 18.1732C9.15747 18.4947 10.833 18.3297 12.3557 17.699C13.8785 17.0683 15.1799 16.0002 16.0956 14.6297C17.0113 13.2593 17.5 11.6482 17.5 9.99999C17.5 8.90564 17.2845 7.82201 16.8657 6.81096C16.4469 5.79991 15.8331 4.88125 15.0593 4.10743C14.2854 3.33361 13.3668 2.71978 12.3557 2.30099C11.3447 1.8822 10.2611 1.66666 9.16671 1.66666ZM9.16671 16.6667C7.84817 16.6667 6.55924 16.2757 5.46291 15.5431C4.36658 14.8106 3.5121 13.7694 3.00751 12.5512C2.50293 11.333 2.37091 9.99259 2.62814 8.69939C2.88538 7.40618 3.52032 6.2183 4.45267 5.28594C5.38502 4.35359 6.5729 3.71866 7.86611 3.46142C9.15932 3.20419 10.4998 3.33621 11.7179 3.84079C12.9361 4.34538 13.9773 5.19986 14.7098 6.29619C15.4424 7.39252 15.8334 8.68145 15.8334 9.99999C15.8334 11.7681 15.131 13.4638 13.8808 14.714C12.6305 15.9643 10.9348 16.6667 9.16671 16.6667ZM10 9.94166V5.83332C10 5.61231 9.91225 5.40035 9.75597 5.24407C9.59969 5.08779 9.38772 4.99999 9.16671 4.99999C8.9457 4.99999 8.73374 5.08779 8.57746 5.24407C8.42118 5.40035 8.33338 5.61231 8.33338 5.83332V9.99999C8.33338 9.99999 8.33338 10.0583 8.33338 10.0917C8.31287 10.2611 8.34487 10.4327 8.42504 10.5833L9.67504 12.75C9.78555 12.9423 9.96792 13.0828 10.182 13.1406C10.3961 13.1984 10.6244 13.1688 10.8167 13.0583C11.009 12.9478 11.1495 12.7655 11.2073 12.5513C11.2651 12.3372 11.2356 12.1089 11.125 11.9167L10 9.94166Z" fill="#E53825"/>
</svg>
