<svg width="20" height="20" viewBox="0 0 20 20" fill="none" xmlns="http://www.w3.org/2000/svg">
<path d="M15 3.73333C13.6739 2.40725 11.8754 1.66226 10 1.66226C8.12466 1.66226 6.32611 2.40725 5.00002 3.73333C3.67394 5.05941 2.92896 6.85797 2.92896 8.73333C2.92896 10.6087 3.67394 12.4072 5.00002 13.7333L9.39169 18.1333C9.46916 18.2114 9.56133 18.2734 9.66288 18.3157C9.76442 18.358 9.87335 18.3798 9.98336 18.3798C10.0934 18.3798 10.2023 18.358 10.3038 18.3157C10.4054 18.2734 10.4976 18.2114 10.575 18.1333L15 13.6917C16.3206 12.3711 17.0624 10.58 17.0624 8.7125C17.0624 6.84495 16.3206 5.05389 15 3.73333ZM13.8084 12.5L10 16.325L6.19169 12.5C5.43931 11.7469 4.92709 10.7877 4.71977 9.74357C4.51245 8.69944 4.61935 7.61729 5.02694 6.6339C5.43454 5.65051 6.12454 4.81004 7.00971 4.21873C7.89489 3.62742 8.93551 3.31181 10 3.31181C11.0645 3.31181 12.1052 3.62742 12.9903 4.21873C13.8755 4.81004 14.5655 5.65051 14.9731 6.6339C15.3807 7.61729 15.4876 8.69944 15.2803 9.74357C15.073 10.7877 14.5607 11.7469 13.8084 12.5ZM7.50002 6.175C6.82728 6.84981 6.44952 7.7638 6.44952 8.71666C6.44952 9.66952 6.82728 10.5835 7.50002 11.2583C7.99982 11.759 8.63635 12.1009 9.32973 12.2412C10.0231 12.3814 10.7425 12.3138 11.3976 12.0468C12.0527 11.7798 12.6143 11.3252 13.0121 10.7402C13.4098 10.1552 13.626 9.46572 13.6334 8.75833C13.6371 8.286 13.5461 7.81771 13.3658 7.38115C13.1854 6.94459 12.9194 6.54863 12.5834 6.21666C12.2531 5.87881 11.8593 5.60961 11.4245 5.42455C10.9898 5.23949 10.5228 5.14223 10.0504 5.13835C9.57791 5.13448 9.10935 5.22408 8.67167 5.40199C8.23398 5.5799 7.83579 5.84261 7.50002 6.175ZM11.4084 10.075C11.0926 10.3956 10.6752 10.5966 10.2276 10.6435C9.78006 10.6905 9.33008 10.5805 8.95461 10.3324C8.57915 10.0843 8.30152 9.71353 8.1692 9.2834C8.03687 8.85327 8.05806 8.39053 8.22915 7.97429C8.40024 7.55806 8.71061 7.21418 9.10718 7.00144C9.50375 6.78871 9.9619 6.72034 10.4033 6.80801C10.8447 6.89568 11.2419 7.13396 11.5271 7.48211C11.8123 7.83025 11.9677 8.26664 11.9667 8.71666C11.9546 9.23105 11.7388 9.7196 11.3667 10.075H11.4084Z" fill="#E53825"/>
</svg>
