<svg xmlns="http://www.w3.org/2000/svg" width="512" height="512"><path d="m325.617-.336 2.227-.02c1.551-.01 3.103-.015 4.655-.015 2.361-.004 4.721-.04 7.083-.078 1.512-.006 3.023-.01 4.535-.012l2.122-.043C351.279-.458 354.166.764 358 4c1.932 2.814 2.277 5.173 2.414 8.547l.117 2.558.094 2.645.117 2.691c.094 2.186.18 4.372.258 6.559l3.36 1.242 4.39 1.633 2.21.816c3.441 1.283 6.805 2.555 10.04 4.309l2.266-2.336 2.984-3.039 1.488-1.54c4.016-4.068 6.862-6.359 12.637-6.46l2.21-.086c7.285 1.39 12.675 8.389 17.665 13.398l2.469 2.42 2.36 2.358 2.137 2.129c2.9 3.505 4.187 6.93 3.846 11.468-.773 5.663-4.085 8.843-8.062 12.688a2886.569 2886.569 0 0 0-4 4l2.432.011c7.605.038 15.21.095 22.814.173 3.909.04 7.817.071 11.726.087 3.78.015 7.56.05 11.34.097 1.434.015 2.868.023 4.302.024C484.6 70.407 495.511 72.587 505 82c6.563 8.296 7.294 16.232 7.267 26.537l.014 3.867c.012 3.536.012 7.072.01 10.608 0 3.816.01 7.632.02 11.448.016 7.474.022 14.948.023 22.423.001 6.076.005 12.153.012 18.23.017 17.234.026 34.469.025 51.703v5.634c-.001 15.07.018 30.139.046 45.208.029 15.48.042 30.959.04 46.438 0 8.688.006 17.376.027 26.064.018 7.398.023 14.795.009 22.193-.006 3.773-.007 7.545.01 11.317.02 4.095.007 8.19-.009 12.285l.032 3.59c-.088 10.546-2.796 18.702-10.12 26.408-8.884 7.557-18.413 9.176-29.708 9.167l-2.087.003c-2.283.001-4.566-.004-6.85-.01l-4.939.001c-4.452 0-8.903-.006-13.355-.013-4.66-.006-9.319-.006-13.978-.008-8.815-.003-17.63-.01-26.444-.021-10.039-.011-20.077-.017-30.116-.022-20.643-.01-41.286-.028-61.929-.05.361 5.492.734 10.983 1.117 16.473.128 1.859.253 3.718.375 5.577.841 12.792 2.287 25.322 4.508 37.95l2.538.067c3.384.093 6.766.2 10.15.308 1.198.03 2.396.062 3.63.094l3.506.117 3.222.095c3.046.329 5.238.91 7.954 2.319 2.48 3.72 2.463 5.598 2 10-1.558 2.19-1.558 2.19-4 4-2.62.393-4.821.541-7.44.508l-2.278.019c-2.521.016-5.042.003-7.563-.01a2337.487 2337.487 0 0 1-20.148.02c-5.134-.01-10.267 0-15.401.006a8472.41 8472.41 0 0 1-25.865-.022c-9.973-.021-19.945-.014-29.918.008-8.557.018-17.114.02-25.671.01-5.113-.006-10.226-.007-15.34.006-4.806.012-9.612.004-14.419-.02a663.109 663.109 0 0 0-5.297.006c-2.407.01-4.813-.003-7.22-.023l-2.126.027c-3.314-.053-5.063-.348-7.752-2.348-2.268-3.176-2.038-5.379-1.562-9.187 1.302-2.474 2.057-3.683 4.73-4.582 2.797-.515 5.505-.637 8.348-.734l3.516-.127 3.656-.12 3.703-.13c3.016-.106 6.031-.208 9.047-.307 2.382-13.54 3.788-26.974 4.688-40.688.13-1.888.26-3.777.392-5.666.315-4.548.62-9.097.92-13.646l-2.282.013c-7.106.04-14.213.071-21.32.09-3.652.011-7.306.025-10.959.048-3.527.022-7.054.034-10.582.039-1.996.005-3.993.02-5.99.037h-3.7l-3.25.014c-3.967-.328-6.823-1.256-9.792-3.928-1.66-3.414-1.045-5.7-.125-9.313 1.195-1.691 1.195-1.691 3-3 2.58-.376 2.58-.376 5.748-.376l3.653-.023 4.035.02a2136.656 2136.656 0 0 1 16.032-.01c4.225.007 8.45-.003 12.675-.012 7.326-.013 14.651-.015 21.977-.01 10.601.007 21.202-.005 31.804-.023 17.212-.029 34.423-.046 51.635-.055l3.123-.001a328723.263 328723.263 0 0 1 46.977-.021l3.114-.002c17.139-.008 34.278-.029 51.417-.058 10.573-.017 21.145-.023 31.718-.016 7.248.004 14.496-.003 21.744-.017 4.181-.008 8.362-.011 12.544-.001 3.83.009 7.661.004 11.492-.012 2.036-.004 4.072.006 6.108.016 11.155.07 11.155.07 20.817-4.85 10.877-12.628 4.81-22.19 5.387-43.549H16c-2.39 33.069-2.39 33.069 5 43 6.048 4.761 10.872 5.12 18.405 5.158l2.204.015c1.573.01 3.145.02 4.718.026 2.488.012 4.976.032 7.464.053 7.071.062 14.142.116 21.214.15 4.33.02 8.66.056 12.991.1 1.65.014 3.3.023 4.95.026 2.303.005 4.605.028 6.908.055l3.972.025c3.174.392 3.174.392 5.096 1.783 1.425 2.127 1.478 3.563 1.453 6.109l.023 2.344c-.497 2.691-1.215 3.536-3.398 5.156-3.575 1.213-7.047 1.134-10.797 1.145l-2.047.01c-2.23.01-4.46.012-6.691.013l-4.68.01c-3.272.006-6.544.008-9.817.007-4.167 0-8.333.014-12.5.031-3.225.011-6.45.013-9.675.013-1.535 0-3.069.005-4.603.013-14.008.064-26.297-.303-37.23-10.062-8.122-8.538-9.554-17.785-9.468-29.205l-.019-3.88c-.016-3.528-.008-7.057.004-10.586.01-3.815-.005-7.63-.016-11.446-.018-7.464-.014-14.928-.002-22.392.009-6.067.01-12.135.006-18.202l-.002-2.62-.004-5.271c-.011-16.46.002-32.919.023-49.378.018-14.114.015-28.228-.003-42.342a23956.574 23956.574 0 0 1-.014-54.46l.002-2.61c.003-6.058-.003-12.117-.012-18.176-.011-7.385-.008-14.771.013-22.157.01-3.766.015-7.532.001-11.298-.014-4.087.003-8.173.023-12.26l-.027-3.59C-.469 98.31.547 93.114 4 87l1.352-2.418C10.654 77.214 18.128 72.83 27 71c3.117-.278 6.217-.286 9.346-.278l2.79-.018c3.074-.017 6.147-.02 9.221-.023l6.624-.03c5.987-.028 11.974-.043 17.96-.056 6.26-.015 12.52-.042 18.779-.068 10.504-.041 21.007-.076 31.511-.105 10.817-.03 21.634-.065 32.45-.105l2.022-.007 10.043-.037c27.751-.104 55.503-.193 83.254-.273l-2.117-2.012-2.758-2.675-2.742-2.637c-2.778-3.12-4.18-5.698-4.606-9.852.52-6.925 3.386-10.088 8.223-14.824a1508.94 1508.94 0 0 0 3.438-3.543c1.248-1.279 2.498-2.556 3.75-3.832l1.836-1.878 1.769-1.77 1.579-1.592c3.911-3.328 7.405-3.84 12.401-3.686C278.96 22.67 284.228 30.037 289 35l3.613-1.496 4.7-1.941 2.38-.987a202721123.488 202721123.488 0 0 1 4.406-1.82c1.612-.641 3.255-1.207 4.901-1.756l.078-3.945c.056-1.727.114-3.453.172-5.18l.043-2.594C309.505 9.765 310.22 6.303 314 2c3.615-2.471 7.39-2.323 11.617-2.336ZM326 16c-.21 4.995-.21 4.995-.388 9.99-.242 4.646-1.119 7.967-3.612 12.01-4.38 3.819-9.21 5.147-14.707 6.848-3.517 1.23-6.716 2.792-10.043 4.465-5.533 2.584-8.426 3.76-14.25 1.687-2.147-1.542-4.048-3.176-5.945-5.016-2.557-2.468-5.325-4.709-8.055-6.984l-12 12c1.828 3.657 3.115 5.285 6 8 4.126 3.884 5.832 6.05 6.328 11.797-.115 4.305-1.586 7.69-3.578 11.453-2.826 5.613-4.952 11.053-6.535 17.164-1.668 3.55-3.766 5.8-7.215 7.586-3.303.707-6.506.788-9.875.813L233 108v19c5.698.21 5.698.21 11.397.388 4.611.212 7.897.586 11.603 3.612 3.348 5.65 5.473 11.744 7.762 17.887a61.676 61.676 0 0 0 3.55 7.425c2.133 4.136 2.286 7.055 1.688 11.688-2.797 5.595-7.522 9.718-12 14 1.587 3.903 4.134 6.335 7.125 9.25l2.758 2.703L269 196l1.285-1.102a446.987 446.987 0 0 1 3.735-3.164c1.978-1.677 1.978-1.677 3.617-3.468 3.244-3.3 5.757-4.744 10.425-5.078 6.217.332 11.07 3.07 16.426 6.007 3.357 1.726 6.525 2.865 10.137 3.93 4.499 1.396 7.047 2.551 9.375 6.875.864 2.593 1.176 4.34 1.316 7.012l.116 2.069.13 2.607L326 220h18c.21-5.324.21-5.324.388-10.649.275-5.617 1.22-10.066 5.456-14.113 2.501-1.436 4.889-2.236 7.656-3.05 4.524-1.415 8.472-3.158 12.625-5.438 5.416-2.793 9.832-3.989 15.875-2.75 5.612 2.694 9.735 7.54 14 12 4.56-3.805 8.85-7.75 13-12-1.455-3.394-3.323-5.48-6-8-4.128-3.885-5.834-6.05-6.324-11.8.115-4.274 1.543-7.645 3.512-11.387a731.7 731.7 0 0 0 1.933-3.903c.32-.648.64-1.296.968-1.964 1.873-4.002 3.3-8.173 4.77-12.337 1.118-2.557 1.958-3.91 4.141-5.609 2.66-.886 4.48-1.18 7.23-1.316l2.193-.116 2.764-.13L437 127v-19c-5.982-.13-5.982-.13-11.965-.208-4.236-.157-6.694-.594-10.426-2.76-3.323-3.861-4.695-7.543-6.234-12.344a906.945 906.945 0 0 0-1.664-4.926l-.823-2.417c-1.129-2.981-2.545-5.745-4.083-8.533-1.538-3.46-1.29-6.058-.805-9.812 2.797-5.595 7.522-9.718 12-14-1.587-3.903-4.134-6.335-7.125-9.25l-2.758-2.703L401 39l-1.285 1.102a716.787 716.787 0 0 1-3.723 3.168 87.9 87.9 0 0 0-3.734 3.43l-1.695 1.612-1.497 1.489c-3.233 1.876-6.39 2.365-10.066 2.199-3.118-.887-5.92-2.24-8.813-3.688-1.58-.753-3.162-1.503-4.746-2.25l-2.3-1.093c-2.777-1.257-5.617-2.22-8.516-3.157-4.143-1.436-6.4-2.867-8.625-6.812-1.238-3.714-1.356-7.313-1.563-11.188L344 16h-18ZM19.413 92.67c-3.891 5.417-4.112 10.475-4.014 16.973l-.013 3.176c-.008 3.5.019 6.998.046 10.497.002 2.514.001 5.027-.002 7.54-.001 5.406.013 10.81.041 16.215.041 7.814.054 15.628.06 23.442.011 12.68.044 25.359.092 38.038a18422.119 18422.119 0 0 1 .106 39.242l.02 11.433c.051 31.591.14 63.183.251 94.774h15l.007-3.653a71626.156 71626.156 0 0 1 .255-96.42l.007-2.125c.036-11.355.06-22.709.081-34.063.022-11.65.055-23.301.099-34.952.024-6.544.042-13.088.049-19.632.006-6.157.026-12.315.056-18.472.01-2.262.013-4.523.011-6.785-.002-3.085.015-6.17.036-9.255l-.014-2.718c.075-6.634 1.335-10.847 6.163-15.675 5.526-3.825 10.893-4.499 17.508-4.528 1.044-.01 1.044-.01 2.11-.018 2.313-.017 4.626-.02 6.94-.023l4.998-.03c4.51-.028 9.02-.043 13.53-.056 4.718-.015 9.436-.042 14.153-.068 8.929-.046 17.857-.083 26.785-.116 10.167-.039 20.333-.088 30.5-.138 20.909-.104 41.817-.193 62.726-.273l.77-1.898 1.042-2.477 1.02-2.46C221 96 221 96 224 94c4.357-1.186 8.824-1.318 13.313-1.563l2.244-.13C241.37 92.2 243.185 92.1 245 92l1-5c-28.155-.093-56.31-.164-84.465-.207-13.073-.02-26.146-.049-39.22-.095-11.393-.04-22.788-.065-34.182-.074-6.033-.006-12.066-.018-18.1-.047-5.68-.027-11.36-.035-17.039-.03a913.838 913.838 0 0 1-6.25-.024 788.64 788.64 0 0 0-8.544-.004l-2.488-.035c-6.438.066-11.747 1.396-16.3 6.187ZM424 87l1 5 3.29.148 4.335.227c.713.03 1.426.062 2.16.094 5.348.294 10.112.895 14.465 4.281 2.043 2.626 2.767 5.093 3.75 8.25l3.29.297 4.335.453 2.16.188c6.255.688 10.248 2.882 14.527 7.624 2.224 3.212 2.812 5.663 2.827 9.477l.016 2.499.003 2.744.015 2.916c.016 3.238.024 6.477.032 9.715l.03 6.947c.027 6.3.048 12.598.068 18.898.022 6.578.05 13.156.076 19.735.045 11.045.085 22.09.124 33.136a79861.2 79861.2 0 0 0 .174 46.81c.114 29.187.22 58.374.323 87.561h15a51192.352 51192.352 0 0 0 .279-110.813c.021-12.31.06-24.62.107-36.93.047-12.634.074-25.267.084-37.9.007-7.795.029-15.589.07-23.383.03-5.979.032-11.958.026-17.937 0-2.45.01-4.902.03-7.353.025-3.347.019-6.694.005-10.041l.044-2.936c-.07-6.376-1.402-10.84-5.645-15.707-6.447-5.115-13.799-4.521-21.688-4.39l-3.934.017c-3.426.015-6.851.054-10.277.098-3.507.041-7.013.06-10.519.08-6.86.042-13.721.11-20.582.195ZM47 123c-.294 3.07-.39 5.938-.36 9.01l-.009 2.857c-.005 3.188.012 6.377.028 9.565v6.94c-.001 6.213.016 12.426.037 18.64.017 5.823.018 11.646.02 17.47.016 17.047.058 34.095.096 51.143L47 354h418l.188-115.375.082-36.49c.01-10.752.01-10.752.016-21.504.003-4.806.014-9.612.03-14.418.021-6.119.027-12.238.023-18.357.001-2.253.007-4.505.019-6.758.014-3.03.011-6.058.003-9.088l.026-2.705c.016-2.69.016-2.69-.387-6.305-3.204-2.136-4.02-2.231-7.688-2.125l-2.449.055L453 121l-.078 2.633c-.586 11.91-.586 11.91-4.922 16.367-4.574 2.456-9.24 2.433-14.313 2.625l-2.533.117c-2.05.094-4.102.177-6.154.258-.96 2.374-1.918 4.75-2.875 7.125l-.816 2.016c-1.574 3.915-3.019 7.839-4.309 11.859l2.336 2.23 3.039 2.958 1.54 1.462c4.128 4.048 5.837 7.08 6.46 12.787-.852 8.099-7.985 13.443-13.5 18.875l-2.496 2.495c-7.408 7.353-7.408 7.353-13.504 7.693-5.687-.037-8.223-1.66-12.168-5.605a489.669 489.669 0 0 1-3.133-3.508c-1.368-1.56-1.368-1.56-3.574-3.387-4.855.353-9.377 2.685-13.813 4.563l-2.388.998c-1.935.809-3.867 1.623-5.799 2.439l-.078 3.945c-.056 1.727-.114 3.453-.172 5.18l-.043 2.594c-.21 5.48-.822 9.096-4.707 13.281-6.539 2.714-12.968 2.33-19.938 2.313l-3.787.048c-12 .007-12 .007-17.275-3.361-3.876-4.244-3.545-9.349-3.688-14.813l-.103-2.677c-.082-2.17-.147-4.34-.209-6.51a1030.17 1030.17 0 0 0-9.25-4.063l-2.645-1.181-2.558-1.104-2.349-1.031c-2.55-.72-3.752-.593-6.198.379-2.592 2.266-2.592 2.266-5.125 5-4.15 4.334-5.984 6.165-12 6.5-5.415-.098-7.811-1.217-11.559-5.027L256 205a646.65 646.65 0 0 0-3.535-3.441c-5.164-5.03-5.164-5.03-7.488-7.352l-1.592-1.579c-2.5-2.938-3.34-5.15-3.697-9.003.572-6.643 3.804-10.487 8.5-15l2.73-2.648L253 164c-1.513-4.714-3.268-9.29-5.125-13.875l-.84-2.086c-.677-1.68-1.356-3.36-2.035-5.039l-3.727-.113c-1.632-.066-3.265-.132-4.898-.2l-2.45-.068c-4.963-.222-8.702-.747-12.925-3.619-2.896-3.906-3.445-7.002-3.688-11.813l-.199-3.519L217 121c-21.722-.047-43.445-.082-65.167-.104-10.085-.01-20.171-.024-30.257-.047-8.788-.02-17.577-.033-26.365-.037-4.656-.003-9.31-.009-13.966-.023a3474.3 3474.3 0 0 0-13.137-.015c-1.61 0-3.219-.005-4.829-.012-2.193-.01-4.385-.008-6.578-.003l-3.724-.005c-3.162.02-3.162.02-5.977 2.246Zm168 312c-.901 12.966-.901 12.966-1.794 25.933l-.354 5.024-.166 2.454c-.658 9.232-1.715 18.364-2.686 27.589h92l-2-19a687.074 687.074 0 0 1-.852-11.043l-.172-2.444c-.204-2.9-.402-5.8-.601-8.7L297 435h-82Z" fill="#FFC513"/><path d="m152.813 152.563 3.853-.1c10.466-.06 10.466-.06 14.158 2.94 4.593 5.483 3.732 11.615 4.176 18.597l13 5 4.375-3.938c4.578-4.12 7.036-5.559 13.195-5.46 4.458.73 7.206 3.389 10.43 6.398l2.395 2.227C228.687 188.17 228.687 188.17 229 196c-1.832 6.297-5.225 9.585-10 14l5 13 6.625.188c8.044.585 8.044.585 11.125 3 4.61 5.762 4.589 11.679 4.563 18.75l.048 2.63c.005 6.804-.786 11.672-5.591 16.823-5.184 3.012-10.887 2.39-16.77 2.609l-5 13 3.875 3.5c4.1 4.129 5.663 6.68 6.125 12.5-2.027 6.688-6.098 10.608-11.063 15.375l-2.22 2.191c-4.818 4.717-7.379 6.948-14.268 6.926-3.838-.771-5.942-3.032-8.625-5.765-1.971-1.867-3.207-2.97-5.824-3.727-3.106.85-3.106.85-6.25 2.375l-3.266 1.46L175 316l-.043 2.852c-.438 11.439-.438 11.439-3.394 14.96-5.313 4.535-11.082 3.448-17.813 3.5l-3.723.088c-11.475.081-11.475.081-16.027-4.4-2.628-3.454-2.203-7.034-2.125-11.25l.055-3.828L132 315l-2.727-.402c-4.042-.738-7.46-2.086-11.273-3.598l-1.39 1.46-1.86 1.915-1.828 1.898c-3.732 3.353-6.714 3.965-11.727 4.188-6.144-1.29-10.689-6.646-14.945-10.961l-1.746-1.723-1.676-1.683-1.503-1.51c-2.938-3.512-3.877-6.807-3.782-11.424C78.679 287.79 83.19 283.72 87 280c-.958-2.942-1.93-5.833-3.125-8.688C83 269 83 269 83 266l-2.852.14c-11.443.332-11.443.332-14.898-1.89-5.542-5.542-4.617-11.697-4.625-19.125l-.074-3.55C60.514 230.776 60.514 230.776 65 226c3.68-2.454 6.444-2.228 10.688-2.125l2.126.027c1.73.024 3.458.06 5.186.098l.398-2.805C84 218 84 218 85.625 214.875c1.57-2.642 1.57-2.642 1.18-4.832-.997-2.53-2.307-3.775-4.305-5.606-3.404-3.131-4.367-5.032-4.813-9.75.625-7.373 6.392-12.053 11.438-17l1.918-1.916c4.797-4.75 7.384-6.283 14.281-6.263 4.768.877 7.4 4.148 10.676 7.492l3 2c2.462-.641 2.462-.641 5-1.875 4.728-2.125 4.728-2.125 8-2.125l-.14-2.852c-.332-11.44-.332-11.44 1.952-14.898 5.585-5.744 11.426-4.653 19-4.688ZM148 169l-.113 2.45-.2 3.238-.175 3.199c-.563 3.424-1.414 5.364-3.512 8.113-1.805 1.152-1.805 1.152-3.875 1.938-4.007 1.588-7.825 3.397-11.688 5.312-5.256 2.414-8.709 3.755-14.437 2.75-3.952-2.128-6.955-4.72-10-8-3.795 1.491-5.61 3.757-8 7l1.496 1.68 1.942 2.195 1.933 2.18c2.734 3.265 3.078 5.917 3.05 10.18-.704 4.62-2.828 8.516-4.901 12.667a59.149 59.149 0 0 0-3.145 7.723c-1.397 3.429-2.158 4.666-5.375 6.375-3.008 1.003-5.538 1.303-8.688 1.563l-3.011.253L77 240v10l2.45.113 3.237.2 3.2.175c4.48.737 7.084 2.094 9.765 5.79 1.506 3.04 2.734 6.102 3.91 9.284 1.597 4.369 1.597 4.369 3.56 8.575 1.67 3.542 1.613 7.062.878 10.863-1.68 2.978-3.758 5.433-6 8l-2 3 6 6c2.98-1.331 4.917-2.804 7.188-5.125 3.391-2.912 5.768-3.773 10.226-3.469 5.561 1.277 10.514 4.058 15.586 6.594 2.39.976 4.782 1.932 7.195 2.848 2.591 1.654 3.506 3.382 4.805 6.152.512 3.113.512 3.113.688 6.313l.199 3.238L148 321h10l.262-2.887.425-3.8.387-3.762c1.125-4.316 2.418-5.836 5.926-8.551 3.34-1.477 3.34-1.477 6.938-2.625 3.578-1.16 6.896-2.29 10.253-3.996 3.78-1.856 6.69-2.13 10.809-1.379 3.188 1.75 3.188 1.75 6 4l2.875 2.25L204 302l6-6c-1.163-2.749-2.647-4.867-4.563-7.125-3.585-4.229-3.782-6.333-3.437-11.875 1.172-3.176 1.172-3.176 2.75-6.313 2.006-4.063 3.77-8.03 5.25-12.312 1.256-3.126 1.839-4.242 4.5-6.438 5.116-1.37 10.223-1.69 15.5-1.937v-10l-2.414-.113-3.211-.2-3.164-.175c-3.828-.61-6.034-1.244-9.211-3.512-1.816-2.999-3.026-6.16-4.25-9.438-.671-1.707-1.343-3.414-2.016-5.12l-.868-2.291c-.832-2.17-.832-2.17-1.951-4.218-1.468-3.101-1.265-5.554-.915-8.933 2.155-3.925 4.727-6.961 8-10-1.491-3.795-3.757-5.61-7-8l-1.68 1.496-2.195 1.941-2.18 1.934c-3.202 2.682-5.557 2.925-9.73 2.87-3.762-.41-6.898-1.924-10.278-3.554l-4.035-1.863-1.961-.932c-1.915-.88-3.853-1.658-5.812-2.435C162 186 162 186 160 183c-.45-2.383-.816-4.782-1.125-7.188l-.508-3.855L158 169h-10ZM372.273 71.445c12.109 10.12 18.407 22.953 21.477 38.305 1.428 18.57-3.551 34.047-15.52 48.367-10.015 10.838-23.373 17.338-38.07 18.258-17.24.628-31.11-3.261-44.348-14.688-12.792-12.01-19.588-26.469-20.187-44.187.438-11.958 3.703-23.519 10.375-33.5 3.023-2.264 4.266-3.015 8.063-2.938C297.49 82.157 298.93 83.056 301 86c.486 4.816-.522 7.584-2.875 11.75-5.518 10.605-6.243 20.538-3.406 32.207 3.349 10.32 10.345 19.402 20.027 24.484 10.784 5.027 22.659 6.87 34.192 2.934 11.515-4.938 19.784-12.38 25.058-23.816 4.107-10.469 3.925-21.314-.121-31.809-4.948-10.699-12.016-18.375-22.95-23.07-9.58-3.305-18.491-3.369-28.425-1.868-3.776.431-4.25.353-7.625-1.874-2.209-3.46-2.712-4.92-1.875-8.938 2.435-3.456 4.792-5.211 8.813-6.313 17.858-3.095 36.036.528 50.46 11.758Z" fill="#FFC513"/><path d="M175.492 210.508c8.753 6.336 15.355 14.777 17.508 25.492 1.38 12.815.157 23.744-7.688 34.313-7.271 8.466-16.75 13.886-27.925 15.07-11.977.367-22.5-2.053-31.387-10.383-8.523-8.436-12.9-17.642-13.375-29.688.24-11.86 4.283-21.07 12.445-29.433 13.604-12.917 34.21-15.18 50.422-5.371Zm-40.367 18.242c-4.328 5.422-6.813 11.033-6.465 18.113 1.207 7.588 4.221 13.005 10.274 17.73 6.214 4.23 11.714 5.25 19.066 4.407 6.516-1.488 11.644-4.618 15.48-10.125 3.722-6.505 4.711-12.474 3.52-19.875-2.273-7.403-6.267-12.225-13-16-10.232-4.786-21.241-2.363-28.875 5.75ZM349.047 89.816 351 91l1.89 1.027c6.523 3.985 9.801 10.582 12.485 17.535 1.607 8.837.792 16.984-3.781 24.86C356.914 141 350.157 146.583 342 148c-10.284.977-18.329.071-27-6-5.68-4.923-10.262-12.432-11-20l-.191-1.918c-.496-9.03 2.829-17.39 8.488-24.363 9.406-9.493 24.86-12.266 36.75-5.903Zm-26.36 19.434c-2.168 3.534-2.997 6.65-2.687 10.75 1.29 4.416 3.305 7.338 6.625 10.5 4.593 2.041 8.427 2.274 13.375 1.5 4.869-2.164 7.265-5.083 9.363-9.855 1.086-3.656.996-6.58-.363-10.145-2.625-4.086-5.449-7.155-10-9-7.436-.72-10.89.975-16.313 6.25ZM245.43 385.797l2.507-.017c1.75-.01 3.5-.016 5.25-.02 2.671-.01 5.341-.041 8.012-.072 1.702-.007 3.404-.012 5.106-.016l2.412-.038c4.583.019 7.553.402 11.283 3.366 1.546 3.092 1.294 5.594 1 9-1.43 2.193-1.43 2.193-4 4-3.145.595-6.244.56-9.438.531l-2.779.012c-1.936.003-3.873-.005-5.81-.022-2.963-.02-5.924 0-8.887.026-1.883-.003-3.766-.008-5.649-.016l-2.683.025c-6.1-.093-6.1-.093-9.316-2.37-2.102-3.195-1.905-5.447-1.438-9.186 3.264-5.906 8.344-5.17 14.43-5.203Z" fill="#FFC513"/></svg>