<svg width="998" height="496" viewBox="0 0 998 496" fill="none" xmlns="http://www.w3.org/2000/svg">
<path d="M30.9866 259.675C30.8843 259.85 30.7564 260.141 30.654 260.141C26.075 260.402 21.5216 260.838 17.0449 262.001C16.6868 262.089 16.2008 262.408 15.9961 262.234C13.0799 259.966 9.88227 261.682 6.83813 261.478C3.74283 261.275 0.596369 261.74 -2.52451 261.798C-3.39427 261.798 -4.28961 261.362 -5.18494 261.1C-6.61748 260.693 -8.02444 260.112 -9.45698 259.85C-15.7755 258.687 -16.1848 258.861 -21.5312 264.444L-21.3521 264.327C-22.401 264.124 -23.194 265.345 -24.4986 264.647C-25.9311 263.891 -27.7218 263.891 -29.359 263.63C-29.8962 263.542 -30.459 263.659 -30.9962 263.775C-31.3543 263.862 -31.8915 264.008 -31.9938 264.269C-33.0682 267.787 -37.1868 265.578 -38.4658 268.718C-38.6705 269.212 -39.2844 269.445 -39.5402 269.648C-40.3332 268.485 -41.0751 267.438 -41.7402 266.479C-40.3588 266.159 -38.1333 267.526 -37.417 264.211C-39.2588 263.019 -41.2797 263.339 -43.2239 263.31C-45.0657 263.281 -46.9076 263.426 -48.7494 263.571C-51.6912 263.775 -54.6842 263.746 -57.6004 264.24C-63.2538 265.2 -69.0095 265.403 -74.5862 267.09C-77.0676 267.816 -79.6001 267.846 -82.1582 266.392C-84.0512 265.316 -86.4046 265.258 -88.579 264.764C-88.8092 261.885 -86.6604 263.862 -85.9186 263.048C-85.8163 262.874 -85.7139 262.728 -85.6116 262.554C-86.7372 262.001 -87.8883 261.449 -89.1162 260.867C-88.2976 257.698 -84.4605 258.571 -84.0768 254.907C-85.8674 254.733 -87.6581 254.558 -89.4232 254.384L-89.3209 254.558C-89.679 254.209 -90.0883 253.541 -90.4208 253.57C-92.0836 253.744 -93.7208 254.18 -95.3836 254.355C-95.7417 254.384 -96.151 253.744 -97.0719 252.93C-94.9231 252.523 -93.3882 252.174 -91.8022 251.941C-89.4232 251.593 -87.5813 250.604 -86.686 247.813C-86.3279 246.679 -85.4325 245.778 -84.6651 244.585C-80.9303 245.4 -77.3745 244.411 -73.8699 242.783C-72.1816 241.998 -70.263 241.852 -68.4468 241.445C-67.5258 241.242 -66.2724 241.474 -65.7608 240.864C-63.4329 238.189 -60.5167 239.555 -57.8818 239.09C-56.2446 238.799 -54.5563 238.974 -52.9447 238.683C-48.5703 237.84 -44.2471 236.939 -39.7193 237.346C-35.1147 237.753 -30.4334 237.52 -25.8032 237.491C-24.5242 237.491 -23.2451 237.288 -21.9661 237.084C-21.0452 236.968 -20.1243 236.473 -19.2545 236.561C-16.6452 236.881 -14.0616 236.066 -11.5546 236.125C-9.07326 236.183 -6.82213 235.456 -4.46868 235.31C0.161479 235.049 4.79165 235.34 9.4474 235.427C11.6729 235.485 13.8985 235.63 16.0984 235.659C22.0588 235.747 27.9936 235.979 33.954 235.863C38.7632 235.747 43.5724 235.223 48.4073 234.874C50.7863 234.7 53.2676 233.915 55.4932 234.467C59.1513 235.398 61.5815 233.74 63.8837 231.007C63.3977 234.816 63.4233 234.816 66.4418 233.799C67.286 233.508 68.2325 233.624 69.1023 233.45C69.3581 233.392 69.7418 232.839 69.7162 232.607C69.6139 232.083 69.3581 231.298 69.0255 231.182C68.2069 230.862 67.286 230.775 66.3907 230.775C65.5209 230.775 64.6256 231.007 63.7559 231.124C63.5768 229.903 63.3721 228.681 63.2442 227.431C63.1419 226.443 63.1163 225.425 63.0652 224.436C60.9419 223.099 59.1001 223.739 57.2327 224.989C55.749 226.006 55.6722 225.89 53.0118 225.658C53.5746 224.611 54.1118 223.622 54.8792 222.227C54.0351 221.936 53.4211 221.558 52.8072 221.558C49.4816 221.587 46.1561 221.674 42.8306 221.791C39.6841 221.907 36.4098 222.692 33.4424 221.965C31.2168 221.413 29.068 223.826 27.0727 221.703C25.0774 221.965 23.0821 222.285 21.0612 222.459C19.3984 222.605 17.6589 222.983 16.0729 222.605C9.62646 221.064 3.1033 221.994 -3.36869 221.296C-4.11054 221.209 -5.00588 221.558 -5.56866 221.18C-8.53606 219.174 -11.6825 219.988 -14.8034 220.191C-17.3871 220.366 -19.9963 220.511 -22.6056 220.657C-22.9637 220.686 -23.3475 220.511 -23.7056 220.569C-25.3939 220.889 -25.8544 217.836 -27.4404 218.592C-28.9241 219.319 -30.2543 219.116 -31.738 218.941C-33.938 218.68 -36.1635 218.854 -38.3635 219.057C-39.8984 219.203 -41.2286 219.319 -42.3541 217.691C-42.8402 216.993 -43.889 216.673 -44.7332 216.47C-45.6285 216.266 -46.6006 216.266 -47.5215 216.441C-51.7935 217.226 -56.0144 216.673 -60.2864 216.121C-63.791 215.656 -67.3468 215.83 -70.8514 215.568C-72.6676 215.423 -74.4839 214.958 -77.3745 214.435C-75.8653 213.562 -75.2769 212.894 -74.7908 212.981C-69.777 213.911 -64.7631 213.01 -59.7492 213.097C-53.8144 213.213 -47.8796 213.33 -41.996 213.998C-36.8031 214.58 -31.6357 214.696 -26.4172 214.347C-25.4963 214.289 -24.5498 214.144 -23.6289 214.202C-18.9987 214.464 -14.3685 214.813 -9.73836 215.074C-8.02443 215.161 -5.97795 214.347 -3.36869 212.632C-1.80825 214.929 0.494038 215.132 2.9754 215.045C7.60556 214.929 12.2613 214.929 16.8915 215.103C18.6566 215.161 20.1658 214.929 21.1635 213.242C23.0821 215.191 21.0867 216.063 20.9333 217.313C20.2426 217.168 19.5775 216.266 18.631 217.342C19.5007 217.255 20.1658 217.197 20.8054 217.139C26.7401 217.226 32.6494 217.371 38.5842 217.429C44.1608 217.487 49.7375 217.517 55.3141 217.546C55.9792 217.546 56.6699 217.371 58.4862 217.08C55.0327 215.278 52.5258 215.249 49.9933 215.278C46.4631 215.336 42.9073 215.743 39.4027 214.725C39.0702 214.638 38.8144 214.318 38.4818 214.086C38.84 212.835 39.7097 212.748 40.6562 212.777C45.6445 212.981 50.6328 213.301 55.6211 213.359C58.9722 213.388 62.2977 213.097 65.6488 212.894C66.1861 212.864 66.7744 212.719 67.2605 212.399C72.5301 208.968 78.8231 209.172 84.2462 206.294C85.0393 205.886 86.0625 206.09 87.009 206.032C89.0555 205.945 91.1019 205.828 93.1484 205.799C97.8553 205.741 102.485 205.421 105.913 201.06C107.755 201.496 109.418 201.729 110.978 202.281C113.255 203.095 115.378 202.601 117.502 201.758C118.064 201.525 118.064 201.467 118.013 198.792C117.297 198.85 116.555 198.763 115.916 198.996C115.046 199.315 114.227 199.955 113.281 199.286C110.416 197.251 107.09 198.094 103.995 197.513C102.946 197.309 101.641 197.426 100.695 197.949C98.1367 199.345 95.3228 199.286 92.688 200.13C89.4136 201.176 86.1392 201.583 82.737 200.769C81.3044 200.42 79.744 200.42 78.2859 200.682C74.4231 201.38 70.6116 202.31 66.7488 203.095C65.0349 203.444 63.6535 204.229 62.6047 205.974C61.8628 207.195 61.6838 207.049 60.7373 204.869C60.6094 204.549 60.2513 204.229 59.9699 204.2C59.6373 204.142 59.0745 204.287 58.9722 204.549C58.2559 206.177 57.642 207.835 56.7467 210.044C55.5699 208.503 54.7513 207.457 53.9839 206.468C55.442 201.525 58.9978 200.391 62.7326 199.897C65.7 199.49 68.6162 199.199 71.1743 197.193C71.7115 196.786 72.5813 196.873 73.272 196.786C74.9092 196.582 76.5463 196.408 78.1579 196.204C77.7998 192.163 76.2138 190.244 72.965 190.157C70.1767 190.099 67.3884 190.302 64.6 190.622C61.4024 191 58.2815 190.971 55.2374 189.779L55.3397 189.982C55.8513 189.75 56.3374 189.401 56.849 189.372C57.7699 189.285 58.7164 189.285 59.6373 189.401C62.1187 189.75 63.7814 185.679 66.2884 187.482C68.386 188.994 70.6116 188.412 72.7348 189.023C73.2464 189.168 73.8859 189.168 74.3975 188.965C75.0626 188.703 75.8557 188.354 76.1882 187.744C76.5208 187.133 76.3417 186.174 76.3673 185.447C75.8301 185.156 75.4975 184.836 75.1906 184.865C66.6465 185.476 58.1024 184.836 49.5584 185.243C48.6375 185.272 47.5375 185.127 46.7957 185.621C43.6236 187.744 40.2213 186.813 36.9725 186.639C29.1703 186.144 21.317 186.406 13.5659 184.923C12.6706 184.749 11.6474 184.807 10.8032 185.156C8.80787 185.97 7.65672 184.72 6.22418 182.946C9.8311 183.033 13.2078 183.208 16.5589 183.208C18.3752 183.208 20.1658 182.917 21.9821 182.539C25.4099 181.841 28.9913 182.19 32.5215 182.161C35.1307 182.132 37.7144 182.132 40.3237 182.219C42.5492 182.277 44.7748 182.51 47.0003 182.597C52.5514 182.801 58.1024 182.452 63.6791 183.266C66.1605 183.644 68.7697 182.626 71.379 182.772C76.3673 183.004 81.3812 183.237 86.3439 182.946C91.3322 182.626 96.3205 181.812 101.258 180.853C102.972 180.533 104.532 179.166 106.63 178.033C108.446 177.916 110.902 177.945 113.255 177.509C116.095 176.986 118.832 177.335 121.543 178.091C124.613 178.963 127.683 179.806 130.753 180.766C136.79 182.655 142.929 182.307 149.068 181.987C150.348 181.929 151.627 181.725 153.136 181.551C152.88 179.893 151.448 180.388 150.757 179.748C150.041 179.079 149.375 178.381 148.403 177.422C150.475 175.183 153.034 173.468 152.317 169.572C154.287 169.484 155.592 169.63 156.794 169.31C157.996 168.99 159.096 168.147 160.247 167.536C161.68 170.618 161.68 170.618 164.878 170.066C164.98 166.664 166.233 164.251 169.329 163.204C170.429 162.826 171.938 162.245 171.273 159.802C168.791 159.773 166.233 159.599 163.675 159.773C160.171 160.035 156.666 159.541 153.11 160.18C150.245 160.704 147.201 159.977 144.234 160.064C131.955 160.384 119.65 160.791 107.371 161.14C102.741 161.256 98.0856 161.256 93.4298 161.285C84.1183 161.372 74.8068 161.518 65.4954 161.518C60.0978 161.518 54.6746 160.907 49.3026 161.343C40.3748 162.07 31.4215 161.198 22.5193 161.78C19.5775 161.983 16.5589 161.78 13.745 163.379C11.8264 164.454 9.72878 163.844 7.73346 163.262L7.8102 163.408C7.91253 163.233 7.98927 163.03 8.14275 162.884C9.19157 161.867 11.6985 163.64 11.6729 161.082C11.6474 158.988 9.31949 159.512 8.06602 158.959C6.37767 158.203 4.48467 157.796 2.694 157.767C-4.72449 157.68 -12.0918 157.564 -19.5103 158.552C-25.0102 159.279 -30.6125 158.61 -35.9589 156.43L-35.831 156.633C-35.8054 156.43 -35.7031 156.197 -35.7542 156.023C-36.3426 153.929 -38.7984 155.15 -39.5146 153.29C-40.717 153.493 -41.9193 153.697 -43.1216 153.9L-43.0192 154.104C-42.9425 153.493 -42.8913 152.883 -42.789 152.039C-39.6426 151.545 -36.4961 151.371 -33.452 152.388C-28.3102 154.075 -23.2451 154.104 -18.0778 152.592C-14.5988 151.574 -11.0686 151.807 -7.64072 153.202L-7.76862 152.97C-8.33141 153.435 -8.89419 153.871 -9.94301 154.714C-7.6663 155.616 -5.92679 155.906 -4.08496 155.877C0.187066 155.79 4.45909 155.761 8.73112 155.79C14.3078 155.79 19.8589 155.906 25.4355 155.877C29.5029 155.877 33.5959 155.703 37.6632 155.674C38.9679 155.645 40.2469 155.79 41.5515 155.79C49.891 155.732 58.2048 156.197 66.5442 155.819C68.7441 155.703 70.9697 156.168 73.1953 156.372C72.4022 156.953 71.5836 157.506 70.765 158.116C71.6348 159.017 72.5301 158.872 73.2976 158.291C74.2441 157.564 73.579 156.982 72.9906 156.488C76.1371 155.267 79.3091 155.441 82.43 156.459C83.1974 156.691 83.7858 157.593 84.4509 158.203C82.4811 157.535 80.4858 155.965 78.1579 158.669C80.537 159.046 82.4556 158.843 84.323 158C90.974 159.076 97.6507 158.349 104.327 158.436C107.116 158.465 109.904 158.232 112.667 158.407C114.381 158.523 115.941 158.61 117.476 157.447C118.013 157.04 118.985 156.924 119.574 157.157C125.201 159.454 131.085 158.523 136.764 158.174C142.903 157.796 149.017 158.203 155.131 157.622C155.873 157.564 156.666 157.825 157.357 157.593C161.322 156.313 165.364 155.906 169.482 155.877C171.094 155.848 172.296 154.947 173.268 153.028C172.577 152.476 171.912 151.661 171.119 151.371C168.996 150.586 166.847 149.946 164.673 149.452C162.575 148.987 160.964 148.114 159.659 145.934C157.638 142.532 154.287 140.875 151.192 139.014C150.041 138.316 148.659 138.112 147.61 137.298C146.792 136.688 146.306 135.467 145.462 134.187C147.789 133.402 149.452 133.46 151.141 134.827C152.164 135.67 153.341 136.368 154.543 136.833C155.515 137.211 156.717 136.571 156.666 135.467C156.564 133.46 157.152 131.919 157.92 130.233C158.175 129.652 157.459 128.489 157.178 127.587C158.252 126.977 159.813 127.907 160.503 125.93C160.785 125.174 161.833 124.563 162.626 124.273C165.236 123.313 166.003 121.278 165.722 118.458C163.88 115.87 161.603 115.899 159.096 116.946C155.438 115.434 153.187 112.148 151.422 108.427C149.836 105.054 150.168 101.478 151.678 97.6108C154.799 95.5755 158.508 95.8082 162.166 95.8663C163.829 95.8954 165.645 96.3897 167.078 95.75C171.247 93.9183 175.366 94.2672 179.561 95.0813C180.917 95.3429 182.145 95.1685 183.501 93.2205C182.861 92.6099 182.068 91.8249 180.891 90.6909C182.068 90.3711 182.605 90.0222 182.938 90.1676C183.552 90.4874 184.217 90.9817 184.575 91.6213C185.061 92.4645 185.266 93.5112 185.624 94.6161C186.877 94.7905 187.977 94.8487 189.026 95.1103C189.87 95.3139 190.97 95.5465 191.456 96.2152C193.272 98.7157 195.217 98.3377 197.34 96.9712C196.982 96.2443 196.675 95.6046 196.291 94.7905C204.17 96.7676 204.17 96.7676 210.258 95.75C210.284 93.9764 208.851 93.7147 207.982 93.4821C203.275 92.261 198.542 91.2724 193.81 90.2257C191.84 91.3306 190.689 89.4989 189.384 88.5103C188.949 88.1905 189.052 86.9984 188.898 86.2134L188.668 86.3587C189.589 87.0565 190.407 88.0742 191.405 88.3649C193.938 89.0918 196.496 89.7896 199.079 89.9641C201.51 90.1094 203.786 90.4583 205.961 91.7667C207.675 92.7843 209.619 92.7843 211.435 92.2028C214.07 91.3596 216.577 91.7376 219.16 92.4064C221.335 92.9879 223.509 93.2786 225.786 93.1332C229.316 92.9297 232.846 93.4821 236.376 93.4531C239.139 93.4531 241.953 93.2205 244.69 92.7843C247.453 92.3482 250.165 91.505 252.876 90.8072C254.718 90.342 255.409 88.9464 254.667 87.0856C253.695 84.6724 252.646 82.2882 251.572 79.8168C250.139 79.7587 248.655 79.7878 247.172 79.6133C241.39 78.9737 235.686 79.1772 229.93 80.1948C225.377 81.0089 220.67 80.7763 216.04 81.0089L216.142 81.1834C217.933 79.4389 219.698 77.6653 222.409 78.6248C222.639 77.8397 222.87 77.3164 222.972 76.7349C223.049 76.3569 223.023 75.9208 223.049 75.2521C224.149 75.4556 225.223 75.6882 226.298 75.8045C228.881 76.0661 231.49 76.7058 234.023 76.386C237.937 75.8626 241.748 75.9208 245.611 76.5604C247.069 76.793 248.681 77.1419 250.037 76.6477C252.851 75.63 255.537 76.3278 258.299 76.6767C257.583 77.3455 256.278 77.0838 255.818 78.7992C261.292 79.2063 266.485 80.7182 271.857 79.4679C271.039 76.4732 271.039 76.3569 269.171 76.386C265.488 76.4441 261.804 76.6477 258.12 76.764C261.932 73.9728 266.05 72.3736 270.604 73.4785C274.108 74.3216 277.562 74.1763 281.092 73.9437C282.346 73.8564 283.599 74.1181 284.878 74.2053L284.776 73.9728C284.673 74.5543 284.571 75.1357 284.418 75.9499C289.534 76.0371 294.522 76.1534 299.51 76.1825C300.431 76.1825 301.327 75.8045 302.248 75.63C308.285 74.4961 314.322 73.3331 320.359 72.3155C322.354 71.9666 324.426 72.0247 326.575 70.1348C325.526 69.8732 324.887 69.5533 324.273 69.6115C321.689 69.8441 319.105 70.2802 316.496 70.5128C313.759 70.7745 311.047 71.3851 308.515 69.2335C307.62 68.4776 306.008 68.652 304.729 68.5648C301.02 68.3322 297.31 68.3613 293.627 68.0124C286.976 67.4018 280.325 66.6167 273.674 65.8899C264.976 64.9595 256.278 64.0581 247.581 63.0405C239.83 62.1101 232.079 61.0634 224.353 59.9585C220.312 59.4061 216.295 58.6502 212.254 57.9814L212.33 58.1268C212.202 56.8184 214.658 57.1673 213.763 55.2775C213.737 55.1902 214.505 54.3761 214.991 54.2598C215.681 54.0854 216.474 54.1145 217.165 54.2598C223.56 55.5391 229.956 56.8766 236.351 58.214C236.888 58.3303 237.553 58.3013 237.962 58.6211C241.902 61.5868 246.481 61.1506 250.804 61.6158C257.634 62.3718 264.49 62.6044 271.32 63.244C276.129 63.6802 280.887 64.4943 285.697 65.0176C289.713 65.4247 293.755 66.0643 297.771 65.8317C303.194 65.5119 308.515 66.6749 313.887 66.704C319.438 66.7621 325.015 67.2564 330.54 66.9657C338.112 66.5877 345.658 65.6282 353.23 64.9304C355.814 64.6978 358.372 63.9709 360.956 64.6978L360.905 64.4652C359.395 65.3374 357.861 66.2388 355.507 67.6053C359.268 68.3031 361.647 68.0705 363.233 65.0176L363.105 65.163C364.998 66.7621 367.019 67.2855 369.398 66.9075C373.081 66.326 376.791 66.0643 380.474 65.7154C388.072 64.9595 395.644 64.1454 403.241 63.5057C405.825 63.3022 408.434 63.622 411.018 63.5929C413.627 63.5639 416.236 63.5929 418.82 63.3022C424.192 62.6916 429.539 61.8194 434.885 61.1506C444.299 59.9586 453.738 58.97 463.126 57.6616C469.368 56.7894 475.661 56.3242 481.673 53.7074C483.028 53.1259 483.566 50.6545 484.921 51.4686C486.814 52.6025 488.093 50.7708 489.705 50.9453C491.189 51.0906 492.672 50.9162 494.156 50.7999C496.561 50.6254 498.965 50.5091 501.344 50.1602C506.691 49.3752 512.012 48.4448 517.358 47.6307C522.142 46.9038 526.951 46.1479 531.735 45.5664C535.418 45.1012 539.102 44.6941 542.811 44.4615C549.283 44.0545 555.755 42.8915 562.176 41.5831C566.167 40.7399 570.336 40.5655 574.071 38.4139C574.532 38.1522 575.171 38.1232 575.734 38.1522C581.362 38.3267 586.887 37.2218 592.362 36.0879C598.552 34.8086 604.947 34.7795 610.985 32.2209C613.031 31.3486 615.359 31.2905 617.559 30.9125C628.226 29.1389 638.919 27.4526 649.586 25.5627C656.186 24.3706 662.837 23.2076 669.309 21.3177C672.507 20.3873 675.602 18.8173 678.953 18.2939C679.849 18.1486 680.795 18.2358 681.716 18.2358L681.639 18.0613C681.256 19.8931 679.797 20.0094 678.595 20.3292C673.735 21.6957 668.874 22.9459 663.988 24.2543C663.528 24.3706 663.119 24.7195 662.53 25.0684C667.007 28.2376 671.688 26.7257 676.216 26.7839C678.621 26.8129 681 26.6385 683.404 26.5222C684.709 26.464 685.988 26.3187 687.293 26.2605C689.467 26.1442 691.769 24.109 693.714 25.5336C695.786 27.0455 698.241 25.1847 700.006 27.1618C705.327 27.4235 710.699 28.9063 715.841 25.9988C720.036 25.6499 724.257 24.8358 728.325 26.9583L728.35 26.8129C727.48 27.5398 726.764 28.6737 725.46 28.3248C720.446 26.9292 715.534 28.005 710.597 29.0226C706.632 29.8658 702.616 30.5636 698.625 31.2324C697.013 31.494 695.53 31.6976 693.867 30.5636C691.386 28.9063 688.444 29.7495 685.732 30.1566C684.428 30.331 682.688 29.5169 681.793 31.5231C683.814 33.5002 686.755 29.8658 689.007 33.3258C686.628 33.3839 684.709 33.2676 682.816 33.4711C680.795 33.6747 678.825 34.3434 676.805 34.4888C675.986 34.5469 675.142 33.7619 674.297 33.3839C673.325 32.9769 672.507 33.3258 671.791 34.1108L671.944 33.9945C671.202 33.9945 670.384 33.791 669.719 34.0526C662.505 36.7275 654.907 37.6289 647.617 39.984C646.235 40.4201 644.751 40.5073 642.807 40.8562C644.931 42.717 647.003 42.8042 648.87 42.3972C653.986 41.2923 659.281 41.9029 664.372 40.3038C666.086 39.7804 668.107 40.013 669.898 40.4201C672.507 41.0016 675.065 41.0307 677.674 40.8853C683.456 40.5364 689.237 40.3619 694.839 38.5011C695.018 38.443 695.197 38.3848 695.376 38.3558C703.127 38.065 710.239 34.7214 717.529 32.3372C720.394 31.4068 723.26 30.5927 726.227 30.1566C729.143 29.7204 732.187 29.2843 734.745 27.3944C735.692 26.6966 734.873 25.9988 734.311 25.4755L734.387 25.6209C735.18 23.731 736.459 25.0975 737.534 25.0103C740.066 27.3363 742.676 28.79 746.436 25.9407C744.799 25.5627 743.801 25.1557 742.803 25.1266C740.987 25.0394 739.171 25.1266 737.355 25.1557C740.552 23.5274 743.75 22.1318 747.408 22.4226C748.815 22.5389 750.273 21.5503 751.731 21.3177C753.317 21.0561 754.827 19.7477 756.566 20.9107C756.924 21.1724 757.717 20.9979 758.152 20.7072C762.271 18.0904 766.875 17.1019 771.326 15.5609C772.759 15.0666 774.089 14.2816 775.522 13.7873C776.135 13.5547 776.877 13.7291 777.901 13.7001C777.261 15.6481 776.724 17.1309 776.263 18.6719C776.033 19.4569 775.956 20.3292 775.803 21.1142C777.108 23.1204 778.77 22.8296 780.382 22.2772C787.698 19.7768 794.963 17.1891 802.075 13.9908C809.826 10.4727 817.398 6.43129 825.507 3.93083C826.837 3.52378 827.911 2.07002 829.114 1.08147L828.96 1.1687C833.079 -1.15731 836.967 -4.06482 841.469 -5.51858C843.234 -6.10008 844.053 -7.81551 845.102 -9.26927C845.511 -9.82169 845.665 -9.79262 847.455 -9.50187C845.358 -3.94852 841.418 -0.837484 836.635 1.37222C834.102 2.5643 831.749 4.25066 828.986 5.90794C832.67 6.98372 832.67 6.98372 836.225 4.51233C836.609 4.77401 837.095 5.03568 837.504 5.41366C839.832 7.56522 839.832 7.56522 842.186 5.82071C842.697 5.44273 843.26 5.12291 844.053 5.09383C843.158 7.82689 840.472 8.37932 839.193 10.589C837.888 12.8569 836.481 15.0084 835.151 17.1891C831.902 18.4393 828.679 19.1371 825.302 19.0208C824.228 18.9917 823.102 19.4279 822.079 19.864C820.007 20.7362 817.986 21.7539 815.888 22.7424C814.942 24.4579 817.832 24.4288 817.142 26.3187C816.835 27.1909 817.602 28.5574 817.935 29.9821C816.937 30.2147 816.221 30.3892 815.53 30.5636C815.709 29.9821 816.067 29.4006 816.016 28.8482C815.914 27.7143 815.249 27.0165 814.226 27.1618C813.791 27.22 813.407 27.7724 812.998 28.0922C813.407 28.6737 813.74 29.3715 814.251 29.8077C814.635 30.1566 815.249 30.2438 815.735 30.4182C815.428 30.6218 815.147 30.9997 814.814 31.0288C811.514 31.465 811.514 31.465 809.468 34.3434C806.961 32.1628 804.223 31.9883 801.128 32.657C797.521 33.413 794.068 35.2738 790.256 34.8958C790.077 34.8667 789.821 34.8958 789.719 35.0121C787.238 37.8615 784.091 37.2218 781.021 37.5998C778.412 37.9196 775.522 38.6174 773.629 41.3214L773.654 41.2923C770.687 41.932 767.566 42.0192 765.059 44.3452L765.264 44.1998C762.629 43.9091 761.017 45.7699 759.406 47.369C759.815 50.7417 762.68 48.5902 763.805 50.4219C762.885 51.6431 762.015 52.8351 761.119 53.9981C760.992 54.0854 760.838 54.2017 760.71 54.2889C760.812 54.1435 760.94 53.9982 761.043 53.8528C763.447 55.0739 765.57 54.2017 767.745 52.8933C769.024 52.1374 770.457 51.7303 771.838 51.2069C773.936 50.3928 774.14 50.1312 775.112 46.3223C777.517 46.206 780.075 45.9153 782.607 46.0316C785.984 46.1769 789.233 45.7699 792.456 44.5487C794.554 43.7637 796.779 43.4439 798.954 42.9496C803.84 41.8157 808.7 40.4782 813.612 39.6351C816.298 39.1699 819.035 38.7628 821.849 39.7804C823.716 40.4492 825.891 40.2456 827.911 40.1584C829.37 40.1003 831.928 40.7108 830.316 37.2218C830.93 36.902 831.595 36.2333 832.158 36.3205C833.181 36.4659 834.153 37.0764 835.151 37.4835C835.074 37.6579 835.023 37.8615 834.921 38.0359C834.563 38.6756 833.897 39.4025 834.793 40.013C835.125 40.2456 836.021 40.1003 836.2 39.7804C836.737 38.9082 836.072 38.3558 835.458 37.8905C835.304 37.7742 835.151 37.6579 834.997 37.5416C836.2 37.0474 837.402 36.146 838.579 36.1751C840.114 36.2042 841.444 35.9425 842.876 35.2738C844.59 34.4597 846.023 34.6051 846.509 37.3672C846.637 38.1522 848.172 38.9082 849.169 39.1408C850.781 39.4897 852.444 39.4025 854.106 39.4897V39.5188C851.651 41.8157 848.734 41.554 845.844 41.2923C842.109 40.9725 838.579 42.0483 835.151 43.502C833.309 44.2871 833.181 45.1884 834.179 47.8924L834.102 47.7179C833.488 49.4334 832.9 51.1488 832.158 53.2713C832.951 53.6202 833.693 54.1726 834.486 54.2308C836.302 54.4052 838.144 54.3761 839.96 54.4052L839.883 54.2889C838.195 56.9347 835.407 56.7312 833.028 57.6325C832.183 57.9524 831.186 57.9524 830.444 58.4757C829.958 58.7955 829.83 59.7841 829.421 60.7145C834.102 62.7498 838.681 62.7788 843.234 62.2555C845.997 61.9357 848.683 61.674 851.446 62.459C852.623 62.8079 853.953 62.3427 855.206 62.4009C856.102 62.4299 856.997 62.7207 857.892 62.8661L857.841 62.6916C856.818 63.1568 855.82 63.6511 854.925 64.0581C854.592 65.8608 855.616 66.2679 856.46 66.2388C859.197 66.1516 861.985 66.0352 864.697 65.541C867.613 65.0176 870.478 64.0581 873.446 64.9595L873.394 64.8141C872.32 67.0529 870.12 67.4599 868.56 67.1401C864.518 66.2678 860.962 68.2159 857.227 68.9137C855.462 69.2335 853.365 69.1463 852.981 72.0247C852.955 72.2573 852.495 72.6062 852.213 72.6353C849.374 72.6934 847.89 75.601 845.588 76.1534C845.332 77.7525 846.1 78.0723 846.79 78.2177C849.297 78.8283 851.958 78.712 854.695 80.253C851.83 83.1314 847.916 81.2997 845.332 83.5966C845.076 84.7887 845.588 85.4283 846.381 85.4865C847.634 85.6319 848.99 85.8354 850.141 85.4283C851.599 84.905 852.086 86.1552 853.185 86.5913C852.904 88.1905 852.597 89.6152 852.392 91.0398C852.239 92.0575 852.034 93.1042 852.085 94.1509C852.162 96.0408 853.851 97.1456 855.309 96.2152C856.23 95.6337 857.023 94.7614 857.892 93.9764C859.657 94.2672 860.834 95.6628 862.062 96.913C863.264 98.1342 864.467 99.3844 865.771 100.722C864.646 103.135 862.523 102.873 860.911 103.571C859.913 104.007 858.685 103.746 857.611 103.978C856.716 104.182 855.334 104.385 855.104 105.054C854.055 107.991 851.395 107.554 849.655 108.921C849.451 109.095 849.451 109.648 849.348 110.055C850.218 111.16 851.344 110.695 852.392 110.666L852.265 110.462C851.292 111.392 850.627 112.323 851.523 113.835C851.753 114.213 851.548 114.94 851.548 115.521L851.702 115.405C850.372 115.318 849.195 115.056 848.658 113.311C848.197 111.858 847.046 111.596 845.946 112.032C842.339 113.399 839.397 115.55 838.553 120.202C838.374 121.191 837.914 122.092 837.607 122.964C838.067 123.371 838.4 123.895 838.604 123.837C843.183 122.674 847.609 124.505 852.111 124.767L852.009 124.563C851.932 125.116 851.855 125.668 851.779 126.192L852.034 126.017C851.446 125.93 850.704 125.61 850.653 126.657C850.653 126.889 851.395 127.18 851.779 127.442L851.599 127.238C851.318 127.471 851.062 127.878 850.781 127.878C850.244 127.936 844.232 128.605 843.618 128.808C841.7 129.419 839.73 129.826 837.914 130.64C836.916 131.076 836.942 132.21 837.888 133.024L837.76 132.85C837.99 133.606 838.221 134.391 838.451 135.089C837.146 136.397 835.944 137.618 834.716 138.839L834.818 138.81C833.079 139.101 831.339 139.334 829.625 139.741C829.318 139.799 829.088 140.555 828.986 141.02C828.96 141.165 829.446 141.514 829.753 141.66C830.06 141.834 830.444 141.863 830.777 141.95L830.623 141.747C831.084 143.23 832.26 143.782 833.309 143.317C837.325 141.543 841.674 141.776 845.741 139.886C849.451 138.171 853.62 137.676 857.841 136.601C857.739 137.415 857.637 138.112 857.534 138.927C859.376 140.06 861.192 139.159 862.881 138.519C865.695 137.444 868.457 136.135 871.169 134.711C873.062 133.693 874.853 132.908 877.053 133.286C878.28 133.489 879.636 133.082 880.89 132.734C884.855 131.629 888.82 130.931 892.913 130.611C895.292 130.437 897.62 129.448 899.973 128.808C902.506 128.111 904.987 127.616 907.647 127.529C911.28 127.384 914.784 126.104 918.673 124.418C917.675 123.837 917.24 123.546 916.78 123.284L916.882 123.429C916.703 121.859 917.291 120.929 918.698 121.074C919.977 121.22 921.231 121.627 922.51 121.947L922.433 121.772C922.638 122.528 922.868 123.313 923.098 124.156C923.763 124.011 924.582 124.098 924.761 123.749C926.322 120.9 928.828 120.58 931.387 120.231C932.103 120.144 932.998 120.173 933.51 119.708C936.145 117.469 938.78 117.207 941.798 118.748C942.514 119.097 943.717 118.196 945.431 117.614C943.717 116.8 942.77 116.335 941.747 115.841C941.952 115.608 942.131 115.23 942.31 115.23C944.126 115.085 945.942 115.027 947.758 114.94C948.986 117.091 948.986 117.091 951.058 115.579C949.677 115.376 948.628 115.23 947.579 115.085C950.496 112.207 953.796 110.636 957.735 110.985V110.869C957.914 111.392 957.965 112.265 958.272 112.381C958.937 112.672 959.705 112.614 960.523 112.672C961.444 111.363 962.365 110.055 963.286 108.717C961.214 107.962 959.295 107.264 957.402 106.537L957.505 106.74C960.114 105.17 962.8 105.403 965.563 106.217C965.742 107.118 965.742 108.136 966.177 108.776C966.535 109.299 967.43 109.386 968.3 109.764C966.995 110.142 965.946 110.346 965 110.811C964.616 111.014 964.207 111.974 964.335 112.352C964.565 112.992 965.205 113.864 965.691 113.864C967.891 113.806 970.065 113.515 972.265 113.282C972.7 113.893 973.109 114.474 973.774 115.405C974.388 114.387 974.874 113.602 975.232 113.05C983.495 112.439 991.63 111.858 999.739 111.247C1000.48 111.189 1001.43 111.189 1001.86 110.695C1004.68 107.438 1008.31 108.136 1011.76 107.845C1013.02 107.729 1014.27 107.584 1016.09 107.38C1015.19 108.863 1014.68 109.851 1014.06 110.724C1013.45 111.596 1012.73 112.381 1011.81 113.515C1014.76 114.329 1017.49 114.184 1020.15 113.689C1023.4 113.108 1026.39 113.399 1029.34 115.027L1029.21 114.823C1029.36 115.318 1029.49 116.248 1029.72 116.277C1032.28 116.713 1034.86 117.12 1037.42 117.353C1042.77 117.876 1048.09 118.603 1053.18 120.289C1054.12 123.052 1054.12 123.052 1057.42 124.476C1055.86 124.767 1054.71 124.68 1053.84 125.203C1052.41 126.104 1051.08 125.988 1049.57 125.785C1044.43 125.116 1039.26 124.476 1034.07 124.098C1032.46 123.982 1030.67 124.273 1029.23 125.058C1026.8 126.366 1024.27 126.337 1021.76 126.599C1017.01 127.093 1012.2 127.355 1007.44 127.733L1007.52 127.878C1007.57 127.674 1007.59 127.326 1007.69 127.296C1009.64 126.802 1011.71 126.715 1013.48 125.785C1015.39 124.767 1017.19 123.866 1019.31 124.185C1021.43 124.505 1022.66 123.022 1023.96 121.772C1023.71 121.162 1023.66 120.958 1023.53 120.813C1023.43 120.667 1023.25 120.464 1023.09 120.464C1021.05 120.464 1019 120.377 1016.96 120.551C1011.02 120.987 1005.11 121.54 999.176 122.034C998.23 122.761 998.639 125.203 996.644 124.592C996.465 123.866 996.311 123.139 996.055 122.063C994.597 122.063 993.114 122.005 991.655 122.063C988.33 122.237 984.979 122.354 981.679 122.732C976.332 123.313 970.96 123.604 965.793 125.465C965.179 125.697 964.667 126.279 963.542 127.151C965.767 128.169 967.967 127.064 969.195 129.012L969.093 128.808C968.121 130.815 965.64 128.576 964.77 131.193C964.847 131.425 965.051 131.978 965.256 132.588C965.051 132.763 964.846 133.112 964.565 133.199C963.516 133.577 962.288 133.577 961.393 134.216C959.756 135.379 957.991 135.757 956.123 136.106C953.744 136.571 951.289 137.008 949.14 138.171C946.71 139.479 944.228 140.031 941.645 140.467C935.403 141.543 929.033 142.008 922.945 143.782C915.347 145.963 907.596 146.951 899.973 148.812C898.72 149.132 897.364 149.51 896.315 150.324C894.013 152.098 891.352 152.737 888.871 152.563C884.676 152.272 880.89 154.336 876.822 154.482C875.85 154.511 874.929 155.441 873.164 156.401C876.592 156.924 879.048 157.593 881.401 155.703C881.836 155.354 882.731 155.79 883.729 155.877C881.913 158.116 879.764 158.349 877.846 158.814C874.597 159.599 871.246 159.802 867.971 160.442C864.876 161.053 861.806 161.983 858.737 162.681C856.562 163.175 854.337 163.873 852.137 163.844C847.865 163.815 844.079 166.577 839.909 165.821C839.346 167.449 838.988 168.583 838.579 169.717C838.246 170.618 837.888 171.491 837.555 172.392C839.423 174.195 841.009 172.247 842.621 172.654C842.748 172.944 843.081 173.293 843.03 173.555C842.339 176.811 841.597 180.068 840.932 182.975C840.242 183.411 839.883 183.789 839.602 183.76C836.123 183.092 835.586 183.295 834.332 186.348C833.948 187.278 834 188.412 833.642 189.372C833.335 190.215 832.721 190.913 832.209 191.756C833.949 193.5 835.867 193.82 837.632 193.704C840.037 193.53 841.904 195.041 844.002 195.739C845.051 196.088 845.767 197.687 846.841 198.996C854.03 196.699 861.55 195.449 868.483 191.669C869.634 191.029 870.99 190.942 872.218 190.477C873.267 190.07 874.725 189.808 875.16 188.936C877.308 184.691 881.248 184.72 884.625 183.441C887.234 182.452 889.894 181.609 892.555 180.737C895.369 179.806 898.003 178.149 901.175 178.701C902.531 178.934 904.117 178.236 905.447 177.567C908.517 176.026 911.817 175.939 915.04 175.125C911.945 177.916 908.261 179.108 904.859 180.998C902.787 182.132 902.736 182.045 900.51 185.301C901.38 185.418 902.071 185.737 902.685 185.592C908.159 184.429 913.633 183.15 919.108 182.016C920.361 181.754 921.666 181.929 922.945 181.9L922.868 181.754C922.101 182.248 921.359 182.714 920.591 183.208C920.77 183.76 920.975 184.313 921.282 185.301C919.696 185.011 918.315 184.778 916.626 184.458C915.45 186.232 913.685 187.046 911.587 187.511C905.217 188.965 898.899 190.68 892.529 192.279C892.427 192.163 892.222 192.047 892.171 191.872C892.017 191.349 891.89 190.796 891.762 190.273C891.301 190.477 890.585 190.535 890.457 190.884C889.997 192.192 889.357 193.21 888.027 192.977C883.959 192.221 880.532 194.518 876.95 195.972C874.162 197.106 871.501 198.676 868.739 200.013C867.357 200.682 865.95 201.264 864.467 200.304C863.06 199.403 861.397 199.345 860.169 200.188C857.253 202.165 853.671 201.7 850.806 203.851C850.013 204.462 848.683 204.142 847.609 204.258C845.562 204.462 845.025 205.392 845.409 208.096C845.511 208.91 845.562 209.724 845.639 210.568C842.876 212.864 840.216 215.103 837.581 217.342L837.709 217.197C836.839 217.924 835.995 218.738 835.074 219.377C833.386 220.569 831.646 221.645 828.832 223.506C831.493 223.593 832.977 223.419 834.383 223.768C835.97 224.175 837.428 225.251 839.014 225.745C840.6 226.239 842.262 226.472 843.9 226.675C845.537 226.879 847.276 227.315 848.811 226.879C851.344 226.21 853.902 226.384 856.409 225.919L856.332 225.745C855.948 226.181 855.564 226.588 855.206 227.053C853.569 229.147 853.774 230.019 856.358 231.618C855.104 233.304 852.444 232.287 851.472 234.932C852.904 237.055 856.23 233.566 857.048 237.491C856.281 237.898 855.462 238.712 854.669 238.683C852.213 238.538 850.372 239.526 848.734 241.562C848.044 242.434 846.816 242.783 846.048 243.219C844.667 243.684 847.225 244.876 845.486 245.167C843.516 245.516 843.516 245.516 842.979 248.394C844.334 248.859 845.69 249.354 847.097 249.848C847.711 251.389 846.841 253.686 848.965 254.704C846.969 255.401 845.665 256.797 844.872 258.949C845.46 260.431 846.048 261.943 846.713 263.63C848.581 263.979 850.372 264.298 852.188 264.647C854.055 268.049 850.346 269.997 851.088 272.614C846.458 275.405 846.023 275.987 846.33 278.836C848.018 279.359 849.067 277.876 850.397 277.208C853.364 275.725 856.46 275.056 859.606 276.394C860.399 276.713 861.039 277.528 861.627 278.051C861.243 280.464 859.939 281.685 858.609 282.848C857.33 283.953 856.792 285.523 856.511 287.18C856.434 287.704 856.69 288.547 857.023 288.867C857.355 289.158 858.174 289.187 858.557 288.954C859.35 288.431 859.99 287.617 860.706 286.89C861.397 288.867 860.936 290.699 859.99 292.123C862.139 292.647 864.109 293.112 866.078 293.577L865.95 293.344C865.439 294.071 864.953 294.798 864.441 295.525H864.16L864.39 295.38C866.59 296.572 868.867 295.612 871.092 295.67L870.99 295.467C869.583 298.316 867.204 299.305 864.825 298.142C862.369 296.979 860.476 298.025 858.455 298.869C856.741 299.596 855.13 300.7 853.492 301.718C852.06 302.619 850.679 303.637 849.374 304.567C849.476 306.457 850.704 306.341 851.42 306.312C852.699 306.254 853.979 305.905 855.181 305.381C859.76 303.433 864.595 303.463 869.353 302.881C871.067 302.678 872.908 303.782 874.75 303.259C876.336 302.794 878.025 302.416 879.432 301.544C880.966 300.584 882.501 300.264 884.215 300.177C887.362 299.973 890.508 299.596 893.629 299.072C895.599 298.752 897.748 298.578 898.592 295.816C898.72 295.38 899.461 295.031 899.973 294.914C903.606 294.158 906.752 291.542 910.538 291.251C910.871 291.222 911.178 290.844 911.561 290.582C911.254 288.954 909.847 289.594 909.054 289.041L909.131 289.187C911.792 287.326 914.836 287.965 917.701 287.588C923.763 286.802 929.826 286.308 935.914 285.988C939.214 285.814 942.565 286.25 945.891 286.483C946.121 286.512 946.326 286.948 946.838 287.588C945.252 288.082 943.793 288.256 942.565 288.954C941.261 289.71 940.186 290.931 939.368 291.629C932.973 291.28 927.345 292.618 921.666 293.49C921.384 293.548 921.18 294.362 920.95 294.827C920.259 294.682 919.594 294.536 918.903 294.42C918.903 294.624 918.903 294.827 918.878 295.06C919.517 294.943 920.182 294.798 920.822 294.682C925.605 295.176 930.415 294.798 935.173 294.827C942.003 294.856 948.807 294.798 955.637 295.089C962.467 295.409 969.323 295.38 976.179 295.409C982.216 295.409 987.895 296.892 992.986 300.177C993.83 302.823 992.909 304.887 991.834 306.661C992.934 307.766 993.702 308.58 994.495 309.365L994.725 309.19C993.625 309.19 992.474 309.394 991.425 309.161C990.402 308.9 989.507 308.056 988.483 307.707C987.076 307.242 985.593 306.981 983.956 306.603C982.293 309.365 979.965 310.266 977.304 310.615C974.567 310.964 971.856 311.72 969.016 312.301C968.044 309.539 966.381 308.027 964.028 308.144C956.609 308.463 949.191 308.841 941.772 309.394C939.393 309.568 937.04 310.382 934.687 310.993C931.233 311.894 927.831 312.854 924.224 312.476C922.766 312.33 921.257 312.65 919.798 312.737C918.698 312.796 917.573 313.057 916.498 312.854C914.503 312.447 912.508 311.226 910.564 311.371C908.747 311.487 906.957 311.982 905.089 311.691L905.217 311.807C905.447 311.051 905.678 310.295 906.036 309.132C901.227 307.853 896.903 310.004 892.503 311.167L892.273 311.284L892.427 310.993C893.859 311.458 895.241 312.069 896.699 312.36C897.875 312.592 899.129 312.418 900.382 312.796C897.671 314.075 894.908 314.918 891.966 314.86C890.559 313.61 889.229 311.865 887.234 313.697C886.85 314.133 886.466 314.569 886.083 314.976C885.699 315.063 885.29 315.151 884.906 315.238C885.034 315.325 885.213 315.558 885.264 315.5C885.52 315.296 885.776 315.063 886.006 314.831C886.492 314.569 886.978 314.308 887.464 314.046C889.05 314.278 890.611 314.482 892.197 314.715C888.82 317.331 884.931 317.535 881.043 317.709L880.89 317.389C881.069 316.837 881.222 316.285 881.401 315.732C879.611 315.471 877.846 315.558 876.26 316.692C875.211 317.419 875.39 318.291 876.157 319.163L876.08 319.018C874.776 320.297 873.241 320.849 871.527 320.849C867.127 320.82 863.418 323.117 859.657 325.298C859.223 325.531 858.992 326.199 858.66 326.694L858.864 326.548C856.23 325.036 853.595 324.862 850.883 326.374C848.376 327.769 845.844 329.165 843.234 330.27C836.251 333.206 829.395 336.463 822.309 339.08C816.272 341.318 810.235 343.412 804.044 344.953C803.686 345.04 803.251 345.04 802.97 345.273C799.44 348.151 795.219 349.169 791.279 350.971C791.203 351 791.203 351.291 791.1 351.873C795.398 351.262 799.516 350.361 803.558 348.965C804.786 348.529 806.04 347.802 807.242 347.889C809.416 348.035 811.156 346.406 813.1 346.319C815.198 346.232 817.167 345.854 819.086 345.069C821.337 344.168 823.46 342.83 825.737 342.191C828.091 341.522 830.418 341.057 832.388 339.254C832.823 338.847 833.821 339.196 834.562 339.196C834.588 339.312 834.614 339.428 834.614 339.545C834.562 339.428 834.511 339.283 834.435 339.167C836.021 338.382 837.556 337.509 839.193 336.87C839.474 336.754 840.011 337.451 840.421 337.771C840.293 338.004 840.139 338.236 840.011 338.469C840.241 338.411 840.497 338.353 840.727 338.294C842.39 339.05 843.951 338.672 845.613 338.12C846.765 337.742 848.069 336.899 849.502 338.411C847.353 339.806 845.307 341.144 843.26 342.481L843.388 342.743C843.567 341.144 842.953 340.184 841.546 340.562C837.939 341.493 834.383 342.569 830.93 343.586C829.6 344.953 830.06 347.569 828.014 348.064C827.707 348.151 827.349 347.918 826.837 347.802C827.272 347.046 827.656 346.377 828.014 345.738C828.27 345.418 828.525 345.098 828.781 344.778C828.372 344.836 827.963 344.865 827.528 344.924C823.384 346.058 819.214 347.162 815.07 348.325C812.358 349.081 809.672 349.954 806.986 350.768C804.658 351.466 802.049 351.669 800.028 353.036C796.165 355.623 792.098 356.495 787.775 356.699C787.135 356.728 786.547 357.571 785.882 357.833C785.217 358.095 784.117 358.444 783.835 358.095C781.635 355.42 778.847 357.339 776.391 356.844C774.754 356.496 772.861 357.746 771.096 358.327C769.305 358.88 767.54 359.461 765.775 360.072C764.905 360.392 763.959 360.653 763.217 361.206C760.429 363.183 760.429 363.125 758.28 363.154C757.026 363.154 755.466 363.125 754.622 363.91C752.985 365.451 751.347 366.468 749.199 366.41C748.661 366.41 748.099 366.701 747.613 366.992C744.159 368.969 740.706 370.975 737.073 373.039C736.331 374.813 735.487 376.848 734.669 378.796C732.392 378.302 734.055 376.499 733.364 375.627C730.269 374.638 727.634 375.423 724.436 378.302L724.615 378.156C724.078 378.127 723.157 377.866 723.081 378.069C722.185 380.279 720.369 380.104 718.732 380.599C715.099 381.704 711.262 382.256 708.141 385.018L708.32 384.902C706.172 384.698 704.381 386.007 702.59 386.966C699.776 388.449 698.293 392.316 698.804 395.98C699.188 398.829 697.858 401.475 695.607 402.434C693.023 403.539 690.465 404.673 687.83 405.807C687.881 407.493 687.907 408.918 687.932 410.197C688.367 410.575 688.648 411.04 688.93 411.011C691.207 410.837 693.509 411.767 695.709 409.674C697.218 408.249 699.239 409.674 701.081 410.75C698.062 414.529 694.814 416.855 690.081 416.972C685.886 417.088 681.716 418.6 677.572 419.501C677.93 423.63 678.851 424.996 681.332 424.27C684.735 423.252 688.393 423.833 691.641 421.914C692.434 421.449 693.586 421.071 694.327 421.391C697.499 422.699 700.134 421.129 702.872 419.821C704.048 419.269 705.302 418.949 706.453 418.542C707.476 419.966 706.581 420.81 705.967 421.362C704.355 422.787 702.539 423.892 700.953 425.316C699.495 426.625 698.139 428.049 697.986 430.433C697.934 431.102 697.32 431.916 696.783 432.294C693.176 434.882 689.493 437.353 685.835 439.854C685.528 440.057 685.118 440.29 684.786 440.261C681.383 439.97 678.953 442.325 676.293 444.099C672.635 446.541 668.542 447.762 664.244 450.146C664.628 448.722 664.807 448.053 664.986 447.355C665.14 447.326 665.319 447.326 665.447 447.268C665.498 447.239 665.498 447.035 665.523 446.919C665.37 447.123 665.216 447.326 665.063 447.501C664.551 447.559 663.758 447.384 663.528 447.704C661.149 451.077 658.182 452.501 654.344 451.92C652.63 451.658 651.249 452.85 650.175 454.391L650.277 454.595C649.765 453.112 649.612 451.687 651.096 450.757C652.247 450.059 653.398 449.361 654.6 448.838C658.233 447.297 661.891 445.901 665.498 444.302C667.007 443.634 668.388 442.732 669.437 441.017C670.46 439.389 672.149 438.284 673.53 436.946C673.632 435.463 672.686 435.144 671.765 435.115C670.665 435.085 669.565 435.231 668.491 435.434C666.853 435.725 665.242 436.132 663.63 436.51L663.707 436.626C663.17 435.783 662.607 434.882 661.533 435.144C659.588 435.609 657.644 436.132 655.726 436.685C652.196 437.702 648.665 438.778 645.135 439.738C644.649 439.883 644.061 439.65 643.524 439.592L643.575 439.738C644.112 438.487 645.8 437.964 645.417 436.074L645.186 436.219C646.261 436.685 647.182 436.51 647.847 435.405L647.668 435.609C649.484 435.289 651.326 434.94 653.168 434.678C654.626 434.446 656.212 434.649 657.491 434.039C658.668 433.486 660.663 433.923 660.816 431.451C660.816 431.248 661.788 430.957 662.274 431.015C667.493 431.509 670.051 427.41 673.3 423.165C672.174 422.758 671.56 422.322 670.946 422.38C669.667 422.496 668.44 422.874 667.16 423.136L667.263 423.339C667.723 422.467 668.158 421.566 668.542 420.81C667.8 418.833 666.316 418.687 665.165 418.978C662.402 419.763 659.665 419.763 656.851 419.588C655.419 419.501 653.909 420.141 652.477 420.577C645.672 422.699 638.842 424.735 632.089 427.032C627.459 428.602 622.854 430.259 618.096 431.219C615.205 431.8 612.264 432.033 609.373 432.789C603.208 434.417 596.915 435.493 590.929 437.702C587.603 438.923 584.227 439.97 580.927 441.366C579.546 441.947 578.087 442.267 576.629 442.5C575.299 442.703 574.353 443.11 573.355 444.39C572.485 445.465 570.746 445.843 569.339 446.134C565.118 446.977 560.871 447.559 556.651 448.315C555.013 448.605 553.325 448.925 551.765 449.507C550.972 449.797 550.409 450.786 549.744 451.484L549.872 451.368C545.983 451.775 542.095 452.414 538.207 452.56C533.756 452.705 529.356 453.345 524.956 454.13C518.177 455.322 511.372 456.543 504.568 457.386C500.73 457.88 496.97 458.811 493.159 459.334C488.4 460.003 483.668 460.672 478.91 461.34C478.552 459.102 480.24 459.16 481.008 459.072C483.054 458.782 485.075 458.665 486.763 457.095C488.81 457.968 490.856 458.898 492.979 455.438C490.396 455.613 488.503 455.7 486.891 457.328C485.049 457.357 483.156 457.183 481.34 457.415C470.443 458.898 459.647 461.224 448.724 462.503C446.959 462.707 444.913 463.347 443.634 464.626C441.715 466.516 439.515 466.719 437.418 466.661C430.025 466.458 420.534 467.359 413.602 469.51C414.957 469.947 415.802 470.528 416.467 470.354C418.257 469.888 419.255 471.051 420.406 472.36C414.778 473.058 409.253 473.93 403.702 474.424C396.104 475.093 388.558 475.994 381.037 477.361C379.579 477.622 378.07 477.593 376.586 477.739C374.002 478 371.393 478.146 368.835 478.64C362.261 479.919 355.737 481.402 349.189 482.711C347.551 483.03 345.838 483.059 344.175 483.176C342.128 483.321 340.261 483.496 338.726 485.618C337.498 487.333 335.324 487.101 333.482 487.217C327.726 487.595 321.996 487.973 316.24 488.293C314.015 488.409 311.866 488.409 310.075 490.532C309.436 491.288 308.003 491.404 306.929 491.462C298.769 491.898 290.608 492.218 282.448 492.596C279.864 492.712 277.28 492.916 274.697 493.061L274.799 493.236C274.646 492.422 274.492 491.637 274.262 490.415C265.743 490.881 257.199 491.346 248.681 491.84C247.965 491.869 246.967 491.927 246.634 492.451C244.895 495.067 242.362 494.806 240.009 494.922C235.379 495.184 230.749 495.213 226.118 495.358C221.284 495.504 216.449 495.736 211.614 495.823C210.335 495.852 209.03 495.474 207.751 495.3L207.802 495.445C209.568 493.178 212.356 494.399 214.402 492.829C216.5 491.23 218.956 491.607 221.386 492.015C222.793 492.247 224.302 491.782 225.735 491.607C226.016 490.037 226.272 488.671 226.528 487.217C226.784 487.043 227.091 486.665 227.397 486.636C231.26 486.49 235.072 486.461 238.704 484.426C240.239 483.554 242.337 483.641 244.128 483.728C247.479 483.903 250.753 483.641 254.053 483.118C263.39 481.664 272.778 480.501 282.141 479.251C282.678 479.192 283.241 479.454 283.778 479.57L283.676 479.367C282.959 479.919 282.218 480.443 281.015 481.344C284.469 481.722 287.308 482.013 290.173 482.333L290.122 482.187C285.978 484.31 281.501 483.874 277.153 484.048C275.49 484.106 273.929 484.135 272.292 484.542C268.506 485.473 264.669 486.025 260.755 486.054C259.425 486.054 258.274 485.822 257.046 485.444C256.406 485.24 255.639 485.618 254.923 485.763H255.076C252.544 485.734 250.241 487.217 247.607 487.101C245.048 486.985 242.465 487.828 239.907 488.293C237.348 488.758 234.816 489.252 232.283 490.067C235.276 490.619 238.269 490.852 241.314 490.735C249.858 490.386 258.299 489.194 266.767 488.089C278.227 486.577 289.713 485.618 301.224 485.269C311.661 484.949 321.894 483.03 332.177 481.402C336.756 480.675 341.31 479.396 346.017 479.774C346.682 479.832 347.372 479.367 348.651 478.931C347.449 478.146 346.733 477.68 346.017 477.215L346.068 477.361C348.958 476.169 351.747 474.511 355.021 475.791C355.661 476.052 356.582 475.907 357.195 475.558C359.498 474.25 361.749 474.453 364.205 475.093C366.123 475.587 368.246 475.093 370.293 474.889C371.291 474.802 371.393 474.017 370.856 471.895C390.579 469.132 410.353 466.777 429.718 461.457C430.025 461.369 430.229 460.875 430.766 460.235C429.948 460.003 429.308 459.596 428.72 459.683C413.525 461.573 398.202 461.369 383.058 463.986C376.279 465.149 369.398 465.614 362.568 466.37C361.826 466.458 361.007 466.516 360.342 466.254C355.942 464.48 351.491 465.556 347.065 465.876C339.826 466.399 332.561 466.981 325.373 467.998C320.461 468.696 315.345 468.667 310.996 472.127C310.126 472.825 308.899 472.912 307.824 473.203C306.392 473.61 304.857 473.697 303.501 474.337C301.506 475.238 299.613 475.238 297.515 474.918C295.136 474.569 292.68 474.831 290.25 474.802C289.15 474.802 287.973 475.006 286.924 474.744C281.041 473.232 275.413 474.889 269.888 476.692C268.071 477.273 266.332 477.564 264.49 477.826C256.688 478.873 248.86 478.262 241.032 478.582C237.118 478.756 233.281 479.163 229.393 479.919C224.277 480.908 219.033 480.937 213.84 481.315C213.123 481.373 212.33 481.199 211.64 480.879C207.163 478.814 202.507 479.396 197.851 479.629C195.447 479.745 193.068 479.919 190.868 478.32C189.998 477.681 188.719 477.535 187.619 477.593C179.433 477.942 171.273 478.495 163.164 479.745C160.657 480.152 158.354 482.129 155.31 480.762C155.003 478.669 154.108 476.837 151.729 476.343C150.527 476.11 149.452 475.006 148.531 474.424C148.889 470.295 152.573 470.761 154.389 468.057C154.082 465.498 154.057 462.591 152.087 459.945C151.217 460.003 150.194 459.77 149.452 460.206C145.027 462.736 140.013 462.125 135.408 463.666C134.436 463.986 133.592 463.288 133.694 461.486C136.201 460.613 138.913 460.584 141.624 460.352C142.699 460.265 144.131 460.468 144.796 459.799C146.843 457.764 149.273 457.939 151.627 457.677C156.206 457.124 160.785 456.688 165.287 456.194C165.773 453.635 164.008 453.112 163.01 451.978L163.112 452.182C163.931 451.426 164.724 450.67 165.415 450.001C165.389 448.518 164.468 448.402 163.88 448.373C161.68 448.315 159.454 448.227 157.306 448.605C154.543 449.129 151.857 449.478 149.094 448.722C146.869 448.111 144.72 448.78 142.724 449.914C141.062 450.844 139.424 450.815 138.069 449.594C136.508 448.169 134.692 448.024 132.927 447.559L133.004 447.733C133.541 447.181 134.052 446.628 134.769 445.901C134.027 445.494 133.413 445.175 132.773 444.826C132.697 444.535 132.415 444.012 132.543 443.837C134.538 440.959 132.697 438.458 131.955 435.841C131.622 435.667 131.315 435.376 130.957 435.318C121.748 434.01 112.616 431.974 103.278 432.12C101.462 432.149 100.03 431.48 98.6228 430.492C96.6274 429.125 94.6833 428.863 92.2787 429.532C88.1345 430.695 83.8625 430.811 79.6928 429.3C79.1812 429.125 78.5928 428.922 78.0812 429.009C74.4231 429.532 70.7906 430.114 66.2628 430.841C67.5674 432.091 68.1046 432.963 68.8209 433.225C73.3743 434.911 77.851 436.946 82.5323 437.935C89.7973 439.447 97.1391 440.523 104.327 442.442C106.195 442.936 107.448 441.366 109.06 441.017C113.971 444.826 119.778 443.692 125.176 445.087C119.855 446.686 114.509 447.646 109.009 447.123L109.085 447.297C109.853 446.541 110.646 445.756 111.618 444.797C110.825 444.39 110.339 443.953 109.878 443.924C103.381 443.808 96.9856 443.052 90.6926 440.988C88.7996 440.377 86.6509 440.523 84.6044 440.61C81.6114 440.726 78.5928 441.104 76.5208 437.819C76.4184 437.673 76.2394 437.499 76.0603 437.47C71.8394 436.83 68.1302 433.835 63.7303 434.01C62.2722 434.068 60.7885 433.981 59.3303 434.01C55.0071 434.126 50.9909 435.289 47.4352 438.633C47.7166 439.708 47.9724 440.668 48.177 441.482C48.7654 441.715 49.1235 442.034 49.4305 441.947C53.6258 440.842 57.8211 440.639 62.0675 441.337L62.0163 441.22C61.2233 441.627 60.4303 442.412 59.6373 442.412C56.6955 442.412 54.1374 445.349 51.0165 443.866C50.7607 443.75 50.1723 443.953 50.0188 444.244C48.5607 446.774 45.6701 446.483 43.6236 448.373C43.9306 449.681 44.2631 451.019 44.6213 452.531C42.3957 454.827 40.1702 457.212 36.6911 457.531C37.1772 455.002 38.7376 453.984 40.4516 453.112C41.9864 452.327 42.5492 450.873 42.4213 449.012C42.2934 447.355 40.8097 446.425 39.6074 447.384C38.5586 448.227 37.6376 449.274 36.5888 450.146C35.1307 451.397 35.1051 451.368 31.4726 451.833C30.2703 446.599 30.2703 446.599 26.868 444.709C27.3029 444.07 27.7122 443.488 28.0704 442.878C28.889 441.424 29.6308 439.912 28.5052 438.284C27.175 436.365 25.5634 435.9 23.6193 436.83C21.5984 437.789 19.603 438.836 17.6077 439.854L17.6845 439.97C18.5031 438.429 19.7309 436.975 20.0635 435.318C20.4472 433.341 21.6495 432.12 22.3658 430.521C23.6448 427.759 25.4611 426.596 28.0959 426.828C27.0215 427.613 25.8704 428.253 24.9239 429.212C24.4634 429.678 24.182 430.811 24.3355 431.48C24.489 432.091 25.3076 432.672 25.9216 432.876C26.5867 433.079 27.3797 432.876 28.0959 432.759C30.6285 432.323 32.2145 430.986 31.8819 429.241C31.4215 426.799 29.5541 427.003 27.9169 426.944C30.5261 425.927 33.34 425.316 35.0028 422.409C38.1749 421.478 41.1422 419.588 44.5701 419.821C47.0259 419.996 49.4305 419.647 51.3491 417.699C51.8095 417.233 52.0653 416.274 52.1165 415.518C52.2188 414.239 49.9933 413.773 51.1956 411.825C52.0398 410.459 51.0677 409.034 50.4282 407.726C50.2491 407.377 50.07 406.708 50.1979 406.592C52.8839 404.004 50.9909 399.527 53.3188 396.823C53.6769 393.13 56.2095 391.066 58.1536 388.565C58.5117 388.1 58.921 387.635 59.3047 387.17C61.3256 384.786 61.3257 382.372 59.3815 379.843C57.7443 379.116 56.056 378.069 54.2909 377.633C51.2723 376.877 48.8421 375.104 46.5654 372.865C44.1864 370.51 44.1096 370.597 45.7468 366.323C43.5724 363.735 43.4445 360.566 44.5445 357.135C44.9794 355.798 44.9282 354.228 45.1073 352.774L44.9282 352.861C45.4654 353.879 46.0026 354.867 46.4887 355.798C48.1514 356.699 50.3002 356.059 51.656 358.298C51.1956 359.577 50.7095 360.886 50.0956 362.543C51.1444 364.113 52.27 365.8 53.3444 367.37C52.9351 367.631 52.5002 367.922 52.0397 368.184C52.2956 368.707 52.3979 369.23 52.6537 369.405C57.4629 372.225 62.4001 374.522 67.9767 374.406C69.8441 374.377 71.5581 374.58 73.0929 372.778C73.6813 372.08 75.1394 372.167 76.2138 372.167C81.5858 372.08 86.9834 372.487 92.1508 370.132C92.6624 369.899 93.2507 369.957 93.7879 369.841C103.585 367.689 113.613 367.166 123.232 363.939C123.59 363.822 123.974 363.852 124.332 363.793C123.334 364.433 122.285 365.102 122.541 366.672C122.771 368.126 123.974 369.23 125.457 369.027C127.632 368.736 129.959 369.172 131.929 367.573C133.541 368.504 134.257 367.108 134.948 365.974C135.434 365.189 135.587 364.142 135.945 363.066C139.066 363.474 141.983 364.026 144.899 364.23C148.224 364.491 151.345 363.764 153.98 360.799C146.664 356.961 139.834 359.985 132.978 361.293C132.645 361.351 132.287 361.7 132.083 362.02C130.599 364.607 128.629 363.939 126.634 363.096C127.811 362.252 128.962 361.38 130.369 360.363C127.887 358.851 125.636 358.996 123.462 359.461C121.39 359.897 119.446 359.868 117.399 359.403C109.878 357.659 102.23 357.746 94.6065 357.542C93.9414 357.513 93.3019 357.978 91.3833 358.618C95.6809 359.636 98.7507 360.362 101.795 361.089L101.718 360.915C100.848 361.118 99.953 361.525 99.0832 361.467C97.2414 361.351 95.3996 360.944 93.5577 360.74C87.6485 360.13 81.7393 359.665 75.8301 358.938C72.658 358.56 69.5883 358.502 66.5442 359.752C66.1093 359.926 65.5209 359.694 64.7791 359.636C65.7512 358.705 66.5186 357.978 67.3372 357.193C64.8047 355.332 62.1954 355.769 59.6373 355.885C59.6117 353.879 59.7396 352.047 59.5606 350.244C59.2792 347.482 58.4094 347.075 55.0839 348.035C55.1095 349.169 55.1351 350.361 55.1351 351.553L55.2885 351.524C53.549 351.029 51.8095 350.564 50.07 350.07L50.1468 350.244C50.3002 349.459 50.4281 348.645 50.6328 347.569C49.2258 345.912 47.3328 344.895 45.2608 345.389C41.3469 346.348 37.0749 346.058 33.8517 349.576C32.9819 350.535 31.7796 350.244 30.8587 349.11C31.7029 345.767 34.7982 346.581 36.9981 344.778C37.3307 343.412 37.7656 341.667 38.3283 339.341C35.8214 339.69 33.8517 340.039 31.8563 340.272C29.8354 340.504 27.8146 340.766 24.4634 340.01C30.3982 338.527 34.0307 334.573 38.8911 333.991C41.8073 333.642 44.7236 333.177 47.8701 332.741C49.584 334.311 50.5305 336.783 51.4514 339.399C55.1095 340.213 58.3327 337.975 61.7605 337.451C65.0605 336.957 68.3093 335.998 71.558 335.154C74.8836 334.282 78.4138 334.166 82.5323 332.043C77.9533 330.444 74.4231 329.398 70.6883 329.398C67.3628 329.427 64.0117 329.398 60.6861 329.281C59.6629 329.252 58.6652 328.787 57.028 328.351C59.2536 327.682 60.7373 327.217 62.1954 326.781C62.0675 325.182 59.842 325.094 60.9419 323.03C61.2233 322.478 60.1234 320.966 59.5862 319.774C56.8746 322.797 56.8746 322.768 52.8072 323.553C51.9374 323.728 51.1444 324.368 50.377 324.92C50.1724 325.065 50.2235 325.676 50.0956 326.316C51.1444 326.839 52.2444 327.42 53.9839 328.293C52.3723 328.874 51.4002 329.543 50.377 329.572C42.2167 329.863 34.0563 329.892 25.9216 330.328C22.417 330.531 18.9379 331.2 15.4589 330.241C10.9822 331.985 6.22418 330.648 1.69634 331.694C1.41495 331.753 1.05682 331.404 0.749847 331.229C1.00566 328.903 2.51494 328.205 4.22887 328.06C7.37533 327.769 10.5218 327.653 13.6683 327.479C14.3845 327.449 15.1264 327.449 15.7147 327.449C16.4054 326.199 15.7915 325.792 15.1008 325.414C13.1311 324.368 11.0846 324.891 9.03809 324.92L8.85903 324.542C9.11484 324.222 9.31948 323.699 9.60087 323.641C12.6706 323.175 15.7403 322.768 18.81 322.361C21.0356 324.571 23.9007 321.14 26.1262 323.408C28.3773 322.536 30.7564 321.925 32.854 320.704C35.1819 319.367 37.6632 320.646 39.9144 319.599C41.9608 318.669 43.6748 316.924 46.0282 316.75C48.0491 316.604 50.07 316.197 52.0909 316.023C54.2653 315.819 55.8002 314.278 57.335 312.825C58.742 311.487 58.7931 309.219 57.4885 307.766C56.4397 306.603 55.2118 305.672 54.0607 304.626C54.2909 301.544 51.6049 301.369 50.1468 299.537C45.2608 301.34 40.3492 304.306 34.8237 302.067L34.9261 302.27C36.1284 301.863 37.3051 301.456 38.7632 300.962C38.3539 300.468 38.0981 299.857 37.7144 299.741C36.1028 299.334 34.44 299.159 32.8284 298.752C29.1959 297.851 25.6402 297.27 21.8542 298.113C19.3728 298.665 16.8659 298.927 14.3845 299.77C12.3892 300.439 10.0358 299.77 7.83578 299.712L7.88695 299.828C8.50089 297.851 10.0613 297.677 11.4939 297.531C21.3937 296.688 31.3191 295.874 41.219 295.147C44.1352 294.943 47.1026 295.118 50.0444 295.176C51.7584 295.205 53.3444 294.914 54.9304 293.199C54.7002 292.269 54.47 291.135 54.1118 290.03C53.6002 288.489 52.9862 287.006 52.2444 285.029C51.2979 284.593 49.9421 283.953 48.5863 283.343L48.6631 283.517C49.8398 281.889 51.4514 283.11 52.8583 282.761C54.5467 282.296 56.0304 281.743 57.0025 279.97C57.8722 278.4 58.8443 276.946 59.9187 275.172C58.8187 274.416 57.7955 273.748 56.4141 272.788C58.6652 271.305 60.5327 270.084 62.4001 268.863C62.3489 265.607 65.6744 265.927 66.7744 263.455C66.1605 261.187 64.0372 261.333 61.9396 260.199C64.6256 259.501 67.5418 260.867 69.2046 257.553C64.2419 254.122 59.3303 255.605 54.3932 257.001C51.8095 254.413 51.8095 254.413 48.2794 258.222C50.6584 260.315 53.6769 259.268 56.1839 260.49L56.1327 260.344C56.0048 260.49 55.8769 260.78 55.749 260.78C50.4537 260.926 45.1585 260.955 39.7353 259.704C41.6539 258.978 43.5724 258.28 45.9003 257.408C44.1096 255.721 42.5748 255.634 40.9376 256.128C38.3795 256.913 35.8981 256.826 33.2889 256.128C31.1657 255.576 28.889 255.808 26.6634 255.867C24.6425 255.925 22.6984 256.186 20.6263 255.605C18.8356 255.111 16.7636 255.925 14.1031 256.245C15.0752 257.146 15.3822 257.669 15.7659 257.727C18.8612 258.309 21.9053 259.094 25.1541 258.716C27.0983 258.512 29.1448 259.297 31.1656 259.646L30.9866 259.675ZM408.92 471.197C409.023 471.08 409.125 470.964 409.227 470.848C409.125 470.993 409.023 471.139 408.92 471.284C408.792 471.313 408.69 471.342 408.562 471.371C408.69 471.313 408.818 471.255 408.92 471.197ZM885.673 142.154C885.52 142.038 885.366 141.805 885.239 141.834C884.829 141.921 884.445 142.067 884.036 142.212C884.113 142.357 884.241 142.619 884.292 142.619C884.727 142.445 885.136 142.212 885.571 142.008L885.75 141.776L885.673 142.154ZM937.577 120.377C938.012 120.231 938.447 120.115 938.907 119.97C938.805 119.824 938.703 119.679 938.6 119.533C938.268 119.824 937.935 120.115 937.603 120.406C937.117 120.26 936.656 120.115 936.989 121.016C937.168 120.813 937.373 120.609 937.577 120.377ZM837.274 319.134C837.453 319.076 837.632 319.076 837.811 318.989C837.914 318.93 837.99 318.756 838.067 318.64C837.837 318.872 837.607 319.134 837.376 319.367C836.942 319.338 836.507 319.338 836.046 319.308C836.149 319.425 836.302 319.686 836.353 319.657C836.66 319.512 836.967 319.308 837.274 319.134ZM277.69 99.7914C277.255 99.8787 276.82 99.9368 276.385 100.024C276.513 100.111 276.692 100.344 276.769 100.286C277.076 100.111 277.332 99.8787 277.613 99.6751L277.92 99.5588L277.69 99.7914ZM665.626 31.465C666.47 31.5813 667.314 31.6685 668.977 31.872C667.263 30.3019 666.47 30.5346 665.728 31.6685C665.344 31.6685 664.986 31.6685 664.602 31.6685C664.679 31.7848 664.833 31.9883 664.858 31.9592C665.139 31.8429 665.37 31.6394 665.626 31.465ZM937.91 299.915C938.907 301.398 938.907 301.398 940.57 299.973C940.11 299.596 939.649 299.247 939.214 298.898C939.163 297.822 938.524 297.473 937.782 297.735C937.373 297.88 937.066 298.491 936.707 298.898C937.117 299.247 937.5 299.596 937.91 299.915ZM111.643 351.873C109.75 351.436 109.75 351.436 108.062 353.152C109.776 352.425 110.646 352.076 111.541 351.698C111.695 351.64 111.848 351.64 111.95 351.553C112.002 351.524 111.976 351.349 112.002 351.233C111.874 351.436 111.746 351.669 111.643 351.873ZM521.042 446.076C519.942 446.018 518.842 445.814 517.767 445.989C517.23 446.076 516.77 446.919 516.284 447.413H515.977L516.207 447.268C518.023 447.908 519.379 446.396 520.939 445.872C521.195 445.698 521.451 445.553 521.707 445.378C521.477 445.611 521.246 445.843 521.042 446.076ZM70.6371 251.04C72.5813 251.156 74.6533 252.232 76.6742 250.197C73.2208 249.179 73.2208 249.179 70.765 251.098C70.4581 251.098 70.1767 251.127 69.8697 251.127C69.972 251.011 70.0744 250.837 70.1767 250.837C70.3302 250.837 70.4837 250.953 70.6371 251.04ZM951.954 304.538C954.358 305.294 956.814 306.69 959.321 303.957C956.584 302.416 954.23 302.561 952.03 304.713C951.544 304.596 951.058 304.451 950.572 304.364C950.444 304.335 950.265 304.509 950.112 304.596C950.316 304.858 950.598 305.352 950.726 305.323C951.161 305.149 951.544 304.8 951.954 304.538ZM540.688 445.378C542.862 445.814 545.037 446.425 547.237 445.64C547.953 445.378 548.618 445.087 548.362 443.982C544.193 443.808 543.4 443.982 540.765 445.553C539.204 444.855 537.593 443.721 535.521 446.425C537.772 446.076 539.332 446.745 540.688 445.378ZM541.839 439.214C542.76 439.33 543.681 439.563 544.602 439.505C549.053 439.301 553.248 437.266 557.751 437.412C558.595 437.441 559.362 436.394 560.564 434.446C559.976 434.417 559.413 434.271 558.876 434.388C554.885 435.231 550.869 436.103 546.879 437.063C545.088 437.499 543.348 438.109 541.583 438.662C540.969 438.778 540.355 438.894 539.588 439.04C540.458 440.319 541.148 439.97 541.839 439.214ZM896.085 142.067C899.334 142.416 902.25 141.107 905.243 139.973C907.699 139.043 910.154 138.142 912.636 137.356C914.733 136.717 916.933 136.455 919.261 134.943C918.34 134.536 917.829 134.071 917.419 134.158C915.066 134.682 912.661 135.176 910.359 135.961C905.422 137.618 900.536 139.45 895.65 141.194C894.652 141.601 893.603 141.892 892.657 142.445C892.35 142.619 892.299 143.375 891.838 144.712C893.706 143.549 894.908 142.794 896.085 142.067ZM843.925 145.265C841.393 144.974 838.86 144.509 836.328 144.509C833.897 144.509 831.595 145.497 829.702 147.3C829.318 147.678 829.472 148.725 829.37 149.481H829.063L829.293 149.335C834.69 150.353 839.295 147.882 843.823 145.09L844.002 144.858L843.925 145.265ZM100.49 186.61C97.2414 185.214 94.0182 185.214 90.7438 186.726C89.5671 187.278 88.2369 187.366 86.9834 187.656C85.4486 188.034 84.2462 188.848 83.5811 190.564C83.223 191.494 82.8137 192.425 82.43 193.384C83.6323 194.896 84.9369 195.681 86.8043 195.507C93.4298 194.896 99.953 193.646 106.425 192.076C106.681 192.018 106.86 191.552 107.064 191.291C106.655 190.738 106.271 190.186 105.811 189.546C107.09 189.43 108.19 189.314 109.239 189.226C109.444 185.621 108.855 185.156 106.092 186.522L106.169 186.639C104.66 186.726 103.176 186.813 101.667 186.9C101.283 186.813 100.874 186.697 100.49 186.61ZM515.747 443.459C517.563 441.976 519.737 441.656 521.809 441.075C522.986 440.755 524.112 440.29 525.57 439.767C524.853 439.272 524.521 438.865 524.239 438.894C520.76 439.36 517.281 439.912 513.777 439.127C513.444 439.04 513.035 439.243 512.677 439.301C508.84 440.028 504.977 440.755 501.14 441.424C498.582 441.86 496.024 441.976 493.414 441.976C489.066 441.976 484.41 441.715 481.008 446.512C481.545 447.53 482.082 448.547 482.619 449.623C483.131 450.641 481.11 451.92 483.054 452.938C483.617 452.821 484.538 452.938 485.049 452.501C488.17 449.739 491.854 449.565 495.563 449.129C502.572 448.286 509.479 446.774 515.926 443.343L515.747 443.459ZM-33.2729 248.598L-33.3752 248.423C-32.6589 250.895 -30.7404 250.778 -29.2055 250.488C-23.8591 249.412 -18.5126 250.633 -13.1662 250.197C-10.5825 249.964 -7.97327 250.022 -5.36401 249.877C-2.75474 249.732 -2.26871 249.441 -0.24781 246.97C-3.13846 246.301 -5.90121 246.504 -8.68954 246.708C-13.8057 247.086 -19.0498 248.278 -23.7056 244.44C-23.987 244.207 -24.4219 244.178 -24.78 244.207C-28.4637 244.353 -32.1985 243.364 -35.7798 245.283C-36.7263 245.778 -37.903 245.981 -38.9775 245.952C-40.7937 245.894 -42.6099 245.516 -44.5797 245.254C-43.582 243.161 -42.0727 242.754 -40.3588 242.928C-38.8495 243.074 -37.3147 243.248 -35.8054 241.794C-38.5682 240.05 -40.9216 241.271 -43.2239 241.736C-45.2448 242.143 -47.1634 242.55 -49.261 242.027C-53.7888 240.864 -58.112 241.969 -62.1794 244.44C-63.9957 245.545 -63.9957 245.545 -63.484 249.237C-61.0794 250.168 -58.4958 250.371 -55.9121 250.546C-54.7865 250.633 -53.3796 250.662 -52.9447 248.511C-52.74 247.464 -51.3587 247.929 -50.4889 248.394C-50.4633 248.511 -50.4377 248.598 -50.4122 248.714C-50.4889 248.598 -50.5401 248.482 -50.6168 248.365C-46.4727 247.435 -42.4053 247.348 -38.9263 249.79C-36.7519 249.383 -35.217 247.58 -33.2729 248.598ZM194.833 109.939C197.058 110.113 199.284 110.229 201.433 109.212C203.863 108.049 206.395 107.613 209.056 107.642C210.898 107.671 212.765 107.089 214.607 107.002C216.474 106.915 217.702 105.984 218.316 104.065C227.858 105.228 245.432 106.973 251.188 103.106C250.881 102.641 250.548 102.176 250.241 101.681C252.799 100.78 255.383 100.635 258.095 100.925C260.474 101.158 262.955 101.013 265.257 100.344C267.304 99.7624 269.171 98.2795 271.601 96.913C270.45 96.6513 269.785 96.3606 269.095 96.3315C265.922 96.2443 262.853 97.0584 259.732 97.698C256.713 98.3377 253.413 97.2328 250.318 97.6108C245.918 98.1051 241.518 98.1923 237.093 98.2795C232.642 98.3668 228.19 98.3958 223.765 98.7447C220.26 99.0064 216.577 99.0646 213.328 100.344C209.568 101.798 205.961 99.995 202.328 100.809C201.254 101.042 200.026 100.809 199.028 101.245C193.886 103.571 188.284 102.059 183.091 103.717C178.461 102.35 173.856 104.095 169.226 103.775C167.615 103.658 165.926 104.182 164.34 104.676C163.24 104.996 162.601 106.711 163.24 107.787C164.647 110.171 164.954 113.34 167.18 115.23C171.094 114.91 174.649 112.207 178.742 113.835C179.459 112.09 180.073 110.636 180.738 109.008C182.042 108.572 183.424 108.107 184.831 107.613L184.754 107.467C184.217 108.717 183.68 109.997 183.04 111.509C183.859 111.887 184.524 112.439 185.163 112.41C187.542 112.323 189.947 112.207 192.3 111.741C193.272 111.538 194.117 110.462 195.012 109.793L194.833 109.939ZM133.362 390.572C131.52 390.601 130.241 390.804 129.013 390.63C127.734 390.455 126.532 389.816 125.253 389.641C120.827 389.06 116.376 388.507 111.925 388.129C110.876 388.042 109.776 388.565 108.702 388.827C107.397 389.147 105.913 388.362 104.813 389.786C103.023 387.78 100.925 389.001 98.9553 389.176C96.5507 389.408 94.1972 390.164 91.7926 390.31C86.4206 390.63 81.023 390.513 75.7022 391.676C75.3696 391.764 74.7813 391.764 74.6534 391.56C72.6069 387.955 70.0744 390.281 67.7209 390.833C65.7256 391.298 63.7559 391.88 61.735 392.287C59.5606 392.723 58.2559 394.061 57.1048 396.299C55.135 400.079 55.2118 403.801 56.056 407.697C56.9257 407.988 57.6676 408.162 58.3583 408.453C61.5815 409.906 64.5233 412.669 68.3604 410.837C68.6162 410.721 69.1279 410.953 69.3837 411.186C71.2511 412.785 73.3231 412 75.344 411.971C76.265 411.942 77.3394 411.447 78.0812 411.825C81.5091 413.483 84.9881 412.959 88.4927 412.727C89.0043 412.698 89.5159 413.017 90.1299 413.192C89.1322 414.035 88.288 414.791 87.4439 415.518C91.0252 420.839 93.3786 422.292 97.8297 420.781C100.209 419.966 102.511 419.734 104.916 419.647C106.195 419.618 107.525 419.385 108.753 418.949C114.688 416.768 120.827 416.768 126.915 417.292C130.983 417.64 134.999 418.513 139.015 417.001C139.527 416.797 140.115 416.914 140.678 416.914C144.771 417.001 148.864 416.943 152.906 415.954C153.98 415.692 155.157 415.605 156.231 415.751C160.964 416.39 165.44 415.634 169.533 412.727C169.533 412.523 169.482 412.291 169.559 412.087C171.094 407.202 170.122 405.051 165.85 404.295C160.529 403.335 155.182 403.335 149.836 404.004C147.252 404.324 144.72 404.731 141.88 402.492C143.62 402.056 144.848 401.678 146.076 401.446C147.406 401.184 149.068 401.824 149.759 399.149C142.724 398.044 135.894 397.695 129.064 397.288C125.534 397.084 122.004 396.852 118.525 396.299C114.278 395.631 110.057 394.904 105.76 395.95C105.453 396.038 105.044 395.398 104.276 394.758C107.832 393.683 110.902 393.479 114.074 393.77C118.678 394.206 123.308 394.642 127.913 394.904C129.371 394.991 130.855 394.555 132.313 394.264C132.645 394.206 132.927 393.828 133.336 393.479C133.362 392.81 133.362 391.996 133.362 390.572ZM229.393 132.966C233.563 132.995 237.63 133.199 241.672 132.966C245.867 132.734 250.037 133.751 254.283 131.861C257.864 130.262 262.188 131.222 266.536 128.169C262.213 127.471 258.837 126.599 256.662 123.226C257.481 121.627 259.451 121.481 259.604 119.359C256.381 119.737 253.413 119.911 250.548 120.493C247.606 121.103 244.486 120.086 241.697 122.383C243.488 122.528 245.304 122.674 247.095 122.819C246.174 123.604 245.279 123.982 244.358 124.011C234.662 124.389 225.146 126.395 215.553 127.762C214.837 127.878 213.993 127.849 213.405 128.256C212.458 128.896 211.461 129.855 211.742 131.28C211.921 132.21 212.484 133.431 213.149 133.809C214.786 134.711 216.602 135.728 218.342 135.728C222.998 135.67 227.577 136.106 232.156 136.891C232.642 136.978 233.153 136.717 233.818 136.601C232.59 134.74 229.495 136.281 229.393 132.966ZM97.0879 377.662C102.92 378.127 107.704 378.476 112.488 378.912C114.304 379.087 116.12 379.494 117.936 379.697C118.653 379.785 119.497 379.959 120.06 379.61C122.081 378.331 124.025 378.883 125.994 379.668C130.42 381.413 134.973 382.053 139.655 381.965C145.359 381.878 151.064 380.25 156.794 381.704C157.459 381.878 158.278 381.587 158.968 381.267C159.378 381.093 159.633 380.512 159.94 380.104C158.636 378.302 157.024 379.436 155.643 379.058C154.952 378.883 154.313 378.534 152.982 377.982C155.899 377.575 157.971 377.284 160.529 376.935C159.71 376.034 159.403 375.452 158.968 375.191C156.717 373.999 154.313 374.086 151.882 374.231C149.759 374.348 147.534 375.074 145.641 373.388C149.478 371.527 154.21 373.301 157.843 369.637C152.368 367.602 144.899 368.329 139.476 371.295C139.68 373.592 142.341 371.498 142.673 373.563C138.964 376.034 136.048 373.679 133.515 371.556C132.518 371.673 131.904 371.556 131.418 371.818C128.118 373.592 124.664 373.795 121.083 373.563C119.829 373.475 118.525 374.028 117.246 374.289C116.734 376.586 115.046 376.179 113.639 376.179C112.36 376.179 111.055 375.976 109.75 375.801C106.604 375.423 101.206 376.121 97.0879 377.662ZM657.875 34.7795C657.772 34.4597 657.695 34.1399 657.593 33.82C657.056 33.7328 656.519 33.5293 656.007 33.5874C647.693 34.5469 639.277 35.0412 631.066 36.6985C625.77 37.7742 620.45 38.7919 615.154 39.8386C599.217 42.9787 583.229 45.8281 567.19 48.3285C565.936 48.532 564.709 49.0845 563.506 49.6369C563.02 49.8404 562.509 50.3638 562.355 50.8871C562.227 51.3523 562.56 52.4281 562.764 52.4572C563.839 52.6025 564.964 52.6607 566.039 52.4572C569.697 51.7594 573.381 51.0325 576.987 50.1312C580.978 49.1426 585.199 49.9858 589.062 48.0087C589.548 47.7761 590.213 47.6598 590.699 47.8342C593.027 48.7065 595.099 47.5435 597.248 47.0201C598.527 46.7003 599.857 46.2642 601.11 46.4386C604.385 46.9038 607.378 45.799 610.396 44.7813C611.624 44.3743 612.903 44.0254 614.182 43.88C628.303 42.3972 642.117 38.9082 655.956 35.5936C656.621 35.4773 657.235 35.0703 657.875 34.7795ZM268.685 109.764C265.999 108.572 263.39 108.776 260.806 109.037C254.334 109.706 247.862 110.52 241.39 111.247C237.144 111.712 232.897 112.119 228.625 112.555C226.221 112.817 223.842 113.166 221.437 113.37C216.423 113.777 211.409 114.067 206.396 114.416C205.116 114.503 203.837 114.591 202.84 115.87C201.919 117.033 202.328 118.109 202.533 119.359C202.814 121.162 201.1 121.627 200.358 122.761C198.67 125.465 199.642 128.082 202.635 128.837C203.121 128.954 203.684 128.692 204.503 128.547C204.528 127.471 204.375 126.424 204.579 125.465C204.809 124.302 205.321 123.197 205.475 122.761C209.516 121.685 213.072 121.191 216.295 119.708C218.342 118.748 220.337 119.272 222.23 118.632C224.225 117.963 226.093 117.673 228.216 117.963C232.13 118.458 236.018 117.76 239.702 116.044C241.288 113.224 243.948 113.777 246.276 113.428C248.297 113.137 250.395 113.37 252.39 112.992C257.788 112.032 263.134 110.869 268.685 109.764ZM171.989 345.854C166.387 344.604 157.126 344.865 152.087 346.116C147.738 347.191 143.364 347.976 138.99 348.878C133.157 350.07 127.325 351.233 121.518 352.454C120.904 352.57 120.341 353.065 119.497 353.501C124.664 356.99 125.176 357.135 129.422 357.513C134.411 357.949 139.348 357.949 144.157 356.03C147.994 354.489 151.678 352.338 155.924 352.629C156.436 352.658 157.075 352.338 157.433 351.931C159.071 350.012 161.245 350.477 163.215 350.186C164.852 349.925 166.566 350.041 168.203 349.779C170.147 349.401 171.605 348.296 171.989 345.854ZM192.965 118.603C186.928 116.771 180.763 116.015 174.573 119.795C174.24 121.074 173.908 122.47 173.524 123.982C174.752 125.697 175.903 127.296 177.029 128.896C179.51 129.012 181.991 128.343 183.68 131.251C184.166 132.094 185.649 132.385 186.724 132.53C189.998 132.966 193.298 133.228 196.726 133.577C195.779 131.193 193.324 132.617 192.556 130.931C193.528 130.582 194.705 130.495 195.472 129.797C196.547 128.867 196.828 127.296 196.649 125.785C196.547 124.97 196.342 124.098 195.984 123.429C195.191 122.005 194.27 120.667 192.965 118.603ZM654.882 406.417C649.51 408.046 644.086 409.558 638.74 411.389C635.568 412.494 632.549 414.093 629.045 415.663C627.817 414.907 626.129 414.791 624.236 415.576C621.984 416.506 619.605 417.059 617.278 417.757C615.359 418.338 613.44 418.949 611.24 419.618C611.905 420.083 612.212 420.519 612.494 420.49C619.145 419.588 625.77 418.658 632.421 417.64C633.496 417.466 634.519 416.826 635.568 416.39C639.763 414.733 643.907 412.727 648.23 411.535C651.07 410.808 653.193 409.18 654.882 406.417ZM826.658 10.5018C826.53 10.0657 826.377 9.62955 826.249 9.19342C822.539 8.69915 818.933 9.71678 815.633 11.4904C812.64 13.1186 809.109 13.3512 806.628 16.2296C802.049 17.8287 797.444 19.4279 792.891 21.0851C792.431 21.2596 792.072 21.7248 791.689 22.0446C792.124 23.6437 793.07 23.3239 793.991 23.2658C797.137 23.0332 800.054 21.1724 803.277 21.6957C803.61 21.7539 803.993 21.4631 804.326 21.3177C806.909 20.0966 809.698 19.2825 812 17.5961C815.684 14.8921 819.726 13.5256 823.818 12.1591C824.816 11.8102 825.711 11.0542 826.658 10.5018ZM2.00332 243.074C2.92423 244.498 4.12654 243.771 5.14978 243.975C6.35209 244.237 7.5544 245.225 8.70554 245.138C14.7682 244.702 20.8309 243.946 26.9448 244.237C27.6355 244.266 28.7355 244.12 28.6843 242.579C24.4123 241.94 20.2426 240.922 16.0473 240.777C11.6474 240.631 7.19626 241.3 2.79633 241.707C2.48935 241.765 2.25913 242.637 2.00332 243.074ZM843.695 150.731C845.562 152.592 846.765 151.894 848.018 151.545C850.883 150.731 853.723 149.655 856.613 149.277C859.939 148.87 863.188 148.405 866.385 147.242C868.841 146.341 871.425 146.05 873.957 145.381C874.367 145.265 874.725 144.742 875.287 144.218C874.571 143.782 874.085 143.23 873.65 143.288C870.376 143.666 867.025 143.84 863.827 144.654C859.35 145.817 854.976 147.504 850.525 148.899C849.297 149.277 847.992 149.394 846.713 149.713C845.844 149.917 845 150.266 843.695 150.731ZM79.2323 338.731C77.0068 338.76 75.3185 338.469 73.7325 338.818C67.5674 340.126 61.4536 341.667 55.442 343.063C55.0583 344.342 55.5444 345.04 56.3118 345.156C57.2071 345.273 58.128 345.098 59.0234 344.924C60.8396 344.517 62.6815 343.528 64.4721 343.644C68.4628 343.935 72.1464 342.161 76.0603 342.074C77.4928 342.016 78.4905 341.057 79.2323 338.731ZM928.445 302.416C914.529 304.393 912.252 304.945 909.208 307.33C911.178 307.271 913.019 307.388 914.81 307.155C919.21 306.603 923.584 305.934 927.959 305.178C928.982 305.004 930.21 304.626 930.414 303.055C930.619 301.427 931.847 301.398 932.845 300.875C933.356 300.584 934.354 300.322 933.663 298.869C931.387 298.52 929.187 299.101 927.012 300.584C927.447 301.166 927.805 301.602 928.445 302.416ZM875.492 191.901C875.671 192.192 875.85 192.483 876.004 192.774C878.639 191.901 881.273 191.029 883.908 190.186C886.569 189.343 889.715 189.256 891.787 187.54C894.064 185.65 897.696 187.249 899.027 183.382C898.182 182.336 897.185 182.016 896.059 182.51C894.678 183.092 893.348 183.877 891.966 184.458C887.413 186.319 882.834 188.093 878.306 190.011C877.308 190.419 876.439 191.262 875.492 191.901ZM57.8211 245.574C65.6233 246.243 73.2208 245.719 80.8184 245.254C81.4323 245.225 82.0207 244.498 83.0695 243.771C81.7137 243.277 80.844 242.666 79.9998 242.725C72.8371 243.161 65.7 243.742 58.5629 244.324C58.3582 244.324 58.2048 244.905 57.8211 245.574ZM958.144 133.228C956.277 131.105 954.588 131.483 953.361 131.978C948.961 133.78 944.305 133.519 939.854 134.74C939.138 134.943 938.319 134.856 937.705 135.234C936.759 135.845 936.017 136.979 935.045 137.415C933.945 137.909 932.64 137.88 930.466 138.2C935.761 139.246 935.403 139.13 937.628 138.171C939.521 137.356 941.542 136.949 943.538 136.484C948.142 135.438 952.772 134.42 958.144 133.228ZM601.264 425.287C601.545 424.241 600.855 423.921 600.087 423.95C594.741 424.066 589.445 424.793 584.201 426.159C584.073 426.189 584.073 426.828 583.997 427.148C589.983 429.329 595.662 427.991 601.264 425.287ZM84.6555 349.692C84.5788 349.954 84.5276 350.215 84.4509 350.477C87.6485 351.233 90.8205 352.163 94.0437 352.687C96.8832 353.152 99.5693 352.483 101.846 349.198C98.6483 349.576 95.9623 350.099 93.2507 350.157C90.3857 350.215 87.5206 349.866 84.6555 349.692ZM934.866 306.457C938.677 307.271 941.772 306.981 944.842 306.574C945.175 306.515 945.584 306.283 945.763 305.963C946.096 305.469 946.428 304.887 946.454 304.306C946.454 304.044 945.686 303.492 945.303 303.55C942.54 303.928 939.777 304.393 937.04 304.945C936.477 305.091 935.991 305.672 934.866 306.457ZM884.804 147.126C880.966 147.155 877.436 148.172 874.264 150.615C877.922 150.091 881.939 151.138 884.804 147.126ZM50.9653 239.09C55.6211 240.399 58.3071 240.515 61.2233 239.526C58.2048 237.753 55.9281 237.666 50.9653 239.09ZM832.695 153.435C832.721 154.046 832.644 154.365 832.746 154.424C835.049 156.023 837.197 155.325 839.244 153.784C839.448 153.639 839.525 153.028 839.423 152.708C839.321 152.388 838.962 151.894 838.732 151.894C836.558 151.894 834.588 152.766 832.695 153.435ZM94.7856 236.357C93.1996 233.246 91.2299 233.624 88.5183 233.682C89.5671 235.194 90.0531 236.648 90.8461 236.881C91.8694 237.229 93.1228 236.619 94.7856 236.357ZM159.454 357.775C156.717 357.659 153.903 355.1 151.064 358.007C153.98 359.141 156.717 358.822 159.454 357.775ZM40.5283 442.093C38.8144 440.232 37.2028 441.453 35.6423 442.267C35.4377 442.383 35.3098 443.023 35.4121 443.343C35.5144 443.663 35.8981 444.012 36.2051 444.07C37.9446 444.506 39.4283 444.128 40.5283 442.093ZM-31.252 259.966C-34.9357 258.745 -36.1635 258.919 -39.8984 261.711C-36.4449 260.955 -33.7078 262.147 -31.252 259.966ZM104.788 349.576C108.241 350.041 108.241 350.041 111.746 347.366C108.753 348.093 106.578 347.831 104.788 349.576ZM42.7794 250.255C40.5795 248.307 40.5795 248.307 37.5865 250.517C39.4027 252.145 40.912 250.924 42.7794 250.255ZM-18.6405 244.644C-16.0057 245.341 -16.0057 245.341 -14.0104 244.12C-15.6732 243.161 -17.1057 243.422 -18.6405 244.644ZM528.307 439.505C530.251 440.464 531.428 439.796 532.911 437.906C530.737 437.179 529.407 437.295 528.307 439.505ZM50.0188 426.13C49.8398 425.316 49.8654 424.764 49.6607 424.618C49.2514 424.357 48.6631 424.124 48.2282 424.27C47.3328 424.56 46.6422 425.258 46.6677 426.421C46.6677 426.712 47.1794 427.235 47.3328 427.177C48.2538 426.886 49.1491 426.479 50.0188 426.13ZM143.671 393.566C141.369 393.653 140.141 393.712 138.324 393.77C140.192 394.846 141.42 395.253 143.671 393.566ZM294.369 99.9077C293.32 100.14 292.297 100.373 291.094 100.606C292.527 102.437 293.601 101.158 294.369 99.9077ZM771.173 25.9407C771.173 25.679 771.173 25.3883 771.147 25.1266C770.124 24.9812 769.126 24.7777 768.103 24.7195C767.924 24.7195 767.566 25.3301 767.591 25.5918C767.617 25.9116 768.026 26.4059 768.231 26.4059C769.229 26.3187 770.201 26.0861 771.173 25.9407ZM970.551 303.986C969.732 303.521 969.016 303.026 968.249 302.707C968.044 302.619 967.558 303.026 967.43 303.346C967.328 303.608 967.405 304.189 967.584 304.393C968.479 305.469 969.425 305.556 970.551 303.986ZM-8.66396 244.382C-8.17792 244.12 -7.69188 243.917 -7.28259 243.568C-7.20584 243.51 -7.53839 242.55 -7.58955 242.55C-8.10117 242.666 -8.58721 242.899 -9.09883 243.103C-8.97093 243.481 -8.84303 243.829 -8.66396 244.382ZM-27.5683 240.864C-27.3125 241.562 -27.2613 242.056 -27.0567 242.172C-26.4172 242.55 -25.6753 242.754 -25.2916 241.794C-25.1893 241.562 -25.4195 240.835 -25.5474 240.806C-26.1614 240.748 -26.8009 240.835 -27.5683 240.864ZM-72.0025 252.843C-73.3583 252.261 -73.8699 251.854 -74.3048 251.941C-74.7141 252.029 -75.0467 252.61 -75.4304 252.959C-75.0211 253.221 -74.5862 253.628 -74.1769 253.657C-73.6653 253.657 -73.1792 253.308 -72.0025 252.843ZM1017.21 116.597C1017.16 116.364 1017.13 116.073 1017.08 116.044C1016.44 115.87 1015.78 115.725 1015.11 115.637C1015.06 115.637 1014.99 115.899 1014.91 116.044C1015.52 116.335 1016.14 116.626 1016.75 116.859C1016.88 116.917 1017.06 116.713 1017.21 116.597ZM167.717 449.768C167.922 450.03 168.152 450.524 168.305 450.466C168.612 450.379 168.919 450.088 169.124 449.768C169.175 449.681 168.74 449.012 168.664 449.042C168.331 449.216 168.05 449.507 167.717 449.768ZM889.766 146.631C889.664 146.312 889.562 145.992 889.562 145.992C889.076 146.108 888.615 146.283 888.155 146.428C888.257 146.719 888.334 147.009 888.436 147.3C888.845 147.097 889.306 146.864 889.766 146.631ZM927.012 138.985C927.063 138.607 927.089 138.432 927.115 138.258C926.552 138.461 925.963 138.694 925.401 138.897C925.503 139.072 925.631 139.363 925.682 139.363C926.168 139.275 926.628 139.101 927.012 138.985ZM881.146 142.881C880.915 142.59 880.711 142.096 880.429 142.038C880.148 141.95 879.764 142.27 879.432 142.416C879.662 142.706 879.867 143.171 880.122 143.259C880.455 143.317 880.813 143.026 881.146 142.881ZM967.328 116.044C967.098 115.783 966.868 115.347 966.612 115.288C966.33 115.259 965.998 115.579 965.665 115.754C965.998 116.103 966.305 116.481 966.663 116.742C966.765 116.771 967.098 116.306 967.328 116.044ZM56.2606 250.662C56.0048 250.546 55.7234 250.4 55.4676 250.284C55.3909 250.488 55.3141 250.72 55.2374 250.924C55.5444 250.982 55.8257 251.04 56.1327 251.069C56.1583 251.069 56.2095 250.808 56.2606 250.662ZM281.169 99.8787L280.939 99.5588L280.785 99.8496L281.169 99.8787ZM56.8234 222.459C57.1304 222.663 57.3862 222.895 57.6676 223.041C57.7699 223.07 57.949 222.866 58.1024 222.75C57.9234 222.517 57.7699 222.139 57.5397 222.081C57.335 222.023 57.0792 222.314 56.8234 222.459ZM672.993 418.571C673.146 418.832 673.223 419.269 673.428 419.327C673.709 419.414 674.042 419.24 674.349 419.181C674.221 418.92 674.144 418.455 673.965 418.396C673.684 418.338 673.351 418.513 672.993 418.571ZM93.481 387.257L93.967 387.17L93.5577 386.879L93.481 387.257ZM229.137 490.444L229.035 490.793L229.495 490.764L229.137 490.444ZM832.849 55.7717L832.363 55.859L832.772 56.1497L832.849 55.7717ZM1000.3 120.202C1000.23 120.057 1000.17 119.824 1000.07 119.766C999.969 119.737 999.816 119.911 999.688 119.999C999.816 120.173 999.944 120.318 1000.07 120.493C1000.15 120.406 1000.23 120.289 1000.3 120.202ZM920.003 138.694L919.696 139.014L920.054 139.159L920.003 138.694ZM702.795 380.221L702.999 380.482L703.102 380.192L702.795 380.221Z" fill="#F7F7F7"/>
</svg>
