<svg width="997" height="497" viewBox="0 0 997 497" fill="none" xmlns="http://www.w3.org/2000/svg">
<path d="M68.1343 226.92C68.032 226.745 67.9041 226.454 67.8017 226.454C63.2227 226.193 58.6693 225.757 54.1926 224.594C53.8345 224.506 53.3485 224.187 53.1438 224.361C50.2276 226.629 47.03 224.913 43.9858 225.117C40.8905 225.321 37.7441 224.855 34.6232 224.797C33.7534 224.797 32.8581 225.233 31.9628 225.495C30.5302 225.902 29.1233 226.484 27.6907 226.745C21.3722 227.908 20.9629 227.734 15.6165 222.151L15.7956 222.268C14.7467 222.471 13.9537 221.25 12.6491 221.948C11.2166 222.704 9.4259 222.704 7.78871 222.965C7.25151 223.053 6.68873 222.936 6.15153 222.82C5.7934 222.733 5.2562 222.587 5.15387 222.326C4.07947 218.808 -0.0390739 221.017 -1.31812 217.877C-1.52277 217.383 -2.13671 217.15 -2.39252 216.947C-3.18554 218.11 -3.92739 219.157 -4.59249 220.116C-3.21112 220.436 -0.985573 219.069 -0.269302 222.384C-2.11114 223.576 -4.13203 223.256 -6.07619 223.285C-7.91802 223.314 -9.75985 223.169 -11.6017 223.024C-14.5435 222.82 -17.5365 222.849 -20.4527 222.355C-26.1061 221.395 -31.8618 221.192 -37.4385 219.505C-39.9199 218.779 -42.4524 218.75 -45.0105 220.203C-46.9035 221.279 -49.2569 221.337 -51.4313 221.832C-51.6615 224.71 -49.5127 222.733 -48.7709 223.547C-48.6686 223.721 -48.5662 223.867 -48.4639 224.041C-49.5895 224.594 -50.7406 225.146 -51.9685 225.728C-51.1499 228.897 -47.3128 228.025 -46.929 231.688C-48.7197 231.862 -50.5104 232.037 -52.2755 232.211L-52.1732 232.037C-52.5313 232.386 -52.9406 233.055 -53.2731 233.025C-54.9359 232.851 -56.5731 232.415 -58.2358 232.24C-58.594 232.211 -59.0033 232.851 -59.9242 233.665C-57.7754 234.072 -56.2405 234.421 -54.6545 234.654C-52.2755 235.003 -50.4336 235.991 -49.5383 238.782C-49.1802 239.916 -48.2848 240.818 -47.5174 242.01C-43.7826 241.196 -40.2268 242.184 -36.7222 243.812C-35.0339 244.597 -33.1153 244.743 -31.2991 245.15C-30.3781 245.353 -29.1247 245.121 -28.6131 245.731C-26.2852 248.406 -23.3689 247.04 -20.7341 247.505C-19.0969 247.796 -17.4086 247.621 -15.797 247.912C-11.4226 248.755 -7.09943 249.656 -2.57159 249.249C2.03299 248.842 6.71431 249.075 11.3445 249.104C12.6235 249.104 13.9026 249.307 15.1816 249.511C16.1025 249.627 17.0235 250.122 17.8932 250.034C20.5025 249.715 23.0862 250.529 25.5931 250.47C28.0744 250.412 30.3256 251.139 32.679 251.285C37.3092 251.546 41.9394 251.256 46.5951 251.168C48.8206 251.11 51.0462 250.965 53.2462 250.936C59.2065 250.848 65.1413 250.616 71.1017 250.732C75.9109 250.848 80.7202 251.372 85.555 251.721C87.934 251.895 90.4153 252.68 92.6409 252.128C96.299 251.197 98.7292 252.855 101.031 255.588C100.545 251.779 100.571 251.779 103.59 252.797C104.434 253.087 105.38 252.971 106.25 253.145C106.506 253.204 106.89 253.756 106.864 253.989C106.762 254.512 106.506 255.297 106.173 255.413C105.355 255.733 104.434 255.82 103.538 255.82C102.669 255.82 101.773 255.588 100.904 255.471C100.724 256.693 100.52 257.914 100.392 259.164C100.29 260.153 100.264 261.17 100.213 262.159C98.0896 263.496 96.2478 262.856 94.3804 261.606C92.8967 260.589 92.82 260.705 90.1595 260.938C90.7223 261.984 91.2595 262.973 92.0269 264.368C91.1828 264.659 90.5688 265.037 89.9549 265.037C86.6293 265.008 83.3038 264.921 79.9783 264.805C76.8318 264.688 73.5575 263.903 70.5901 264.63C68.3645 265.182 66.2157 262.769 64.2204 264.892C62.2251 264.63 60.2298 264.31 58.2089 264.136C56.5461 263.99 54.8066 263.612 53.2206 263.99C46.7742 265.531 40.251 264.601 33.779 265.299C33.0372 265.386 32.1418 265.037 31.579 265.415C28.6116 267.421 25.4652 266.607 22.3443 266.404C19.7606 266.229 17.1514 266.084 14.5421 265.938C14.184 265.909 13.8002 266.084 13.4421 266.026C11.7538 265.706 11.2933 268.759 9.70728 268.003C8.22359 267.276 6.89337 267.479 5.40968 267.654C3.20971 267.916 0.984169 267.741 -1.2158 267.538C-2.75066 267.392 -4.08087 267.276 -5.20644 268.904C-5.69247 269.602 -6.7413 269.922 -7.58547 270.125C-8.4808 270.329 -9.45288 270.329 -10.3738 270.154C-14.6458 269.369 -18.8667 269.922 -23.1387 270.474C-26.6433 270.939 -30.1991 270.765 -33.7037 271.027C-35.5199 271.172 -37.3362 271.637 -40.2268 272.161C-38.7175 273.033 -38.1292 273.701 -37.6431 273.614C-32.6293 272.684 -27.6154 273.585 -22.6015 273.498C-16.6667 273.382 -10.7319 273.265 -4.8483 272.597C0.344643 272.015 5.51201 271.899 10.7305 272.248C11.6514 272.306 12.5979 272.451 13.5189 272.393C18.149 272.131 22.7792 271.783 27.4093 271.521C29.1233 271.434 31.1697 272.248 33.779 273.963C35.3395 271.666 37.6417 271.463 40.1231 271.55C44.7533 271.666 49.409 271.666 54.0392 271.492C55.8043 271.434 57.3135 271.666 58.3112 273.353C60.2298 271.405 58.2344 270.532 58.081 269.282C57.3903 269.427 56.7252 270.329 55.7787 269.253C56.6484 269.34 57.3135 269.398 57.9531 269.457C63.8878 269.369 69.7971 269.224 75.7319 269.166C81.3085 269.108 86.8852 269.079 92.4618 269.049C93.1269 269.049 93.8176 269.224 95.6339 269.515C92.1804 271.317 89.6735 271.346 87.141 271.317C83.6108 271.259 80.055 270.852 76.5504 271.87C76.2179 271.957 75.9621 272.277 75.6295 272.509C75.9877 273.76 76.8574 273.847 77.8039 273.818C82.7922 273.614 87.7805 273.294 92.7688 273.236C96.1199 273.207 99.4454 273.498 102.797 273.702C103.334 273.731 103.922 273.876 104.408 274.196C109.678 277.627 115.971 277.423 121.394 280.302C122.187 280.709 123.21 280.505 124.157 280.563C126.203 280.65 128.25 280.767 130.296 280.796C135.003 280.854 139.633 281.174 143.061 285.535C144.903 285.099 146.566 284.866 148.126 284.314C150.403 283.5 152.526 283.994 154.649 284.837C155.212 285.07 155.212 285.128 155.161 287.803C154.445 287.745 153.703 287.832 153.063 287.599C152.193 287.28 151.375 286.64 150.428 287.309C147.563 289.344 144.238 288.501 141.142 289.082C140.094 289.286 138.789 289.169 137.843 288.646C135.284 287.251 132.471 287.309 129.836 286.465C126.561 285.419 123.287 285.012 119.885 285.826C118.452 286.175 116.892 286.175 115.434 285.913C111.571 285.215 107.759 284.285 103.897 283.5C102.183 283.151 100.801 282.366 99.7524 280.621C99.0106 279.4 98.8315 279.546 97.885 281.726C97.7571 282.046 97.399 282.366 97.1176 282.395C96.785 282.453 96.2222 282.308 96.1199 282.046C95.4036 280.418 94.7897 278.761 93.8944 276.551C92.7176 278.092 91.899 279.139 91.1316 280.127C92.5897 285.07 96.1455 286.204 99.8803 286.698C102.848 287.105 105.764 287.396 108.322 289.402C108.859 289.809 109.729 289.722 110.42 289.809C112.057 290.013 113.694 290.187 115.306 290.391C114.948 294.432 113.361 296.351 110.113 296.438C107.324 296.496 104.536 296.293 101.748 295.973C98.5501 295.595 95.4292 295.624 92.3851 296.816L92.4874 296.613C92.999 296.845 93.4851 297.194 93.9967 297.223C94.9176 297.31 95.8641 297.31 96.785 297.194C99.2664 296.845 100.929 300.916 103.436 299.113C105.534 297.601 107.759 298.183 109.882 297.572C110.394 297.427 111.034 297.427 111.545 297.63C112.21 297.892 113.003 298.241 113.336 298.851C113.668 299.462 113.489 300.422 113.515 301.148C112.978 301.439 112.645 301.759 112.338 301.73C103.794 301.119 95.2502 301.759 86.7061 301.352C85.7852 301.323 84.6852 301.468 83.9434 300.974C80.7713 298.851 77.369 299.782 74.1203 299.956C66.318 300.451 58.4647 300.189 50.7136 301.672C49.8183 301.846 48.7951 301.788 47.9509 301.439C45.9556 300.625 44.8044 301.875 43.3719 303.649C46.9788 303.562 50.3555 303.387 53.7066 303.387C55.5229 303.387 57.3135 303.678 59.1298 304.056C62.5576 304.754 66.139 304.405 69.6692 304.434C72.2784 304.463 74.8621 304.463 77.4714 304.376C79.6969 304.318 81.9225 304.085 84.148 303.998C89.6991 303.794 95.2502 304.143 100.827 303.329C103.308 302.951 105.917 303.969 108.527 303.823C113.515 303.591 118.529 303.358 123.492 303.649C128.48 303.969 133.468 304.783 138.405 305.742C140.119 306.062 141.68 307.429 143.777 308.563C145.594 308.679 148.049 308.65 150.403 309.086C153.242 309.609 155.979 309.26 158.691 308.504C161.761 307.632 164.83 306.789 167.9 305.829C173.937 303.94 180.077 304.289 186.216 304.608C187.495 304.666 188.774 304.87 190.284 305.044C190.028 306.702 188.595 306.207 187.905 306.847C187.188 307.516 186.523 308.214 185.551 309.173C187.623 311.412 190.181 313.127 189.465 317.023C191.435 317.111 192.739 316.965 193.942 317.285C195.144 317.605 196.244 318.448 197.395 319.059C198.828 315.977 198.828 315.977 202.025 316.529C202.128 319.931 203.381 322.344 206.476 323.391C207.576 323.769 209.086 324.35 208.421 326.793C205.939 326.822 203.381 326.996 200.823 326.822C197.318 326.56 193.814 327.054 190.258 326.415C187.393 325.891 184.349 326.618 181.381 326.531C169.103 326.211 156.798 325.804 144.519 325.455C139.889 325.339 135.233 325.339 130.578 325.31C121.266 325.223 111.955 325.077 102.643 325.077C97.2455 325.077 91.8223 325.688 86.4503 325.252C77.5225 324.525 68.5692 325.397 59.667 324.816C56.7252 324.612 53.7066 324.816 50.8927 323.216C48.9741 322.141 46.8765 322.751 44.8812 323.333L44.9579 323.187C45.0602 323.362 45.137 323.565 45.2905 323.711C46.3393 324.728 48.8462 322.955 48.8206 325.513C48.7951 327.607 46.4672 327.083 45.2137 327.636C43.5254 328.392 41.6324 328.799 39.8417 328.828C32.4232 328.915 25.0559 329.031 17.6374 328.043C12.1375 327.316 6.53524 327.985 1.18881 330.165L1.31672 329.962C1.3423 330.165 1.44462 330.398 1.39346 330.572C0.805096 332.666 -1.65068 331.445 -2.36694 333.305C-3.56925 333.102 -4.77156 332.898 -5.97387 332.695L-5.87154 332.491C-5.7948 333.102 -5.74364 333.713 -5.64132 334.556C-2.49485 335.05 0.651615 335.224 3.69576 334.207C8.83753 332.52 13.9026 332.491 19.0699 334.003C22.549 335.021 26.0791 334.788 29.507 333.393L29.3791 333.625C28.8163 333.16 28.2535 332.724 27.2047 331.881C29.4814 330.979 31.2209 330.689 33.0627 330.718C37.3348 330.805 41.6068 330.834 45.8788 330.805C51.4555 330.805 57.0066 330.689 62.5832 330.718C66.6506 330.718 70.7436 330.892 74.8109 330.921C76.1156 330.95 77.3946 330.805 78.6992 330.805C87.0387 330.863 95.3525 330.398 103.692 330.776C105.892 330.892 108.117 330.427 110.343 330.223C109.55 329.642 108.731 329.09 107.913 328.479C108.783 327.578 109.678 327.723 110.445 328.305C111.392 329.031 110.727 329.613 110.138 330.107C113.285 331.328 116.457 331.154 119.578 330.136C120.345 329.904 120.933 329.002 121.599 328.392C119.629 329.061 117.634 330.631 115.306 327.927C117.685 327.549 119.603 327.752 121.471 328.595C128.122 327.52 134.798 328.246 141.475 328.159C144.263 328.13 147.052 328.363 149.814 328.188C151.528 328.072 153.089 327.985 154.624 329.148C155.161 329.555 156.133 329.671 156.721 329.438C162.349 327.142 168.233 328.072 173.912 328.421C180.051 328.799 186.165 328.392 192.279 328.973C193.021 329.031 193.814 328.77 194.504 329.002C198.469 330.282 202.511 330.689 206.63 330.718C208.241 330.747 209.444 331.648 210.416 333.567C209.725 334.12 209.06 334.934 208.267 335.224C206.144 336.009 203.995 336.649 201.821 337.143C199.723 337.609 198.111 338.481 196.807 340.661C194.786 344.063 191.435 345.721 188.339 347.581C187.188 348.279 185.807 348.483 184.758 349.297C183.939 349.907 183.453 351.128 182.609 352.408C184.937 353.193 186.6 353.135 188.288 351.768C189.311 350.925 190.488 350.227 191.691 349.762C192.663 349.384 193.865 350.024 193.814 351.128C193.711 353.135 194.3 354.676 195.067 356.362C195.323 356.944 194.607 358.107 194.325 359.008C195.4 359.618 196.96 358.688 197.651 360.665C197.932 361.421 198.981 362.032 199.774 362.322C202.383 363.282 203.151 365.317 202.869 368.137C201.028 370.725 198.751 370.696 196.244 369.649C192.586 371.161 190.335 374.447 188.57 378.168C186.984 381.541 187.316 385.117 188.825 388.984C191.946 391.02 195.656 390.787 199.314 390.729C200.976 390.7 202.793 390.205 204.225 390.845C208.395 392.677 212.513 392.328 216.709 391.514C218.065 391.252 219.292 391.427 220.648 393.375C220.009 393.985 219.216 394.77 218.039 395.904C219.216 396.224 219.753 396.573 220.085 396.427C220.699 396.108 221.364 395.613 221.723 394.974C222.209 394.131 222.413 393.084 222.771 391.979C224.025 391.805 225.125 391.746 226.174 391.485C227.018 391.281 228.118 391.049 228.604 390.38C230.42 387.879 232.364 388.257 234.488 389.624C234.129 390.351 233.822 390.99 233.439 391.805C241.318 389.827 241.318 389.827 247.406 390.845C247.432 392.619 245.999 392.88 245.129 393.113C240.422 394.334 235.69 395.323 230.957 396.369C228.988 395.264 227.836 397.096 226.532 398.085C226.097 398.405 226.199 399.597 226.046 400.382L225.816 400.236C226.737 399.539 227.555 398.521 228.553 398.23C231.085 397.503 233.643 396.805 236.227 396.631C238.657 396.486 240.934 396.137 243.108 394.828C244.822 393.811 246.766 393.811 248.583 394.392C251.217 395.235 253.724 394.857 256.308 394.189C258.483 393.607 260.657 393.316 262.934 393.462C266.464 393.665 269.994 393.113 273.524 393.142C276.287 393.142 279.101 393.375 281.838 393.811C284.601 394.247 287.312 395.09 290.024 395.788C291.866 396.253 292.556 397.649 291.815 399.509C290.842 401.923 289.794 404.307 288.719 406.778C287.287 406.836 285.803 406.807 284.319 406.982C278.538 407.621 272.833 407.418 267.078 406.4C262.524 405.586 257.817 405.819 253.187 405.586L253.29 405.412C255.08 407.156 256.845 408.93 259.557 407.97C259.787 408.755 260.017 409.279 260.12 409.86C260.196 410.238 260.171 410.674 260.196 411.343C261.296 411.139 262.371 410.907 263.445 410.791C266.029 410.529 268.638 409.889 271.171 410.209C275.085 410.732 278.896 410.674 282.759 410.035C284.217 409.802 285.829 409.453 287.184 409.947C289.998 410.965 292.684 410.267 295.447 409.918C294.731 409.25 293.426 409.511 292.966 407.796C298.44 407.389 303.633 405.877 309.005 407.127C308.186 410.122 308.186 410.238 306.319 410.209C302.635 410.151 298.952 409.947 295.268 409.831C299.08 412.622 303.198 414.221 307.751 413.117C311.256 412.273 314.71 412.419 318.24 412.651C319.493 412.739 320.747 412.477 322.026 412.39L321.923 412.622C321.821 412.041 321.719 411.459 321.565 410.645C326.681 410.558 331.67 410.442 336.658 410.413C337.579 410.413 338.474 410.791 339.395 410.965C345.432 412.099 351.469 413.262 357.507 414.28C359.502 414.629 361.574 414.57 363.723 416.46C362.674 416.722 362.034 417.042 361.42 416.984C358.837 416.751 356.253 416.315 353.644 416.082C350.907 415.821 348.195 415.21 345.663 417.362C344.767 418.118 343.156 417.943 341.877 418.03C338.167 418.263 334.458 418.234 330.774 418.583C324.123 419.193 317.472 419.978 310.821 420.705C302.124 421.636 293.426 422.537 284.729 423.555C276.978 424.485 269.227 425.532 261.501 426.637C257.459 427.189 253.443 427.945 249.401 428.614L249.478 428.468C249.35 429.777 251.806 429.428 250.911 431.318C250.885 431.405 251.652 432.219 252.138 432.335C252.829 432.51 253.622 432.481 254.313 432.335C260.708 431.056 267.103 429.718 273.499 428.381C274.036 428.265 274.701 428.294 275.11 427.974C279.05 425.008 283.629 425.444 287.952 424.979C294.782 424.223 301.638 423.991 308.468 423.351C313.277 422.915 318.035 422.101 322.844 421.577C326.861 421.17 330.902 420.531 334.919 420.763C340.342 421.083 345.663 419.92 351.035 419.891C356.586 419.833 362.162 419.339 367.688 419.629C375.26 420.007 382.806 420.967 390.378 421.665C392.962 421.897 395.52 422.624 398.104 421.897L398.052 422.13C396.543 421.258 395.008 420.356 392.655 418.99C396.415 418.292 398.794 418.525 400.38 421.577L400.252 421.432C402.145 419.833 404.166 419.31 406.545 419.688C410.229 420.269 413.938 420.531 417.622 420.88C425.219 421.636 432.791 422.45 440.389 423.089C442.973 423.293 445.582 422.973 448.166 423.002C450.775 423.031 453.384 423.002 455.968 423.293C461.34 423.903 466.686 424.776 472.033 425.444C481.446 426.637 490.886 427.625 500.274 428.933C506.516 429.806 512.809 430.271 518.82 432.888C520.176 433.469 520.713 435.941 522.069 435.126C523.962 433.993 525.241 435.824 526.853 435.65C528.336 435.504 529.82 435.679 531.304 435.795C533.708 435.97 536.113 436.086 538.492 436.435C543.839 437.22 549.159 438.15 554.506 438.964C559.289 439.691 564.099 440.447 568.882 441.029C572.566 441.494 576.25 441.901 579.959 442.134C586.431 442.541 592.903 443.704 599.324 445.012C603.314 445.855 607.484 446.03 611.219 448.181C611.679 448.443 612.319 448.472 612.882 448.443C618.509 448.268 624.035 449.373 629.509 450.507C635.7 451.786 642.095 451.816 648.132 454.374C650.179 455.246 652.507 455.305 654.707 455.683C665.374 457.456 676.067 459.142 686.734 461.032C693.334 462.224 699.985 463.387 706.457 465.277C709.655 466.208 712.75 467.778 716.101 468.301C716.996 468.447 717.943 468.359 718.864 468.359L718.787 468.534C718.403 466.702 716.945 466.586 715.743 466.266C710.883 464.899 706.022 463.649 701.136 462.341C700.676 462.224 700.266 461.876 699.678 461.527C704.155 458.357 708.836 459.869 713.364 459.811C715.768 459.782 718.147 459.957 720.552 460.073C721.857 460.131 723.136 460.276 724.44 460.335C726.615 460.451 728.917 462.486 730.861 461.061C732.933 459.55 735.389 461.41 737.154 459.433C742.475 459.172 747.847 457.689 752.989 460.596C757.184 460.945 761.405 461.759 765.472 459.637L765.498 459.782C764.628 459.055 763.912 457.921 762.607 458.27C757.593 459.666 752.682 458.59 747.745 457.572C743.78 456.729 739.763 456.031 735.773 455.363C734.161 455.101 732.677 454.898 731.015 456.031C728.533 457.689 725.591 456.846 722.88 456.439C721.575 456.264 719.836 457.078 718.94 455.072C720.961 453.095 723.903 456.729 726.154 453.269C723.775 453.211 721.857 453.327 719.964 453.124C717.943 452.92 715.973 452.252 713.952 452.106C713.134 452.048 712.289 452.833 711.445 453.211C710.473 453.618 709.655 453.269 708.938 452.484L709.092 452.601C708.35 452.601 707.531 452.804 706.866 452.542C699.652 449.868 692.055 448.966 684.764 446.611C683.383 446.175 681.899 446.088 679.955 445.739C682.078 443.878 684.15 443.791 686.018 444.198C691.134 445.303 696.429 444.692 701.52 446.291C703.234 446.815 705.255 446.582 707.045 446.175C709.655 445.593 712.213 445.564 714.822 445.71C720.603 446.059 726.385 446.233 731.987 448.094C732.166 448.152 732.345 448.21 732.524 448.239C740.275 448.53 747.387 451.874 754.677 454.258C757.542 455.188 760.407 456.002 763.375 456.439C766.291 456.875 769.335 457.311 771.893 459.201C772.84 459.898 772.021 460.596 771.458 461.12L771.535 460.974C772.328 462.864 773.607 461.498 774.681 461.585C777.214 459.259 779.823 457.805 783.584 460.654C781.946 461.032 780.949 461.439 779.951 461.468C778.135 461.556 776.319 461.468 774.502 461.439C777.7 463.068 780.898 464.463 784.556 464.172C785.963 464.056 787.421 465.045 788.879 465.277C790.465 465.539 791.974 466.847 793.714 465.684C794.072 465.423 794.865 465.597 795.3 465.888C799.418 468.505 804.023 469.493 808.474 471.034C809.907 471.528 811.237 472.314 812.669 472.808C813.283 473.04 814.025 472.866 815.048 472.895C814.409 470.947 813.872 469.464 813.411 467.923C813.181 467.138 813.104 466.266 812.951 465.481C814.255 463.475 815.918 463.765 817.53 464.318C824.846 466.818 832.111 469.406 839.222 472.604C846.973 476.122 854.545 480.164 862.655 482.664C863.985 483.071 865.059 484.525 866.261 485.514L866.108 485.426C870.227 487.752 874.115 490.66 878.617 492.114C880.382 492.695 881.201 494.411 882.25 495.864C882.659 496.417 882.812 496.388 884.603 496.097C882.505 490.544 878.566 487.433 873.782 485.223C871.25 484.031 868.896 482.344 866.134 480.687C869.817 479.611 869.817 479.611 873.373 482.083C873.757 481.821 874.243 481.559 874.652 481.181C876.98 479.03 876.98 479.03 879.333 480.774C879.845 481.152 880.408 481.472 881.201 481.501C880.305 478.768 877.619 478.216 876.34 476.006C875.036 473.738 873.629 471.587 872.299 469.406C869.05 468.156 865.827 467.458 862.45 467.574C861.375 467.603 860.25 467.167 859.227 466.731C857.155 465.859 855.134 464.841 853.036 463.853C852.09 462.137 854.98 462.166 854.289 460.276C853.983 459.404 854.75 458.038 855.083 456.613C854.085 456.38 853.369 456.206 852.678 456.031C852.857 456.613 853.215 457.194 853.164 457.747C853.062 458.881 852.397 459.579 851.373 459.433C850.938 459.375 850.555 458.823 850.145 458.503C850.555 457.921 850.887 457.224 851.399 456.787C851.783 456.439 852.397 456.351 852.883 456.177C852.576 455.973 852.294 455.595 851.962 455.566C848.662 455.13 848.662 455.13 846.615 452.252C844.108 454.432 841.371 454.607 838.276 453.938C834.669 453.182 831.216 451.321 827.404 451.699C827.225 451.728 826.969 451.699 826.867 451.583C824.385 448.734 821.239 449.373 818.169 448.995C815.56 448.675 812.669 447.978 810.776 445.274L810.802 445.303C807.834 444.663 804.714 444.576 802.207 442.25L802.411 442.395C799.776 442.686 798.165 440.825 796.553 439.226C796.963 435.853 799.828 438.005 800.953 436.173C800.032 434.952 799.162 433.76 798.267 432.597C798.139 432.51 797.986 432.393 797.858 432.306C797.96 432.452 798.088 432.597 798.19 432.742C800.595 431.521 802.718 432.393 804.893 433.702C806.172 434.458 807.604 434.865 808.986 435.388C811.083 436.202 811.288 436.464 812.26 440.273C814.665 440.389 817.223 440.68 819.755 440.564C823.132 440.418 826.381 440.825 829.604 442.046C831.701 442.831 833.927 443.151 836.101 443.645C840.987 444.779 845.848 446.117 850.759 446.96C853.445 447.425 856.183 447.832 858.996 446.815C860.864 446.146 863.038 446.349 865.059 446.437C866.517 446.495 869.075 445.884 867.464 449.373C868.078 449.693 868.743 450.362 869.306 450.275C870.329 450.129 871.301 449.519 872.299 449.112C872.222 448.937 872.171 448.734 872.068 448.559C871.71 447.92 871.045 447.193 871.94 446.582C872.273 446.349 873.168 446.495 873.347 446.815C873.885 447.687 873.219 448.239 872.606 448.705C872.452 448.821 872.299 448.937 872.145 449.053C873.347 449.548 874.55 450.449 875.726 450.42C877.261 450.391 878.591 450.653 880.024 451.321C881.738 452.135 883.17 451.99 883.657 449.228C883.784 448.443 885.319 447.687 886.317 447.454C887.929 447.105 889.591 447.193 891.254 447.105V447.076C888.798 444.779 885.882 445.041 882.991 445.303C879.257 445.623 875.726 444.547 872.299 443.093C870.457 442.308 870.329 441.407 871.326 438.703L871.25 438.877C870.636 437.162 870.047 435.446 869.306 433.324C870.099 432.975 870.84 432.422 871.633 432.364C873.45 432.19 875.292 432.219 877.108 432.19L877.031 432.306C875.343 429.66 872.554 429.864 870.175 428.963C869.331 428.643 868.333 428.643 867.592 428.119C867.106 427.8 866.978 426.811 866.568 425.881C871.25 423.845 875.829 423.816 880.382 424.34C883.145 424.659 885.831 424.921 888.594 424.136C889.77 423.787 891.101 424.252 892.354 424.194C893.249 424.165 894.145 423.874 895.04 423.729L894.989 423.903C893.966 423.438 892.968 422.944 892.073 422.537C891.74 420.734 892.763 420.327 893.608 420.356C896.345 420.444 899.133 420.56 901.845 421.054C904.761 421.577 907.626 422.537 910.593 421.636L910.542 421.781C909.468 419.542 907.268 419.135 905.707 419.455C901.666 420.327 898.11 418.379 894.375 417.681C892.61 417.362 890.512 417.449 890.129 414.57C890.103 414.338 889.643 413.989 889.361 413.96C886.522 413.902 885.038 410.994 882.736 410.442C882.48 408.843 883.247 408.523 883.938 408.377C886.445 407.767 889.105 407.883 891.842 406.342C888.977 403.464 885.063 405.295 882.48 402.998C882.224 401.806 882.736 401.167 883.529 401.109C884.782 400.963 886.138 400.76 887.289 401.167C888.747 401.69 889.233 400.44 890.333 400.004C890.052 398.405 889.745 396.98 889.54 395.555C889.387 394.538 889.182 393.491 889.233 392.444C889.31 390.554 890.998 389.449 892.456 390.38C893.377 390.961 894.17 391.834 895.04 392.619C896.805 392.328 897.982 390.932 899.21 389.682C900.412 388.461 901.614 387.211 902.919 385.873C901.793 383.46 899.67 383.722 898.059 383.024C897.061 382.588 895.833 382.849 894.759 382.617C893.863 382.413 892.482 382.21 892.252 381.541C891.203 378.604 888.543 379.041 886.803 377.674C886.598 377.5 886.598 376.947 886.496 376.54C887.366 375.435 888.491 375.9 889.54 375.93L889.412 376.133C888.44 375.203 887.775 374.272 888.67 372.76C888.901 372.382 888.696 371.656 888.696 371.074L888.849 371.19C887.519 371.278 886.343 371.539 885.805 373.284C885.345 374.737 884.194 374.999 883.094 374.563C879.487 373.196 876.545 371.045 875.701 366.393C875.522 365.404 875.061 364.503 874.754 363.631C875.215 363.224 875.547 362.7 875.752 362.759C880.331 363.922 884.757 362.09 889.259 361.828L889.156 362.032C889.08 361.479 889.003 360.927 888.926 360.403L889.182 360.578C888.594 360.665 887.852 360.985 887.801 359.938C887.801 359.706 888.542 359.415 888.926 359.153L888.747 359.357C888.466 359.124 888.21 358.717 887.929 358.717C887.391 358.659 881.38 357.99 880.766 357.787C878.847 357.176 876.878 356.769 875.061 355.955C874.064 355.519 874.089 354.385 875.036 353.571L874.908 353.745C875.138 352.989 875.368 352.204 875.599 351.506C874.294 350.198 873.092 348.977 871.864 347.756L871.966 347.785C870.227 347.494 868.487 347.262 866.773 346.854C866.466 346.796 866.236 346.04 866.134 345.575C866.108 345.43 866.594 345.081 866.901 344.936C867.208 344.761 867.592 344.732 867.924 344.645L867.771 344.848C868.231 343.365 869.408 342.813 870.457 343.278C874.473 345.052 878.822 344.819 882.889 346.709C886.598 348.425 890.768 348.919 894.989 349.995C894.887 349.18 894.784 348.483 894.682 347.669C896.524 346.535 898.34 347.436 900.028 348.076C902.842 349.151 905.605 350.46 908.317 351.884C910.21 352.902 912 353.687 914.2 353.309C915.428 353.106 916.784 353.513 918.037 353.862C922.002 354.966 925.968 355.664 930.06 355.984C932.44 356.158 934.767 357.147 937.121 357.787C939.653 358.484 942.135 358.979 944.795 359.066C948.428 359.211 951.932 360.491 955.82 362.177C954.823 362.759 954.388 363.049 953.928 363.311L954.03 363.166C953.851 364.736 954.439 365.666 955.846 365.521C957.125 365.375 958.379 364.968 959.658 364.648L959.581 364.823C959.786 364.067 960.016 363.282 960.246 362.439C960.911 362.584 961.73 362.497 961.909 362.846C963.469 365.695 965.976 366.015 968.534 366.364C969.25 366.451 970.146 366.422 970.658 366.887C973.292 369.126 975.927 369.388 978.946 367.847C979.662 367.498 980.864 368.399 982.578 368.981C980.864 369.795 979.918 370.26 978.895 370.754C979.099 370.987 979.278 371.365 979.457 371.365C981.274 371.51 983.09 371.568 984.906 371.656C986.134 369.504 986.134 369.504 988.206 371.016C986.825 371.219 985.776 371.365 984.727 371.51C987.643 374.389 990.943 375.959 994.883 375.61V375.726C995.062 375.203 995.113 374.33 995.42 374.214C996.085 373.923 996.852 373.982 997.671 373.923C998.592 375.232 999.513 376.54 1000.43 377.878C998.362 378.634 996.443 379.331 994.55 380.058L994.652 379.855C997.262 381.425 999.948 381.192 1002.71 380.378C1002.89 379.477 1002.89 378.459 1003.32 377.819C1003.68 377.296 1004.58 377.209 1005.45 376.831C1004.14 376.453 1003.09 376.249 1002.15 375.784C1001.76 375.581 1001.35 374.621 1001.48 374.243C1001.71 373.604 1002.35 372.731 1002.84 372.731C1005.04 372.789 1007.21 373.08 1009.41 373.313C1009.85 372.702 1010.26 372.121 1010.92 371.19C1011.54 372.208 1012.02 372.993 1012.38 373.545C1020.64 374.156 1028.78 374.737 1036.89 375.348C1037.63 375.406 1038.58 375.406 1039.01 375.9C1041.82 379.157 1045.46 378.459 1048.91 378.75C1050.16 378.866 1051.42 379.012 1053.23 379.215C1052.34 377.732 1051.83 376.744 1051.21 375.871C1050.6 374.999 1049.88 374.214 1048.96 373.08C1051.9 372.266 1054.64 372.411 1057.3 372.906C1060.55 373.487 1063.54 373.196 1066.48 371.568L1066.36 371.772C1066.51 371.278 1066.64 370.347 1066.87 370.318C1069.43 369.882 1072.01 369.475 1074.57 369.242C1079.91 368.719 1085.23 367.992 1090.33 366.306C1091.27 363.544 1091.27 363.544 1094.57 362.119C1093.01 361.828 1091.86 361.915 1090.99 361.392C1089.56 360.491 1088.23 360.607 1086.72 360.811C1081.58 361.479 1076.41 362.119 1071.22 362.497C1069.6 362.613 1067.81 362.322 1066.38 361.537C1063.95 360.229 1061.42 360.258 1058.91 359.996C1054.15 359.502 1049.34 359.24 1044.59 358.862L1044.66 358.717C1044.71 358.921 1044.74 359.27 1044.84 359.299C1046.79 359.793 1048.86 359.88 1050.62 360.811C1052.54 361.828 1054.33 362.729 1056.46 362.41C1058.58 362.09 1059.81 363.573 1061.11 364.823C1060.86 365.433 1060.8 365.637 1060.68 365.782C1060.57 365.928 1060.4 366.131 1060.24 366.131C1058.2 366.131 1056.15 366.218 1054.1 366.044C1048.17 365.608 1042.26 365.055 1036.32 364.561C1035.38 363.834 1035.79 361.392 1033.79 362.003C1033.61 362.729 1033.46 363.456 1033.2 364.532C1031.74 364.532 1030.26 364.59 1028.8 364.532C1025.48 364.358 1022.13 364.241 1018.83 363.863C1013.48 363.282 1008.11 362.991 1002.94 361.13C1002.33 360.898 1001.82 360.316 1000.69 359.444C1002.92 358.426 1005.12 359.531 1006.34 357.583L1006.24 357.787C1005.27 355.781 1002.79 358.019 1001.92 355.403C1001.99 355.17 1002.2 354.617 1002.4 354.007C1002.2 353.832 1001.99 353.484 1001.71 353.396C1000.66 353.018 999.436 353.018 998.541 352.379C996.904 351.216 995.139 350.838 993.271 350.489C990.892 350.024 988.436 349.588 986.287 348.425C983.857 347.116 981.376 346.564 978.792 346.128C972.551 345.052 966.181 344.587 960.093 342.813C952.495 340.632 944.744 339.644 937.121 337.783C935.867 337.463 934.512 337.085 933.463 336.271C931.16 334.498 928.5 333.858 926.019 334.032C921.823 334.323 918.037 332.259 913.97 332.113C912.998 332.084 912.077 331.154 910.312 330.194C913.74 329.671 916.196 329.002 918.549 330.892C918.984 331.241 919.879 330.805 920.877 330.718C919.061 328.479 916.912 328.246 914.993 327.781C911.744 326.996 908.393 326.793 905.119 326.153C902.024 325.542 898.954 324.612 895.884 323.914C893.71 323.42 891.484 322.722 889.284 322.751C885.012 322.78 881.226 320.018 877.057 320.774C876.494 319.146 876.136 318.012 875.726 316.878C875.394 315.977 875.036 315.104 874.703 314.203C876.571 312.4 878.157 314.348 879.768 313.941C879.896 313.651 880.229 313.302 880.178 313.04C879.487 309.784 878.745 306.527 878.08 303.62C877.389 303.184 877.031 302.806 876.75 302.835C873.271 303.503 872.733 303.3 871.48 300.247C871.096 299.317 871.147 298.183 870.789 297.223C870.482 296.38 869.868 295.682 869.357 294.839C871.096 293.095 873.015 292.775 874.78 292.891C877.185 293.066 879.052 291.554 881.15 290.856C882.198 290.507 882.915 288.908 883.989 287.599C891.177 289.896 898.698 291.147 905.631 294.926C906.782 295.566 908.138 295.653 909.365 296.118C910.414 296.525 911.872 296.787 912.307 297.659C914.456 301.904 918.396 301.875 921.772 303.155C924.381 304.143 927.042 304.986 929.702 305.859C932.516 306.789 935.151 308.446 938.323 307.894C939.679 307.661 941.265 308.359 942.595 309.028C945.665 310.569 948.965 310.656 952.188 311.47C949.093 308.679 945.409 307.487 942.007 305.597C939.935 304.463 939.884 304.55 937.658 301.294C938.528 301.177 939.218 300.858 939.832 301.003C945.307 302.166 950.781 303.445 956.255 304.579C957.509 304.841 958.814 304.666 960.093 304.696L960.016 304.841C959.248 304.347 958.507 303.881 957.739 303.387C957.918 302.835 958.123 302.282 958.43 301.294C956.844 301.585 955.462 301.817 953.774 302.137C952.597 300.363 950.832 299.549 948.735 299.084C942.365 297.63 936.046 295.915 929.677 294.316C929.574 294.432 929.37 294.548 929.319 294.723C929.165 295.246 929.037 295.799 928.909 296.322C928.449 296.118 927.733 296.06 927.605 295.711C927.144 294.403 926.505 293.385 925.174 293.618C921.107 294.374 917.679 292.077 914.098 290.623C911.31 289.489 908.649 287.919 905.886 286.582C904.505 285.913 903.098 285.332 901.614 286.291C900.207 287.192 898.545 287.25 897.317 286.407C894.401 284.43 890.819 284.895 887.954 282.744C887.161 282.133 885.831 282.453 884.756 282.337C882.71 282.133 882.173 281.203 882.557 278.499C882.659 277.685 882.71 276.871 882.787 276.028C880.024 273.731 877.364 271.492 874.729 269.253L874.857 269.398C873.987 268.672 873.143 267.857 872.222 267.218C870.533 266.026 868.794 264.95 865.98 263.089C868.64 263.002 870.124 263.176 871.531 262.827C873.117 262.42 874.575 261.345 876.161 260.85C877.747 260.356 879.41 260.123 881.047 259.92C882.685 259.716 884.424 259.28 885.959 259.716C888.491 260.385 891.049 260.211 893.556 260.676L893.48 260.85C893.096 260.414 892.712 260.007 892.354 259.542C890.717 257.449 890.922 256.576 893.505 254.977C892.252 253.291 889.591 254.308 888.619 251.663C890.052 249.54 893.377 253.029 894.196 249.104C893.428 248.697 892.61 247.883 891.817 247.912C889.361 248.057 887.519 247.069 885.882 245.033C885.191 244.161 883.964 243.812 883.196 243.376C881.815 242.911 884.373 241.719 882.633 241.428C880.664 241.079 880.664 241.079 880.126 238.201C881.482 237.736 882.838 237.241 884.245 236.747C884.859 235.206 883.989 232.909 886.112 231.892C884.117 231.194 882.812 229.798 882.019 227.647C882.608 226.164 883.196 224.652 883.861 222.965C885.729 222.617 887.519 222.297 889.336 221.948C891.203 218.546 887.494 216.598 888.236 213.981C883.605 211.19 883.17 210.609 883.477 207.759C885.166 207.236 886.215 208.719 887.545 209.387C890.512 210.87 893.608 211.539 896.754 210.201C897.547 209.882 898.187 209.068 898.775 208.544C898.391 206.131 897.087 204.91 895.756 203.747C894.477 202.642 893.94 201.072 893.659 199.415C893.582 198.891 893.838 198.048 894.17 197.728C894.503 197.438 895.321 197.408 895.705 197.641C896.498 198.164 897.138 198.978 897.854 199.705C898.545 197.728 898.084 195.897 897.138 194.472C899.286 193.949 901.256 193.483 903.226 193.018L903.098 193.251C902.586 192.524 902.1 191.797 901.589 191.07H901.307L901.538 191.215C903.738 190.023 906.014 190.983 908.24 190.925L908.138 191.128C906.731 188.279 904.352 187.29 901.973 188.453C899.517 189.616 897.624 188.57 895.603 187.726C893.889 187 892.277 185.895 890.64 184.877C889.208 183.976 887.826 182.958 886.522 182.028C886.624 180.138 887.852 180.254 888.568 180.283C889.847 180.341 891.126 180.69 892.329 181.214C896.908 183.162 901.742 183.133 906.5 183.714C908.214 183.918 910.056 182.813 911.898 183.336C913.484 183.801 915.172 184.179 916.579 185.052C918.114 186.011 919.649 186.331 921.363 186.418C924.509 186.622 927.656 187 930.777 187.523C932.747 187.843 934.895 188.017 935.74 190.779C935.867 191.215 936.609 191.564 937.121 191.681C940.753 192.437 943.9 195.053 947.686 195.344C948.018 195.373 948.325 195.751 948.709 196.013C948.402 197.641 946.995 197.001 946.202 197.554L946.279 197.408C948.939 199.269 951.983 198.63 954.848 199.008C960.911 199.793 966.974 200.287 973.062 200.607C976.362 200.781 979.713 200.345 983.039 200.112C983.269 200.083 983.474 199.647 983.985 199.008C982.399 198.513 980.941 198.339 979.713 197.641C978.409 196.885 977.334 195.664 976.516 194.966C970.12 195.315 964.493 193.978 958.814 193.105C958.532 193.047 958.327 192.233 958.097 191.768C957.407 191.913 956.741 192.059 956.051 192.175C956.051 191.971 956.051 191.768 956.025 191.535C956.665 191.652 957.33 191.797 957.969 191.913C962.753 191.419 967.562 191.797 972.32 191.768C979.15 191.739 985.955 191.797 992.785 191.506C999.615 191.186 1006.47 191.215 1013.33 191.186C1019.36 191.186 1025.04 189.704 1030.13 186.418C1030.98 183.772 1030.06 181.708 1028.98 179.934C1030.08 178.829 1030.85 178.015 1031.64 177.23L1031.87 177.405C1030.77 177.405 1029.62 177.201 1028.57 177.434C1027.55 177.696 1026.65 178.539 1025.63 178.888C1024.22 179.353 1022.74 179.614 1021.1 179.992C1019.44 177.23 1017.11 176.329 1014.45 175.98C1011.71 175.631 1009 174.875 1006.16 174.294C1005.19 177.056 1003.53 178.568 1001.18 178.451C993.757 178.132 986.339 177.754 978.92 177.201C976.541 177.027 974.188 176.213 971.834 175.602C968.381 174.701 964.979 173.741 961.372 174.119C959.914 174.265 958.404 173.945 956.946 173.858C955.846 173.799 954.721 173.538 953.646 173.741C951.651 174.148 949.656 175.37 947.711 175.224C945.895 175.108 944.104 174.614 942.237 174.904L942.365 174.788C942.595 175.544 942.825 176.3 943.183 177.463C938.374 178.742 934.051 176.591 929.651 175.428L929.421 175.311L929.574 175.602C931.007 175.137 932.388 174.526 933.846 174.236C935.023 174.003 936.277 174.177 937.53 173.799C934.819 172.52 932.056 171.677 929.114 171.735C927.707 172.985 926.377 174.73 924.382 172.898C923.998 172.462 923.614 172.026 923.23 171.619C922.847 171.532 922.437 171.444 922.054 171.357C922.182 171.27 922.361 171.037 922.412 171.095C922.668 171.299 922.923 171.532 923.154 171.764C923.64 172.026 924.126 172.288 924.612 172.549C926.198 172.317 927.758 172.113 929.344 171.88C925.968 169.264 922.079 169.06 918.191 168.886L918.037 169.206C918.216 169.758 918.37 170.31 918.549 170.863C916.758 171.125 914.993 171.037 913.407 169.903C912.358 169.177 912.537 168.304 913.305 167.432L913.228 167.577C911.924 166.298 910.389 165.746 908.675 165.746C904.275 165.775 900.566 163.478 896.805 161.297C896.37 161.065 896.14 160.396 895.807 159.902L896.012 160.047C893.377 161.559 890.742 161.733 888.031 160.221C885.524 158.826 882.991 157.43 880.382 156.325C873.399 153.389 866.543 150.132 859.457 147.516C853.42 145.277 847.383 143.183 841.192 141.642C840.834 141.555 840.399 141.555 840.118 141.323C836.588 138.444 832.367 137.427 828.427 135.624C828.35 135.595 828.35 135.304 828.248 134.723C832.546 135.333 836.664 136.234 840.706 137.63C841.934 138.066 843.187 138.793 844.39 138.706C846.564 138.56 848.304 140.189 850.248 140.276C852.345 140.363 854.315 140.741 856.234 141.526C858.485 142.427 860.608 143.765 862.885 144.405C865.238 145.073 867.566 145.538 869.536 147.341C869.971 147.748 870.968 147.399 871.71 147.399C871.736 147.283 871.761 147.167 871.761 147.05C871.71 147.167 871.659 147.312 871.582 147.428C873.168 148.213 874.703 149.086 876.34 149.725C876.622 149.842 877.159 149.144 877.568 148.824C877.44 148.591 877.287 148.359 877.159 148.126C877.389 148.184 877.645 148.242 877.875 148.301C879.538 147.545 881.098 147.923 882.761 148.475C883.912 148.853 885.217 149.696 886.65 148.184C884.501 146.789 882.454 145.451 880.408 144.114L880.536 143.852C880.715 145.451 880.101 146.411 878.694 146.033C875.087 145.102 871.531 144.027 868.078 143.009C866.747 141.642 867.208 139.026 865.161 138.531C864.854 138.444 864.496 138.677 863.985 138.793C864.42 139.549 864.803 140.218 865.161 140.857C865.417 141.177 865.673 141.497 865.929 141.817C865.52 141.759 865.11 141.73 864.675 141.671C860.531 140.538 856.362 139.433 852.217 138.27C849.506 137.514 846.82 136.641 844.134 135.827C841.806 135.13 839.197 134.926 837.176 133.56C833.313 130.972 829.246 130.1 824.923 129.896C824.283 129.867 823.695 129.024 823.03 128.762C822.364 128.5 821.264 128.152 820.983 128.5C818.783 131.175 815.995 129.256 813.539 129.751C811.902 130.1 810.009 128.849 808.244 128.268C806.453 127.715 804.688 127.134 802.923 126.523C802.053 126.204 801.107 125.942 800.365 125.389C797.576 123.412 797.576 123.47 795.428 123.441C794.174 123.441 792.614 123.47 791.77 122.685C790.132 121.144 788.495 120.127 786.346 120.185C785.809 120.185 785.246 119.894 784.76 119.603C781.307 117.626 777.854 115.62 774.221 113.556C773.479 111.782 772.635 109.747 771.816 107.799C769.54 108.293 771.202 110.096 770.512 110.968C767.416 111.957 764.782 111.172 761.584 108.293L761.763 108.439C761.226 108.468 760.305 108.729 760.228 108.526C759.333 106.316 757.517 106.491 755.879 105.996C752.247 104.891 748.41 104.339 745.289 101.577L745.468 101.693C743.319 101.897 741.528 100.588 739.738 99.6289C736.924 98.1461 735.44 94.2791 735.952 90.6156C736.336 87.7662 735.005 85.1204 732.754 84.1609C730.171 83.0561 727.612 81.9221 724.978 80.7882C725.029 79.1019 725.054 77.6772 725.08 76.3979C725.515 76.0199 725.796 75.5547 726.078 75.5837C728.354 75.7582 730.657 74.8278 732.857 76.9212C734.366 78.3459 736.387 76.9212 738.229 75.8454C735.21 72.0656 731.961 69.7397 727.229 69.6234C723.033 69.507 718.864 67.9951 714.72 67.0938C715.078 62.9652 715.999 61.5986 718.48 62.3255C721.882 63.3431 725.54 62.7616 728.789 64.6806C729.582 65.1458 730.733 65.5238 731.475 65.204C734.647 63.8956 737.282 65.4656 740.019 66.774C741.196 67.3264 742.449 67.6463 743.601 68.0533C744.624 66.6286 743.728 65.7855 743.115 65.233C741.503 63.8083 739.687 62.7035 738.101 61.2788C736.643 59.9704 735.287 58.5458 735.133 56.1616C735.082 55.4929 734.468 54.6788 733.931 54.3008C730.324 51.7131 726.64 49.2417 722.982 46.7413C722.675 46.5377 722.266 46.3051 721.933 46.3342C718.531 46.625 716.101 44.2699 713.441 42.4963C709.782 40.054 705.69 38.8329 701.392 36.4487C701.776 37.8734 701.955 38.5421 702.134 39.2399C702.287 39.269 702.466 39.269 702.594 39.3271C702.645 39.3562 702.645 39.5597 702.671 39.676C702.517 39.4725 702.364 39.269 702.211 39.0945C701.699 39.0363 700.906 39.2108 700.676 38.891C698.297 35.5183 695.329 34.0936 691.492 34.6751C689.778 34.9368 688.397 33.7447 687.322 32.2037L687.425 32.0002C686.913 33.483 686.76 34.9077 688.243 35.8381C689.394 36.5359 690.546 37.2337 691.748 37.7571C695.38 39.298 699.038 40.6936 702.645 42.2928C704.155 42.9615 705.536 43.8629 706.585 45.5783C707.608 47.2065 709.296 48.3113 710.678 49.6488C710.78 51.1316 709.834 51.4514 708.913 51.4805C707.813 51.5096 706.713 51.3642 705.638 51.1607C704.001 50.8699 702.39 50.4629 700.778 50.0849L700.855 49.9686C700.318 50.8118 699.755 51.7131 698.68 51.4514C696.736 50.9862 694.792 50.4629 692.873 49.9104C689.343 48.8928 685.813 47.8171 682.283 46.8576C681.797 46.7122 681.208 46.9448 680.671 47.0029L680.722 46.8576C681.26 48.1078 682.948 48.6312 682.564 50.521L682.334 50.3756C683.408 49.9105 684.329 50.0849 684.994 51.1898L684.815 50.9862C686.632 51.3061 688.474 51.6549 690.315 51.9166C691.773 52.1492 693.359 51.9457 694.639 52.5563C695.815 53.1087 697.811 52.6726 697.964 55.144C697.964 55.3475 698.936 55.6383 699.422 55.5801C704.641 55.0858 707.199 59.1854 710.448 63.4304C709.322 63.8374 708.708 64.2735 708.094 64.2154C706.815 64.0991 705.587 63.7211 704.308 63.4594L704.41 63.256C704.871 64.1282 705.306 65.0295 705.69 65.7855C704.948 67.7626 703.464 67.908 702.313 67.6172C699.55 66.8322 696.813 66.8322 693.999 67.0066C692.567 67.0938 691.057 66.4542 689.625 66.0181C682.82 63.8956 675.99 61.8603 669.237 59.5634C664.606 57.9933 660.002 56.3361 655.244 55.3766C652.353 54.7951 649.411 54.5625 646.521 53.8065C640.356 52.1783 634.063 51.1025 628.077 48.8928C624.751 47.6717 621.375 46.6249 618.075 45.2293C616.693 44.6478 615.235 44.328 613.777 44.0954C612.447 43.8919 611.5 43.4849 610.503 42.2056C609.633 41.1298 607.893 40.7518 606.486 40.461C602.266 39.6179 598.019 39.0363 593.798 38.2804C592.161 37.9897 590.473 37.6699 588.912 37.0883C588.119 36.7976 587.557 35.809 586.891 35.1112L587.019 35.2275C583.131 34.8205 579.243 34.1808 575.354 34.0355C570.903 33.8901 566.503 33.2504 562.103 32.4654C555.324 31.2733 548.52 30.0522 541.715 29.209C537.878 28.7147 534.118 27.7843 530.306 27.261C525.548 26.5922 520.816 25.9235 516.058 25.2548C515.699 27.4936 517.388 27.4354 518.155 27.5226C520.202 27.8134 522.223 27.9297 523.911 29.4998C525.957 28.6275 528.004 27.6971 530.127 31.157C527.543 30.9825 525.65 30.8954 524.039 29.2672C522.197 29.2381 520.304 29.4125 518.488 29.1799C507.59 27.6971 496.795 25.3711 485.872 24.0918C484.107 23.8882 482.06 23.2486 480.781 21.9693C478.863 20.0794 476.663 19.8759 474.565 19.934C467.172 20.1375 457.682 19.2362 450.749 17.0847C452.105 16.6485 452.949 16.067 453.614 16.2415C455.405 16.7067 456.403 15.5437 457.554 14.2353C451.926 13.5375 446.401 12.6653 440.849 12.171C433.252 11.5022 425.706 10.6009 418.185 9.23441C416.727 8.97272 415.217 9.00177 413.734 8.85641C411.15 8.59473 408.541 8.44937 405.983 7.95508C399.408 6.67578 392.885 5.19293 386.336 3.88455C384.699 3.56473 382.985 3.53568 381.322 3.41937C379.276 3.27402 377.409 3.09952 375.874 0.977051C374.646 -0.738403 372.471 -0.505768 370.63 -0.62207C364.874 -1.00003 359.144 -1.37805 353.388 -1.69788C351.163 -1.81418 349.014 -1.81415 347.223 -3.93661C346.583 -4.69257 345.151 -4.8089 344.077 -4.86703C335.916 -5.30316 327.756 -5.62299 319.596 -6.00098C317.012 -6.11728 314.428 -6.3208 311.844 -6.46619L311.947 -6.64062C311.793 -5.82654 311.64 -5.0415 311.41 -3.82034C302.891 -4.28555 294.347 -4.75076 285.829 -5.24503C285.112 -5.27411 284.115 -5.33224 283.782 -5.85559C282.043 -8.47235 279.51 -8.21069 277.157 -8.327C272.526 -8.58865 267.896 -8.61771 263.266 -8.76309C258.431 -8.90848 253.597 -9.14108 248.762 -9.2283C247.483 -9.25739 246.178 -8.87939 244.899 -8.70493L244.95 -8.85031C246.715 -6.58246 249.504 -7.80362 251.55 -6.23358C253.648 -4.63446 256.103 -5.01242 258.534 -5.41946C259.941 -5.65207 261.45 -5.18689 262.882 -5.01242C263.164 -3.44238 263.42 -2.07581 263.675 -0.62207C263.931 -0.447601 264.238 -0.0696411 264.545 -0.0405579C268.408 0.104797 272.219 0.133881 275.852 2.16913C277.387 3.04138 279.485 2.95416 281.275 2.86694C284.626 2.6925 287.901 2.95413 291.201 3.47751C300.538 4.93124 309.926 6.09427 319.289 7.34448C319.826 7.40265 320.389 7.14096 320.926 7.02466L320.823 7.22821C320.107 6.67578 319.365 6.1524 318.163 5.25107C321.616 4.87311 324.456 4.58237 327.321 4.26254L327.27 4.40793C323.126 2.28543 318.649 2.72156 314.3 2.54712C312.638 2.48895 311.077 2.4599 309.44 2.05286C305.654 1.12244 301.817 0.570007 297.903 0.540924C296.573 0.540924 295.422 0.77356 294.194 1.15152C293.554 1.35504 292.787 0.977081 292.07 0.831696H292.224C289.691 0.860779 287.389 -0.62207 284.754 -0.505768C282.196 -0.389465 279.612 -1.23267 277.054 -1.69788C274.496 -2.16306 271.964 -2.65735 269.431 -3.47144C272.424 -4.02386 275.417 -4.25647 278.461 -4.14017C287.005 -3.79126 295.447 -2.59918 303.914 -1.49432C315.375 0.0175781 326.861 0.977081 338.372 1.32596C348.809 1.64578 359.041 3.56476 369.325 5.19296C373.904 5.91983 378.457 7.19913 383.164 6.82117C383.829 6.763 384.52 7.22818 385.799 7.66431C384.597 8.44934 383.881 8.91458 383.164 9.37979L383.215 9.23441C386.106 10.4265 388.894 12.0837 392.169 10.8044C392.808 10.5428 393.729 10.6881 394.343 11.037C396.646 12.3454 398.897 12.1419 401.352 11.5023C403.271 11.008 405.394 11.5022 407.441 11.7057C408.438 11.793 408.541 12.578 408.003 14.7005C427.726 17.4626 447.501 19.8177 466.865 25.1385C467.172 25.2257 467.377 25.72 467.914 26.3596C467.096 26.5922 466.456 26.9993 465.868 26.9121C450.673 25.0222 435.35 25.2257 420.206 22.6089C413.427 21.4459 406.545 20.9807 399.715 20.2248C398.973 20.1375 398.155 20.0794 397.49 20.3411C393.09 22.1147 388.639 21.0389 384.213 20.7191C376.974 20.1957 369.709 19.6142 362.52 18.5966C357.609 17.8988 352.493 17.9279 348.144 14.4679C347.274 13.7701 346.046 13.6829 344.972 13.3921C343.539 12.9851 342.004 12.8978 340.649 12.2582C338.653 11.3569 336.76 11.3569 334.663 11.6767C332.284 12.0256 329.828 11.7639 327.398 11.793C326.298 11.793 325.121 11.5895 324.072 11.8511C318.189 13.363 312.561 11.7058 307.035 9.90311C305.219 9.32162 303.479 9.03085 301.638 8.7692C293.835 7.72247 286.008 8.33307 278.18 8.01324C274.266 7.83881 270.429 7.43173 266.541 6.67578C261.424 5.68723 256.18 5.65817 250.987 5.28018C250.271 5.22205 249.478 5.39645 248.787 5.71628C244.311 7.78061 239.655 7.19916 234.999 6.96655C232.595 6.85025 230.216 6.67578 228.016 8.2749C227.146 8.91458 225.867 9.05994 224.767 9.0018C216.581 8.65289 208.421 8.10043 200.311 6.85022C197.804 6.44318 195.502 4.46609 192.458 5.83261C192.151 7.92603 191.256 9.75772 188.877 10.252C187.674 10.4846 186.6 11.5895 185.679 12.171C186.037 16.2996 189.721 15.8344 191.537 18.5384C191.23 21.097 191.204 24.0045 189.235 26.6504C188.365 26.5922 187.342 26.8248 186.6 26.3887C182.174 23.8592 177.161 24.4697 172.556 22.9287C171.584 22.6089 170.74 23.3067 170.842 25.1094C173.349 25.9816 176.061 26.0107 178.772 26.2433C179.847 26.3305 181.279 26.127 181.944 26.7957C183.991 28.831 186.421 28.6565 188.774 28.9182C193.353 29.4706 197.932 29.9068 202.435 30.4011C202.921 32.9597 201.155 33.483 200.158 34.6169L200.26 34.4134C201.079 35.1693 201.872 35.9253 202.562 36.594C202.537 38.0769 201.616 38.1932 201.028 38.2223C198.828 38.2804 196.602 38.3676 194.453 37.9897C191.691 37.4663 189.005 37.1174 186.242 37.8734C184.016 38.4839 181.867 37.8152 179.872 36.6813C178.209 35.7509 176.572 35.78 175.216 37.0011C173.656 38.4258 171.84 38.5712 170.075 39.0364L170.151 38.8619C170.689 39.4144 171.2 39.9668 171.916 40.6936C171.175 41.1007 170.561 41.4205 169.921 41.7694C169.844 42.0602 169.563 42.5835 169.691 42.758C171.686 45.6364 169.844 48.1369 169.102 50.7536C168.77 50.9281 168.463 51.2188 168.105 51.277C158.896 52.5854 149.763 54.6206 140.426 54.4753C138.61 54.4462 137.177 55.1149 135.77 56.1035C133.775 57.47 131.831 57.7317 129.426 57.0629C125.282 55.8999 121.01 55.7836 116.841 57.2955C116.329 57.47 115.741 57.6735 115.229 57.5863C111.571 57.0629 107.938 56.4814 103.41 55.7545C104.715 54.5043 105.252 53.632 105.969 53.3704C110.522 51.684 114.999 49.6488 119.68 48.6602C126.945 47.1483 134.287 46.0725 141.475 44.1536C143.342 43.6593 144.596 45.2294 146.208 45.5783C151.119 41.7694 156.926 42.9034 162.324 41.5077C157.003 39.9086 151.656 38.9491 146.156 39.4725L146.233 39.298C147.001 40.054 147.794 40.839 148.766 41.7985C147.973 42.2056 147.487 42.6417 147.026 42.6708C140.529 42.7871 134.133 43.543 127.84 45.6073C125.947 46.2179 123.799 46.0725 121.752 45.9853C118.759 45.869 115.741 45.491 113.668 48.7765C113.566 48.9219 113.387 49.0964 113.208 49.1254C108.987 49.7651 105.278 52.7598 100.878 52.5853C99.4199 52.5272 97.9362 52.6144 96.478 52.5853C92.1549 52.469 88.1386 51.3061 84.5829 47.9624C84.8643 46.8866 85.1201 45.9272 85.3247 45.1131C85.9131 44.8805 86.2712 44.5606 86.5782 44.6479C90.7735 45.7527 94.9688 45.9562 99.2152 45.2585L99.164 45.3747C98.371 44.9677 97.578 44.1826 96.785 44.1826C93.8432 44.1826 91.2851 41.2461 88.1642 42.7289C87.9084 42.8452 87.32 42.6417 87.1665 42.3509C85.7084 39.8214 82.8178 40.1122 80.7713 38.2223C81.0783 36.9139 81.4108 35.5764 81.769 34.0645C79.5434 31.7676 77.3179 29.3834 73.8389 29.0636C74.3249 31.5931 75.8853 32.6108 77.5993 33.483C79.1341 34.268 79.6969 35.7218 79.569 37.5826C79.4411 39.2399 77.9574 40.1703 76.7551 39.2108C75.7063 38.3676 74.7854 37.321 73.7365 36.4487C72.2784 35.1985 72.2528 35.2275 68.6203 34.7623C67.418 39.9958 67.418 39.9958 64.0158 41.8857C64.4506 42.5254 64.8599 43.1069 65.2181 43.7175C66.0367 45.1712 66.7785 46.6831 65.6529 48.3113C64.3227 50.2303 62.7111 50.6955 60.767 49.7651C58.7461 48.8056 56.7507 47.7589 54.7554 46.7413L54.8322 46.625C55.6508 48.166 56.8787 49.6197 57.2112 51.277C57.5949 53.2541 58.7972 54.4753 59.5135 56.0744C60.7925 58.8365 62.6088 59.9995 65.2436 59.7669C64.1692 58.9819 63.0181 58.3422 62.0716 57.3828C61.6111 56.9175 61.3298 55.7836 61.4832 55.1149C61.6367 54.5043 62.4553 53.9229 63.0693 53.7193C63.7344 53.5158 64.5274 53.7193 65.2436 53.8356C67.7762 54.2717 69.3622 55.6092 69.0296 57.3537C68.5692 59.796 66.7018 59.5925 65.0646 59.6506C67.6738 60.6682 70.4877 61.2788 72.1505 64.1863C75.3226 65.1167 78.2899 67.0066 81.7178 66.774C84.1736 66.5995 86.5782 66.9485 88.4968 68.8965C88.9572 69.3617 89.213 70.3212 89.2642 71.0771C89.3665 72.3564 87.141 72.8216 88.3433 74.7697C89.1875 76.1362 88.2154 77.5609 87.5759 78.8693C87.3968 79.2182 87.2177 79.8869 87.3456 80.0032C90.0316 82.5909 88.1386 87.0684 90.4665 89.7724C90.8246 93.465 93.3572 95.5293 95.3013 98.0297C95.6595 98.4949 96.0687 98.9601 96.4525 99.4253C98.4734 101.809 98.4734 104.223 96.5292 106.752C94.892 107.479 93.2037 108.526 91.4386 108.962C88.42 109.718 85.9898 111.492 83.7131 113.73C81.3341 116.085 81.2574 115.998 82.8945 120.272C80.7202 122.86 80.5922 126.029 81.6922 129.46C82.1271 130.797 82.0759 132.367 82.255 133.821L82.0759 133.734C82.6131 132.716 83.1503 131.728 83.6364 130.797C85.2991 129.896 87.448 130.536 88.8037 128.297C88.3433 127.018 87.8573 125.709 87.2433 124.052C88.2921 122.482 89.4177 120.796 90.4921 119.225C90.0828 118.964 89.6479 118.673 89.1875 118.411C89.4433 117.888 89.5456 117.365 89.8014 117.19C94.6106 114.37 99.5478 112.073 105.124 112.189C106.992 112.218 108.706 112.015 110.241 113.818C110.829 114.515 112.287 114.428 113.362 114.428C118.734 114.515 124.131 114.108 129.298 116.463C129.81 116.696 130.398 116.638 130.936 116.754C140.733 118.906 150.761 119.429 160.379 122.656C160.738 122.773 161.121 122.744 161.479 122.802C160.482 122.162 159.433 121.493 159.689 119.923C159.919 118.47 161.121 117.365 162.605 117.568C164.779 117.859 167.107 117.423 169.077 119.022C170.689 118.092 171.405 119.487 172.095 120.621C172.582 121.406 172.735 122.453 173.093 123.529C176.214 123.122 179.13 122.569 182.046 122.366C185.372 122.104 188.493 122.831 191.128 125.796C183.812 129.634 176.981 126.611 170.126 125.302C169.793 125.244 169.435 124.895 169.23 124.575C167.747 121.988 165.777 122.656 163.782 123.5C164.958 124.343 166.11 125.215 167.516 126.233C165.035 127.744 162.784 127.599 160.61 127.134C158.538 126.698 156.593 126.727 154.547 127.192C147.026 128.937 139.377 128.849 131.754 129.053C131.089 129.082 130.45 128.617 128.531 127.977C132.829 126.959 135.898 126.233 138.943 125.506L138.866 125.68C137.996 125.477 137.101 125.07 136.231 125.128C134.389 125.244 132.547 125.651 130.705 125.855C124.796 126.465 118.887 126.93 112.978 127.657C109.806 128.035 106.736 128.093 103.692 126.843C103.257 126.669 102.669 126.901 101.927 126.959C102.899 127.89 103.666 128.617 104.485 129.402C101.952 131.263 99.3431 130.826 96.785 130.71C96.7594 132.716 96.8873 134.548 96.7083 136.351C96.4269 139.113 95.5571 139.52 92.2316 138.56C92.2572 137.427 92.2828 136.234 92.2828 135.042L92.4362 135.071C90.6967 135.566 88.9572 136.031 87.2177 136.525L87.2945 136.351C87.448 137.136 87.5759 137.95 87.7805 139.026C86.3736 140.683 84.4806 141.701 82.4085 141.206C78.4946 140.247 74.2226 140.538 70.9994 137.019C70.1296 136.06 68.9273 136.351 68.0064 137.485C68.8506 140.828 71.9459 140.014 74.1458 141.817C74.4784 143.183 74.9133 144.928 75.476 147.254C72.9691 146.905 70.9994 146.556 69.004 146.323C66.9831 146.091 64.9622 145.829 61.6111 146.585C67.5459 148.068 71.1784 152.022 76.0388 152.604C78.9551 152.953 81.8713 153.418 85.0178 153.854C86.7317 152.284 87.6782 149.812 88.5991 147.196C92.2572 146.382 95.4804 148.62 98.9082 149.144C102.208 149.638 105.457 150.598 108.706 151.441C112.031 152.313 115.561 152.429 119.68 154.552C115.101 156.151 111.571 157.198 107.836 157.198C104.51 157.169 101.159 157.198 97.8338 157.314C96.8106 157.343 95.8129 157.808 94.1758 158.244C96.4013 158.913 97.885 159.378 99.3431 159.814C99.2152 161.413 96.9897 161.501 98.0896 163.565C98.371 164.117 97.2711 165.629 96.7339 166.821C94.0223 163.798 94.0223 163.827 89.9549 163.042C89.0851 162.867 88.2921 162.228 87.5247 161.675C87.3201 161.53 87.3712 160.919 87.2433 160.28C88.2921 159.756 89.3921 159.175 91.1316 158.302C89.52 157.721 88.5479 157.052 87.5247 157.023C79.3644 156.732 71.204 156.703 63.0693 156.267C59.5647 156.064 56.0856 155.395 52.6066 156.354C48.13 154.61 43.3719 155.947 38.844 154.901C38.5627 154.842 38.2045 155.191 37.8976 155.366C38.1534 157.692 39.6626 158.39 41.3766 158.535C44.523 158.826 47.6695 158.942 50.816 159.117C51.5322 159.146 52.2741 159.146 52.8624 159.146C53.5531 160.396 52.9392 160.803 52.2485 161.181C50.2788 162.228 48.2323 161.704 46.1858 161.675L46.0067 162.053C46.2625 162.373 46.4672 162.896 46.7486 162.954C49.8183 163.42 52.888 163.827 55.9577 164.234C58.1833 162.024 61.0484 165.455 63.2739 163.187C65.525 164.059 67.9041 164.67 70.0017 165.891C72.3296 167.228 74.8109 165.949 77.0621 166.996C79.1086 167.926 80.8225 169.671 83.1759 169.845C85.1968 169.991 87.2177 170.398 89.2386 170.572C91.413 170.776 92.9479 172.317 94.4827 173.77C95.8897 175.108 95.9408 177.376 94.6362 178.829C93.5874 179.992 92.3595 180.923 91.2084 181.97C91.4386 185.052 88.7526 185.226 87.2945 187.058C82.4085 185.255 77.4969 182.289 71.9715 184.528L72.0738 184.325C73.2761 184.732 74.4528 185.139 75.9109 185.633C75.5016 186.127 75.2458 186.738 74.8621 186.854C73.2505 187.261 71.5877 187.436 69.9761 187.843C66.3436 188.744 62.7879 189.326 59.0019 188.482C56.5205 187.93 54.0136 187.668 51.5322 186.825C49.5369 186.156 47.1835 186.825 44.9835 186.883L45.0347 186.767C45.6486 188.744 47.209 188.919 48.6416 189.064C58.5414 189.907 68.4668 190.721 78.3667 191.448C81.2829 191.652 84.2503 191.477 87.1921 191.419C88.9061 191.39 90.4921 191.681 92.0781 193.396C91.8479 194.326 91.6177 195.46 91.2595 196.565C90.7479 198.106 90.134 199.589 89.3921 201.566C88.4456 202.002 87.0898 202.642 85.734 203.253L85.8108 203.078C86.9875 204.706 88.5991 203.485 90.006 203.834C91.6944 204.299 93.1781 204.852 94.1502 206.625C95.0199 208.195 95.992 209.649 97.0664 211.423C95.9664 212.179 94.9432 212.847 93.5618 213.807C95.8129 215.29 97.6804 216.511 99.5478 217.732C99.4966 220.988 102.822 220.669 103.922 223.14C103.308 225.408 101.185 225.262 99.0873 226.396C101.773 227.094 104.69 225.728 106.352 229.042C101.39 232.473 96.478 230.99 91.5409 229.595C88.9572 232.182 88.9572 232.182 85.4271 228.373C87.8061 226.28 90.8246 227.327 93.3316 226.106L93.2804 226.251C93.1525 226.106 93.0246 225.815 92.8967 225.815C87.6014 225.669 82.3062 225.64 76.883 226.891C78.8016 227.617 80.7202 228.315 83.048 229.188C81.2574 230.874 79.7225 230.961 78.0853 230.467C75.5272 229.682 73.0459 229.769 70.4366 230.467C68.3134 231.019 66.0367 230.787 63.8111 230.728C61.7902 230.67 59.8461 230.409 57.774 230.99C55.9833 231.484 53.9113 230.67 51.2508 230.351C52.2229 229.449 52.5299 228.926 52.9136 228.868C56.0089 228.286 59.053 227.501 62.3018 227.879C64.246 228.083 66.2925 227.298 68.3134 226.949L68.1343 226.92ZM446.068 15.3983C446.17 15.5146 446.273 15.6309 446.375 15.7472C446.273 15.6018 446.17 15.4565 446.068 15.3111C445.94 15.282 445.838 15.2529 445.71 15.2239C445.838 15.282 445.966 15.3401 446.068 15.3983ZM922.821 344.441C922.668 344.558 922.514 344.79 922.386 344.761C921.977 344.674 921.593 344.528 921.184 344.383C921.261 344.238 921.388 343.976 921.44 343.976C921.875 344.15 922.284 344.383 922.719 344.587L922.898 344.819L922.821 344.441ZM974.725 366.218C975.16 366.364 975.595 366.48 976.055 366.626C975.953 366.771 975.85 366.916 975.748 367.062C975.416 366.771 975.083 366.48 974.75 366.189C974.265 366.335 973.804 366.48 974.136 365.579C974.316 365.782 974.52 365.986 974.725 366.218ZM874.422 167.461C874.601 167.519 874.78 167.519 874.959 167.606C875.061 167.665 875.138 167.839 875.215 167.955C874.985 167.723 874.754 167.461 874.524 167.228C874.089 167.258 873.654 167.258 873.194 167.287C873.296 167.17 873.45 166.909 873.501 166.938C873.808 167.083 874.115 167.287 874.422 167.461ZM314.837 386.804C314.403 386.716 313.968 386.658 313.533 386.571C313.661 386.484 313.84 386.251 313.917 386.309C314.224 386.484 314.479 386.716 314.761 386.92L315.068 387.036L314.837 386.804ZM702.773 455.13C703.617 455.014 704.462 454.927 706.124 454.723C704.41 456.293 703.617 456.061 702.876 454.927C702.492 454.927 702.134 454.927 701.75 454.927C701.827 454.81 701.98 454.607 702.006 454.636C702.287 454.752 702.518 454.956 702.773 455.13ZM975.057 186.68C976.055 185.197 976.055 185.197 977.718 186.622C977.257 187 976.797 187.348 976.362 187.697C976.311 188.773 975.671 189.122 974.93 188.86C974.52 188.715 974.213 188.104 973.855 187.697C974.264 187.348 974.648 187 975.057 186.68ZM148.791 134.723C146.898 135.159 146.898 135.159 145.21 133.443C146.924 134.17 147.794 134.519 148.689 134.897C148.842 134.955 148.996 134.955 149.098 135.042C149.149 135.071 149.124 135.246 149.149 135.362C149.021 135.159 148.894 134.926 148.791 134.723ZM558.19 40.5192C557.09 40.5773 555.99 40.7809 554.915 40.6064C554.378 40.5192 553.917 39.676 553.431 39.1818H553.125L553.355 39.3271C555.171 38.6874 556.527 40.1994 558.087 40.7227C558.343 40.8972 558.599 41.0426 558.855 41.217C558.624 40.9844 558.394 40.7518 558.19 40.5192ZM107.785 235.555C109.729 235.439 111.801 234.363 113.822 236.398C110.369 237.416 110.369 237.416 107.913 235.497C107.606 235.497 107.324 235.468 107.017 235.468C107.12 235.584 107.222 235.758 107.324 235.758C107.478 235.758 107.631 235.642 107.785 235.555ZM989.101 182.057C991.506 181.301 993.962 179.905 996.469 182.638C993.732 184.179 991.378 184.034 989.178 181.882C988.692 181.999 988.206 182.144 987.72 182.231C987.592 182.26 987.413 182.086 987.26 181.999C987.464 181.737 987.746 181.243 987.874 181.272C988.308 181.446 988.692 181.795 989.101 182.057ZM577.836 41.217C580.01 40.7809 582.184 40.1703 584.384 40.9553C585.101 41.217 585.766 41.5078 585.51 42.6126C581.34 42.787 580.547 42.6126 577.912 41.0426C576.352 41.7404 574.74 42.8743 572.668 40.1703C574.919 40.5192 576.48 39.8505 577.836 41.217ZM578.987 47.3809C579.908 47.2646 580.829 47.032 581.75 47.0901C586.201 47.2937 590.396 49.3289 594.898 49.1836C595.742 49.1545 596.51 50.2012 597.712 52.1492C597.124 52.1783 596.561 52.3237 596.024 52.2074C592.033 51.3642 588.017 50.492 584.026 49.5325C582.236 49.0964 580.496 48.4858 578.731 47.9333C578.117 47.817 577.503 47.7007 576.736 47.5554C577.605 46.2761 578.296 46.625 578.987 47.3809ZM933.233 344.528C936.481 344.18 939.398 345.488 942.391 346.622C944.846 347.552 947.302 348.454 949.783 349.239C951.881 349.878 954.081 350.14 956.409 351.652C955.488 352.059 954.976 352.524 954.567 352.437C952.214 351.914 949.809 351.419 947.507 350.634C942.57 348.977 937.684 347.145 932.798 345.401C931.8 344.994 930.751 344.703 929.805 344.15C929.498 343.976 929.447 343.22 928.986 341.883C930.853 343.046 932.056 343.802 933.233 344.528ZM881.073 341.33C878.54 341.621 876.008 342.086 873.475 342.086C871.045 342.086 868.743 341.098 866.85 339.295C866.466 338.917 866.62 337.87 866.517 337.114H866.21L866.44 337.26C871.838 336.242 876.443 338.713 880.971 341.505L881.15 341.737L881.073 341.33ZM137.638 299.985C134.389 301.381 131.166 301.381 127.891 299.869C126.715 299.317 125.385 299.229 124.131 298.939C122.596 298.561 121.394 297.747 120.729 296.031C120.371 295.101 119.961 294.17 119.578 293.211C120.78 291.699 122.085 290.914 123.952 291.088C130.578 291.699 137.101 292.949 143.573 294.519C143.828 294.577 144.008 295.043 144.212 295.304C143.803 295.857 143.419 296.409 142.959 297.049C144.238 297.165 145.338 297.281 146.387 297.369C146.591 300.974 146.003 301.439 143.24 300.073L143.317 299.956C141.808 299.869 140.324 299.782 138.815 299.695C138.431 299.782 138.022 299.898 137.638 299.985ZM552.894 43.1359C554.711 44.6188 556.885 44.9386 558.957 45.5201C560.134 45.8399 561.259 46.3051 562.717 46.8285C562.001 47.3228 561.669 47.7298 561.387 47.7007C557.908 47.2355 554.429 46.6831 550.924 47.4681C550.592 47.5554 550.183 47.3518 549.825 47.2937C545.987 46.5668 542.125 45.84 538.287 45.1712C535.729 44.7351 533.171 44.6188 530.562 44.6188C526.213 44.6188 521.557 44.8805 518.155 40.0831C518.692 39.0655 519.23 38.0478 519.767 36.972C520.278 35.9544 518.258 34.6751 520.202 33.6575C520.765 33.7738 521.685 33.6575 522.197 34.0936C525.318 36.8557 529.002 37.0302 532.711 37.4663C539.72 38.3095 546.627 39.8214 553.073 43.2523L552.894 43.1359ZM3.87482 237.997L3.7725 238.172C4.48876 235.7 6.40734 235.817 7.9422 236.107C13.2886 237.183 18.6351 235.962 23.9815 236.398C26.5652 236.631 29.1744 236.573 31.7837 236.718C34.393 236.863 34.879 237.154 36.8999 239.625C34.0092 240.294 31.2465 240.091 28.4582 239.887C23.342 239.509 18.0979 238.317 13.4421 242.155C13.1607 242.388 12.7258 242.417 12.3677 242.388C8.68405 242.242 4.94922 243.231 1.36788 241.312C0.421383 240.818 -0.755344 240.614 -1.82975 240.643C-3.646 240.701 -5.46225 241.079 -7.43198 241.341C-6.43432 243.434 -4.92505 243.841 -3.21112 243.667C-1.70184 243.522 -0.166977 243.347 1.3423 244.801C-1.42044 246.545 -3.7739 245.324 -6.07619 244.859C-8.09709 244.452 -10.0157 244.045 -12.1133 244.568C-16.6411 245.731 -20.9643 244.626 -25.0317 242.155C-26.848 241.05 -26.848 241.05 -26.3363 237.358C-23.9317 236.427 -21.348 236.224 -18.7644 236.049C-17.6388 235.962 -16.2318 235.933 -15.797 238.085C-15.5923 239.131 -14.2109 238.666 -13.3412 238.201C-13.3156 238.085 -13.29 237.997 -13.2645 237.881C-13.3412 237.997 -13.3924 238.114 -13.4691 238.23C-9.32498 239.16 -5.2576 239.247 -1.77858 236.805C0.395802 237.212 1.93066 239.015 3.87482 237.997ZM231.981 376.656C234.206 376.482 236.432 376.366 238.581 377.383C241.011 378.546 243.543 378.982 246.204 378.953C248.045 378.924 249.913 379.506 251.755 379.593C253.622 379.68 254.85 380.611 255.464 382.53C265.006 381.367 282.58 379.622 288.336 383.489C288.029 383.954 287.696 384.419 287.389 384.914C289.947 385.815 292.531 385.96 295.242 385.67C297.621 385.437 300.103 385.582 302.405 386.251C304.452 386.833 306.319 388.316 308.749 389.682C307.598 389.944 306.933 390.235 306.242 390.264C303.07 390.351 300 389.537 296.88 388.897C293.861 388.257 290.561 389.362 287.466 388.984C283.066 388.49 278.666 388.403 274.24 388.316C269.789 388.228 265.338 388.199 260.913 387.85C257.408 387.589 253.724 387.531 250.476 386.251C246.715 384.797 243.108 386.6 239.476 385.786C238.401 385.553 237.174 385.786 236.176 385.35C231.034 383.024 225.432 384.536 220.239 382.879C215.609 384.245 211.004 382.501 206.374 382.82C204.762 382.937 203.074 382.413 201.488 381.919C200.388 381.599 199.749 379.884 200.388 378.808C201.795 376.424 202.102 373.255 204.328 371.365C208.241 371.685 211.797 374.389 215.89 372.76C216.606 374.505 217.22 375.959 217.885 377.587C219.19 378.023 220.571 378.488 221.978 378.982L221.902 379.128C221.364 377.878 220.827 376.598 220.188 375.086C221.006 374.708 221.671 374.156 222.311 374.185C224.69 374.272 227.095 374.389 229.448 374.854C230.42 375.057 231.264 376.133 232.16 376.802L231.981 376.656ZM170.509 96.0236C168.668 95.9945 167.389 95.791 166.161 95.9654C164.882 96.1399 163.679 96.7795 162.4 96.954C157.975 97.5355 153.524 98.0879 149.073 98.4659C148.024 98.5531 146.924 98.0298 145.849 97.7681C144.545 97.4482 143.061 98.2333 141.961 96.8086C140.17 98.8148 138.073 97.5936 136.103 97.4192C133.698 97.1866 131.345 96.4306 128.94 96.2852C123.568 95.9654 118.171 96.0817 112.85 94.9187C112.517 94.8315 111.929 94.8315 111.801 95.035C109.755 98.6403 107.222 96.3143 104.869 95.7619C102.873 95.2967 100.904 94.7152 98.8827 94.3081C96.7083 93.872 95.4036 92.5345 94.2525 90.2957C92.2828 86.516 92.3595 82.7944 93.2037 78.8983C94.0734 78.6076 94.8153 78.4331 95.506 78.1424C98.7292 76.6886 101.671 73.9265 105.508 75.7582C105.764 75.8745 106.276 75.6419 106.531 75.4093C108.399 73.8102 110.471 74.5952 112.492 74.6243C113.413 74.6534 114.487 75.1476 115.229 74.7697C118.657 73.1124 122.136 73.6357 125.64 73.8683C126.152 73.8974 126.664 73.5776 127.278 73.4031C126.28 72.5599 125.436 71.804 124.592 71.0771C128.173 65.7563 130.526 64.3026 134.977 65.8145C137.356 66.6286 139.659 66.8612 142.063 66.9485C143.342 66.9775 144.673 67.2101 145.901 67.6463C151.835 69.8269 157.975 69.8269 164.063 69.3035C168.13 68.9546 172.147 68.0824 176.163 69.5943C176.674 69.7978 177.263 69.6815 177.826 69.6815C181.919 69.5943 186.012 69.6524 190.053 70.641C191.128 70.9027 192.304 70.9899 193.379 70.8445C198.111 70.2049 202.588 70.9608 206.681 73.8683C206.681 74.0719 206.63 74.3045 206.707 74.508C208.241 79.3926 207.269 81.5441 202.997 82.3001C197.676 83.2596 192.33 83.2596 186.984 82.5909C184.4 82.271 181.867 81.864 179.028 84.1028C180.767 84.5389 181.995 84.9169 183.223 85.1495C184.553 85.4112 186.216 84.7715 186.907 87.4464C179.872 88.5513 173.042 88.9001 166.212 89.3072C162.682 89.5107 159.151 89.7433 155.672 90.2957C151.426 90.9645 147.205 91.6914 142.908 90.6447C142.601 90.5575 142.191 91.1971 141.424 91.8367C144.98 92.9125 148.049 93.1161 151.221 92.8253C155.826 92.3892 160.456 91.9531 165.061 91.6914C166.519 91.6042 168.003 92.0403 169.461 92.3311C169.793 92.3892 170.075 92.7671 170.484 93.116C170.509 93.7848 170.509 94.5989 170.509 96.0236ZM266.541 353.629C270.71 353.6 274.778 353.396 278.819 353.629C283.015 353.862 287.184 352.844 291.431 354.734C295.012 356.333 299.335 355.373 303.684 358.426C299.361 359.124 295.984 359.996 293.81 363.369C294.628 364.968 296.598 365.114 296.752 367.236C293.529 366.858 290.561 366.684 287.696 366.102C284.754 365.492 281.633 366.509 278.845 364.212C280.636 364.067 282.452 363.922 284.243 363.776C283.322 362.991 282.426 362.613 281.505 362.584C271.81 362.206 262.294 360.2 252.701 358.833C251.985 358.717 251.141 358.746 250.552 358.339C249.606 357.699 248.608 356.74 248.89 355.315C249.069 354.385 249.632 353.164 250.297 352.786C251.934 351.884 253.75 350.867 255.49 350.867C260.145 350.925 264.724 350.489 269.303 349.704C269.789 349.617 270.301 349.878 270.966 349.995C269.738 351.855 266.643 350.314 266.541 353.629ZM134.236 108.933C140.068 108.468 144.852 108.119 149.635 107.683C151.452 107.508 153.268 107.101 155.084 106.898C155.8 106.81 156.645 106.636 157.207 106.985C159.228 108.264 161.172 107.712 163.142 106.927C167.568 105.182 172.121 104.543 176.802 104.63C182.507 104.717 188.212 106.345 193.942 104.891C194.607 104.717 195.425 105.008 196.116 105.328C196.525 105.502 196.781 106.084 197.088 106.491C195.783 108.293 194.172 107.159 192.791 107.537C192.1 107.712 191.46 108.061 190.13 108.613C193.046 109.02 195.118 109.311 197.676 109.66C196.858 110.561 196.551 111.143 196.116 111.404C193.865 112.596 191.46 112.509 189.03 112.364C186.907 112.247 184.681 111.521 182.788 113.207C186.625 115.068 191.358 113.294 194.99 116.958C189.516 118.993 182.046 118.266 176.623 115.3C176.828 113.003 179.488 115.097 179.821 113.033C176.112 110.561 173.195 112.916 170.663 115.039C169.665 114.922 169.051 115.039 168.565 114.777C165.265 113.003 161.812 112.8 158.231 113.033C156.977 113.12 155.672 112.567 154.393 112.306C153.882 110.009 152.193 110.416 150.787 110.416C149.507 110.416 148.203 110.619 146.898 110.794C143.752 111.172 138.354 110.474 134.236 108.933ZM695.022 451.816C694.92 452.135 694.843 452.455 694.741 452.775C694.204 452.862 693.666 453.066 693.155 453.008C684.841 452.048 676.425 451.554 668.213 449.897C662.918 448.821 657.597 447.803 652.302 446.756C636.365 443.616 620.377 440.767 604.338 438.267C603.084 438.063 601.856 437.511 600.654 436.958C600.168 436.755 599.656 436.231 599.503 435.708C599.375 435.243 599.707 434.167 599.912 434.138C600.986 433.993 602.112 433.934 603.186 434.138C606.845 434.836 610.528 435.563 614.135 436.464C618.126 437.452 622.347 436.609 626.209 438.586C626.695 438.819 627.36 438.935 627.847 438.761C630.174 437.889 632.246 439.052 634.395 439.575C635.674 439.895 637.005 440.331 638.258 440.156C641.532 439.691 644.525 440.796 647.544 441.814C648.772 442.221 650.051 442.57 651.33 442.715C665.451 444.198 679.264 447.687 693.104 451.001C693.769 451.118 694.383 451.525 695.022 451.816ZM305.833 376.831C303.147 378.023 300.538 377.819 297.954 377.558C291.482 376.889 285.01 376.075 278.538 375.348C274.292 374.883 270.045 374.476 265.773 374.04C263.368 373.778 260.989 373.429 258.585 373.226C253.571 372.819 248.557 372.528 243.543 372.179C242.264 372.092 240.985 372.004 239.987 370.725C239.067 369.562 239.476 368.486 239.68 367.236C239.962 365.433 238.248 364.968 237.506 363.834C235.818 361.13 236.79 358.514 239.783 357.758C240.269 357.641 240.832 357.903 241.65 358.048C241.676 359.124 241.522 360.171 241.727 361.13C241.957 362.293 242.469 363.398 242.622 363.834C246.664 364.91 250.22 365.404 253.443 366.887C255.49 367.847 257.485 367.323 259.378 367.963C261.373 368.632 263.241 368.922 265.364 368.632C269.278 368.137 273.166 368.835 276.85 370.551C278.436 373.371 281.096 372.819 283.424 373.167C285.445 373.458 287.543 373.226 289.538 373.604C294.935 374.563 300.282 375.726 305.833 376.831ZM209.137 140.741C203.535 141.991 194.274 141.73 189.235 140.479C184.886 139.404 180.512 138.619 176.137 137.717C170.305 136.525 164.472 135.362 158.665 134.141C158.052 134.025 157.489 133.53 156.645 133.094C161.812 129.605 162.324 129.46 166.57 129.082C171.558 128.646 176.495 128.646 181.305 130.565C185.142 132.106 188.825 134.257 193.072 133.967C193.584 133.938 194.223 134.257 194.581 134.664C196.218 136.583 198.393 136.118 200.362 136.409C202 136.671 203.714 136.554 205.351 136.816C207.295 137.194 208.753 138.299 209.137 140.741ZM230.113 367.992C224.076 369.824 217.911 370.58 211.72 366.8C211.388 365.521 211.055 364.125 210.672 362.613C211.9 360.898 213.051 359.299 214.176 357.699C216.658 357.583 219.139 358.252 220.827 355.344C221.313 354.501 222.797 354.21 223.871 354.065C227.146 353.629 230.446 353.367 233.874 353.018C232.927 355.403 230.471 353.978 229.704 355.664C230.676 356.013 231.853 356.1 232.62 356.798C233.695 357.729 233.976 359.299 233.797 360.811C233.695 361.625 233.49 362.497 233.132 363.166C232.339 364.59 231.418 365.928 230.113 367.992ZM692.029 80.1776C686.657 78.5494 681.234 77.0375 675.888 75.2058C672.716 74.101 669.697 72.5018 666.192 70.9318C664.965 71.6877 663.276 71.804 661.383 71.019C659.132 70.0886 656.753 69.5362 654.425 68.8383C652.507 68.2569 650.588 67.6463 648.388 66.9775C649.053 66.5124 649.36 66.0762 649.642 66.1053C656.293 67.0066 662.918 67.937 669.569 68.9546C670.644 69.1291 671.667 69.7688 672.716 70.2049C676.911 71.8622 681.055 73.8683 685.378 75.0604C688.218 75.7873 690.341 77.4155 692.029 80.1776ZM863.806 476.093C863.678 476.529 863.524 476.966 863.396 477.402C859.687 477.896 856.08 476.878 852.78 475.105C849.787 473.477 846.257 473.244 843.776 470.365C839.197 468.766 834.592 467.167 830.039 465.51C829.578 465.335 829.22 464.87 828.836 464.55C829.271 462.951 830.218 463.271 831.139 463.329C834.285 463.562 837.201 465.423 840.425 464.899C840.757 464.841 841.141 465.132 841.474 465.277C844.057 466.498 846.846 467.313 849.148 468.999C852.831 471.703 856.873 473.069 860.966 474.436C861.964 474.785 862.859 475.541 863.806 476.093ZM39.151 243.522C40.0719 242.097 41.2742 242.824 42.2975 242.62C43.4998 242.359 44.7021 241.37 45.8532 241.457C51.9159 241.893 57.9786 242.649 64.0925 242.359C64.7832 242.329 65.8832 242.475 65.832 244.016C61.56 244.655 57.3903 245.673 53.195 245.818C48.7951 245.964 44.344 245.295 39.944 244.888C39.6371 244.83 39.4068 243.958 39.151 243.522ZM880.843 335.864C882.71 334.003 883.912 334.701 885.166 335.05C888.031 335.864 890.87 336.94 893.761 337.318C897.087 337.725 900.335 338.19 903.533 339.353C905.989 340.254 908.572 340.545 911.105 341.214C911.514 341.33 911.872 341.854 912.435 342.377C911.719 342.813 911.233 343.365 910.798 343.307C907.524 342.929 904.172 342.755 900.975 341.941C896.498 340.778 892.124 339.091 887.673 337.696C886.445 337.318 885.14 337.202 883.861 336.882C882.991 336.678 882.147 336.329 880.843 335.864ZM116.38 147.864C114.155 147.835 112.466 148.126 110.88 147.777C104.715 146.469 98.6013 144.928 92.5897 143.532C92.206 142.253 92.6921 141.555 93.4595 141.439C94.3548 141.323 95.2757 141.497 96.1711 141.671C97.9873 142.079 99.8291 143.067 101.62 142.951C105.61 142.66 109.294 144.434 113.208 144.521C114.641 144.579 115.638 145.538 116.38 147.864ZM965.592 184.179C951.676 182.202 949.4 181.65 946.356 179.266C948.325 179.324 950.167 179.207 951.958 179.44C956.358 179.992 960.732 180.661 965.106 181.417C966.13 181.592 967.358 181.97 967.562 183.54C967.767 185.168 968.995 185.197 969.992 185.72C970.504 186.011 971.502 186.273 970.811 187.726C968.534 188.075 966.334 187.494 964.16 186.011C964.595 185.43 964.953 184.993 965.592 184.179ZM912.64 294.694C912.819 294.403 912.998 294.112 913.151 293.821C915.786 294.694 918.421 295.566 921.056 296.409C923.716 297.252 926.863 297.34 928.935 299.055C931.212 300.945 934.844 299.346 936.174 303.213C935.33 304.259 934.332 304.579 933.207 304.085C931.826 303.503 930.495 302.718 929.114 302.137C924.561 300.276 919.982 298.503 915.454 296.584C914.456 296.177 913.586 295.333 912.64 294.694ZM94.9688 241.021C102.771 240.352 110.369 240.876 117.966 241.341C118.58 241.37 119.168 242.097 120.217 242.824C118.861 243.318 117.992 243.929 117.147 243.87C109.985 243.434 102.848 242.853 95.7106 242.271C95.506 242.271 95.3525 241.69 94.9688 241.021ZM995.292 353.367C993.425 355.49 991.736 355.112 990.508 354.618C986.108 352.815 981.453 353.077 977.002 351.855C976.285 351.652 975.467 351.739 974.853 351.361C973.906 350.751 973.164 349.617 972.192 349.18C971.092 348.686 969.788 348.715 967.613 348.395C972.909 347.349 972.551 347.465 974.776 348.425C976.669 349.239 978.69 349.646 980.685 350.111C985.29 351.158 989.92 352.175 995.292 353.367ZM638.411 61.3079C638.693 62.3546 638.002 62.6744 637.235 62.6454C631.888 62.5291 626.593 61.8022 621.349 60.4356C621.221 60.4066 621.221 59.7669 621.144 59.4471C627.13 57.2664 632.809 58.6039 638.411 61.3079ZM121.803 136.903C121.726 136.641 121.675 136.38 121.599 136.118C124.796 135.362 127.968 134.432 131.191 133.908C134.031 133.443 136.717 134.112 138.994 137.397C135.796 137.019 133.11 136.496 130.398 136.438C127.533 136.38 124.668 136.729 121.803 136.903ZM972.013 180.138C975.825 179.324 978.92 179.614 981.99 180.022C982.323 180.08 982.732 180.312 982.911 180.632C983.243 181.126 983.576 181.708 983.602 182.289C983.602 182.551 982.834 183.103 982.45 183.045C979.688 182.667 976.925 182.202 974.188 181.65C973.625 181.504 973.139 180.923 972.013 180.138ZM921.951 339.469C918.114 339.44 914.584 338.423 911.412 335.98C915.07 336.504 919.086 335.457 921.951 339.469ZM88.1131 247.505C92.7688 246.196 95.4548 246.08 98.371 247.069C95.3525 248.842 93.0758 248.93 88.1131 247.505ZM869.843 333.16C869.868 332.549 869.792 332.23 869.894 332.172C872.196 330.572 874.345 331.27 876.392 332.811C876.596 332.957 876.673 333.567 876.571 333.887C876.468 334.207 876.11 334.701 875.88 334.701C873.706 334.701 871.736 333.829 869.843 333.16ZM131.933 250.238C130.347 253.349 128.378 252.971 125.666 252.913C126.715 251.401 127.201 249.947 127.994 249.715C129.017 249.366 130.271 249.976 131.933 250.238ZM196.602 128.82C193.865 128.937 191.051 131.495 188.212 128.588C191.128 127.454 193.865 127.774 196.602 128.82ZM77.676 44.5025C75.9621 46.3633 74.3505 45.1421 72.79 44.328C72.5854 44.2117 72.4575 43.5721 72.5598 43.2523C72.6621 42.9324 73.0459 42.5835 73.3528 42.5254C75.0923 42.0893 76.576 42.4672 77.676 44.5025ZM5.89571 226.629C2.21205 227.85 0.984169 227.676 -2.75066 224.884C0.702778 225.64 3.43994 224.448 5.89571 226.629ZM141.935 137.019C145.389 136.554 145.389 136.554 148.894 139.229C145.901 138.502 143.726 138.764 141.935 137.019ZM79.9271 236.34C77.7272 238.288 77.7272 238.288 74.7342 236.078C76.5504 234.45 78.0597 235.671 79.9271 236.34ZM18.5072 241.951C21.142 241.254 21.142 241.254 23.1373 242.475C21.4745 243.434 20.042 243.173 18.5072 241.951ZM565.455 47.0901C567.399 46.1307 568.575 46.7994 570.059 48.6893C567.885 49.4162 566.555 49.2999 565.455 47.0901ZM87.1665 60.4647C86.9875 61.2788 87.0131 61.8313 86.8084 61.9766C86.3991 62.2383 85.8108 62.4709 85.3759 62.3255C84.4806 62.0348 83.7899 61.3369 83.8154 60.174C83.8154 59.8832 84.3271 59.3599 84.4805 59.418C85.4015 59.7088 86.2968 60.1158 87.1665 60.4647ZM180.819 93.0288C178.516 92.9416 177.288 92.8835 175.472 92.8253C177.34 91.7495 178.567 91.3425 180.819 93.0288ZM331.516 386.687C330.467 386.455 329.444 386.222 328.242 385.99C329.674 384.158 330.749 385.437 331.516 386.687ZM808.32 460.654C808.32 460.916 808.32 461.207 808.295 461.468C807.272 461.614 806.274 461.817 805.251 461.876C805.072 461.876 804.714 461.265 804.739 461.003C804.765 460.683 805.174 460.189 805.379 460.189C806.376 460.276 807.348 460.509 808.32 460.654ZM1007.7 182.609C1006.88 183.074 1006.16 183.569 1005.4 183.888C1005.19 183.976 1004.71 183.569 1004.58 183.249C1004.48 182.987 1004.55 182.406 1004.73 182.202C1005.63 181.126 1006.57 181.039 1007.7 182.609ZM28.4837 242.213C28.9698 242.475 29.4558 242.678 29.8651 243.027C29.9419 243.085 29.6093 244.045 29.5582 244.045C29.0465 243.929 28.5605 243.696 28.0489 243.492C28.1768 243.114 28.3047 242.766 28.4837 242.213ZM9.57938 245.731C9.83519 245.033 9.88636 244.539 10.091 244.423C10.7305 244.045 11.4724 243.841 11.8561 244.801C11.9584 245.033 11.7282 245.76 11.6003 245.789C10.9863 245.848 10.3468 245.76 9.57938 245.731ZM-34.8548 233.752C-36.2106 234.334 -36.7222 234.741 -37.1571 234.654C-37.5664 234.566 -37.899 233.985 -38.2827 233.636C-37.8734 233.374 -37.4385 232.967 -37.0292 232.938C-36.5176 232.938 -36.0315 233.287 -34.8548 233.752ZM1054.36 369.998C1054.31 370.231 1054.28 370.522 1054.23 370.551C1053.59 370.725 1052.93 370.87 1052.26 370.958C1052.21 370.958 1052.13 370.696 1052.06 370.551C1052.67 370.26 1053.28 369.969 1053.9 369.737C1054.03 369.678 1054.21 369.882 1054.36 369.998ZM204.865 36.8266C205.069 36.565 205.3 36.0707 205.453 36.1289C205.76 36.2161 206.067 36.5068 206.272 36.8266C206.323 36.9139 205.888 37.5826 205.811 37.5535C205.479 37.3791 205.197 37.0883 204.865 36.8266ZM926.914 339.964C926.812 340.283 926.709 340.603 926.709 340.603C926.223 340.487 925.763 340.313 925.302 340.167C925.405 339.876 925.482 339.586 925.584 339.295C925.993 339.498 926.454 339.731 926.914 339.964ZM964.16 347.61C964.211 347.988 964.237 348.163 964.262 348.337C963.7 348.134 963.111 347.901 962.548 347.698C962.651 347.523 962.779 347.232 962.83 347.232C963.316 347.32 963.776 347.494 964.16 347.61ZM918.293 343.714C918.063 344.005 917.858 344.499 917.577 344.558C917.296 344.645 916.912 344.325 916.579 344.18C916.81 343.889 917.014 343.424 917.27 343.336C917.603 343.278 917.961 343.569 918.293 343.714ZM1004.48 370.551C1004.25 370.812 1004.02 371.248 1003.76 371.307C1003.48 371.336 1003.15 371.016 1002.81 370.841C1003.15 370.493 1003.45 370.115 1003.81 369.853C1003.91 369.824 1004.25 370.289 1004.48 370.551ZM93.4083 235.933C93.1525 236.049 92.8711 236.195 92.6153 236.311C92.5386 236.107 92.4618 235.875 92.3851 235.671C92.692 235.613 92.9734 235.555 93.2804 235.526C93.306 235.526 93.3572 235.788 93.4083 235.933ZM318.316 386.716L318.086 387.036L317.933 386.745L318.316 386.716ZM93.9711 264.136C94.2781 263.932 94.5339 263.7 94.8153 263.554C94.9176 263.525 95.0967 263.729 95.2502 263.845C95.0711 264.078 94.9176 264.456 94.6874 264.514C94.4827 264.572 94.2269 264.281 93.9711 264.136ZM710.141 68.0243C710.294 67.7626 710.371 67.3264 710.576 67.2683C710.857 67.1811 711.189 67.3555 711.496 67.4137C711.369 67.6753 711.292 68.1405 711.113 68.1987C710.831 68.2568 710.499 68.0824 710.141 68.0243ZM130.629 99.3381L131.115 99.4253L130.705 99.7161L130.629 99.3381ZM266.285 -3.8494L266.182 -4.19833L266.643 -4.16922L266.285 -3.8494ZM869.996 430.823L869.51 430.736L869.92 430.445L869.996 430.823ZM1037.45 366.393C1037.37 366.538 1037.32 366.771 1037.22 366.829C1037.12 366.858 1036.96 366.684 1036.84 366.596C1036.96 366.422 1037.09 366.277 1037.22 366.102C1037.3 366.189 1037.37 366.306 1037.45 366.393ZM957.151 347.901L956.844 347.581L957.202 347.436L957.151 347.901ZM739.943 106.374L740.147 106.113L740.249 106.403L739.943 106.374Z" fill="white"/>
</svg>
