<svg width="32" height="32" viewBox="0 0 32 32" fill="none" xmlns="http://www.w3.org/2000/svg">
<path d="M26.7519 6.59194C24.0639 3.45594 20.1599 1.66394 15.9999 1.66394C11.8399 1.66394 7.93589 3.45594 5.24789 6.59194C4.35189 6.65594 3.45589 7.10394 2.94389 7.93594C1.40789 10.3679 0.639893 13.1839 0.639893 15.9999C0.639893 18.8159 1.40789 21.6319 2.94389 23.9999C3.45589 24.8319 4.28789 25.3439 5.24789 25.4079C10.9439 31.9359 21.0559 31.9359 26.7519 25.4079C27.7119 25.3439 28.5439 24.8319 29.0559 23.9999C30.5919 21.6319 31.3599 18.8159 31.3599 15.9999C31.3599 13.1839 30.5919 10.3679 29.0559 7.99994C28.5439 7.16794 27.7119 6.65594 26.7519 6.59194ZM15.9999 2.94394C19.5199 2.94394 22.8479 4.35194 25.2799 6.84794C24.8319 7.03994 24.4479 7.35994 24.2559 7.67994C22.0799 5.50394 19.1359 4.28794 15.9999 4.28794C12.9279 4.28794 9.91989 5.50394 7.74389 7.67994C7.48789 7.35994 7.10389 7.03994 6.71989 6.84794C9.15189 4.35194 12.4799 2.94394 15.9999 2.94394ZM23.9999 21.1199C23.6799 21.7599 23.5519 22.3999 23.6799 23.0399C22.2719 24.6399 20.3519 25.6639 18.3679 26.1759C18.2399 25.6639 18.1759 25.1519 18.1759 24.6399C18.1759 21.1199 21.0559 18.2399 24.5759 18.2399H25.1519C24.8959 19.5199 24.5119 20.1599 23.9999 21.1199ZM8.31989 23.0399C8.44789 22.3999 8.31989 21.7599 7.99989 21.1199C7.55189 20.3519 7.16789 19.6479 6.78389 18.3039C6.78389 18.2399 6.78389 18.2399 6.78389 18.1759H6.84789C10.4319 17.7919 13.8239 20.7359 13.8239 24.5759C13.8239 25.0879 13.7599 25.5999 13.6319 26.1119L13.3759 26.0479C10.1119 25.2159 8.38389 23.0399 8.31989 23.0399ZM7.93589 11.0719C8.31989 10.4319 8.44789 9.72794 8.31989 9.02394C10.3039 6.84794 13.0559 5.63194 15.9999 5.63194C18.9439 5.63194 21.6959 6.91194 23.6799 9.02394C23.5519 9.72794 23.6799 10.4319 24.0639 11.0719C24.4479 11.6479 24.7039 12.2879 24.9599 12.9279C22.0799 11.8399 19.0719 11.2639 15.9999 11.2639C12.9279 11.2639 9.91989 11.8399 7.03989 12.9279C7.23189 12.2879 7.55189 11.6479 7.93589 11.0719ZM4.03189 23.3599C2.62389 21.1199 1.91989 18.6239 1.91989 15.9999C1.91989 13.4399 2.62389 10.8799 4.03189 8.63994C5.18389 6.84794 7.99989 8.44794 6.84789 10.3679C5.75989 12.1599 5.24789 14.1439 5.24789 15.9999C5.24789 17.8559 5.75989 19.9039 6.84789 21.6319C7.35989 22.4639 7.03989 23.4239 6.33589 23.9359C5.56789 24.3839 4.54389 24.1279 4.03189 23.3599ZM6.71989 25.1519C7.10389 24.9599 7.48789 24.6399 7.74389 24.3199C9.34389 25.9199 11.5199 27.1359 13.8879 27.5199C14.2079 27.5839 14.5279 27.3919 14.5919 27.0719C14.8479 26.3039 14.9759 25.4719 14.9759 24.5759C14.9759 20.1599 11.1999 16.4479 6.46389 16.8959C6.39989 16.0639 6.39989 15.2959 6.52789 14.3999C9.47189 13.1199 12.6079 12.4799 15.8719 12.4799C19.1359 12.4799 22.2719 13.1199 25.2159 14.3999V14.4639C25.2799 14.9759 25.3439 15.4879 25.3439 15.9359C25.3439 16.2559 25.3439 16.5119 25.2799 16.7679V16.8319C25.0239 16.8319 24.7679 16.7679 24.5119 16.7679C20.2879 16.7679 16.8319 20.2239 16.8319 24.4479C16.8319 25.2799 16.9599 26.1119 17.2799 26.9439C17.4079 27.2639 17.7279 27.3919 17.9839 27.3919C20.3519 26.9439 22.5279 25.7919 24.1919 24.1919C24.3839 24.4479 24.7679 24.8319 25.2159 25.0239C20.1599 30.3359 11.7759 30.2719 6.71989 25.1519ZM27.9679 23.3599C27.4559 24.1919 26.4319 24.3839 25.6639 23.8719C24.9599 23.4239 24.6399 22.3999 25.1519 21.5679C26.2399 19.8399 26.7519 17.8559 26.7519 15.9359C26.7519 14.0799 26.2399 12.0319 25.1519 10.3039C24.7039 9.53594 24.8959 8.44794 25.7919 7.99994C26.6239 7.55194 27.5199 7.87194 27.9679 8.57594C29.3759 10.8799 30.0799 13.4399 30.0799 15.9999C30.0799 18.6239 29.3759 21.1199 27.9679 23.3599Z" fill="#FFC513"/>
<path d="M18.8158 16.5119C18.8158 14.9759 17.5358 13.6959 15.9998 13.6959C14.4638 13.6959 13.1838 14.9759 13.1838 16.5119C13.1838 18.0479 14.4638 19.3279 15.9998 19.3279C17.5358 19.3279 18.8158 18.0479 18.8158 16.5119ZM15.9998 18.0479C15.1678 18.0479 14.4638 17.3439 14.4638 16.5119C14.4638 15.6799 15.1678 14.9759 15.9998 14.9759C16.8318 14.9759 17.5358 15.6799 17.5358 16.5119C17.5358 17.3439 16.8318 18.0479 15.9998 18.0479Z" fill="#FFC513"/>
<path d="M21.3758 16.192C21.7598 16.192 22.0158 15.936 22.0158 15.552C22.0158 15.168 21.7598 14.912 21.3758 14.912C20.9918 14.912 20.7358 15.168 20.7358 15.552C20.7358 15.936 20.9918 16.192 21.3758 16.192Z" fill="#FFC513"/>
<path d="M10.6239 14.912C10.2399 14.912 9.98389 15.168 9.98389 15.552C9.98389 15.936 10.3039 16.192 10.6239 16.192C10.9439 16.192 11.2639 15.936 11.2639 15.552C11.2639 15.168 11.0079 14.912 10.6239 14.912Z" fill="#FFC513"/>
</svg>
