<svg xmlns="http://www.w3.org/2000/svg" width="512" height="512"><path d="m244.688-.238 2.46-.03C265.09-.44 282.468-.319 300 4l2.78.682c34.255 8.656 64.31 25.556 89.776 49.937a451.872 451.872 0 0 0 3.874 3.65c25.034 24.01 41.674 57.086 49.882 90.418l.736 2.984c3.328 14.3 4.335 28.396 4.264 43.017l-.005 2.378c-.075 19.356-2.657 37.398-8.307 55.934l-.651 2.138c-8.181 26.157-22.052 48.689-39.724 69.487l-1.552 1.832c-3.51 4.073-5.506 6.369-11.01 6.98-3.288-.097-3.93-.33-6.625-2.5-1.888-3.856-1.42-5.795-.438-9.937 1.863-2.527 1.863-2.527 4.313-4.938 17.196-18.027 29.5-39.6 37.687-63.062l.752-2.137C435.7 221.911 437.822 187.93 431 158l-.586-2.619c-10.481-45.33-38.384-86.063-77.822-111.033-41.639-25.605-90.273-34.504-138.185-23.575-48.646 11.988-87.76 42.672-113.57 85.142-15.824 26.713-23.06 57.556-23.087 88.397l-.002 2.15c.018 11.732.718 23.056 3.252 34.538l.52 2.381c8.338 36.923 28.866 75.279 59.628 98.372C144 334 144 334 146.318 336.34c9.86 9.172 20.777 7.888 33.528 7.726 2.415.002 4.831.009 7.247.019 5.858.015 11.715-.011 17.573-.055 6.835-.048 13.67-.043 20.504-.033a6986.74 6986.74 0 0 0 36.606-.056c11.816-.046 23.632-.083 35.448-.1l2.206-.003c7.957-.012 15.914-.019 23.871-.021h2.123l8.406-.002c8.842 0 17.683-.02 26.524-.06 5.076-.021 10.151-.03 15.227-.036a1514.2 1514.2 0 0 0 7.038-.033c20.06-.137 36.88 1.327 52.131 15.966 10.276 10.723 16.452 22.981 16.54 38.026l.02 2.187c.02 2.361.024 4.723.026 7.084l.02 4.984c.012 3.476.016 6.951.015 10.427 0 4.42.027 8.84.061 13.26.023 3.43.026 6.861.025 10.292.003 1.628.011 3.256.027 4.883.16 18.449-4.393 33.731-17.484 47.205-16.72 14.328-33.774 14.75-54.913 14.639-3.645-.014-7.289.002-10.933.014-7.12.018-14.238.01-21.357-.008-5.79-.014-11.579-.018-17.369-.015l-2.505.002-5.04.003c-14.825.008-29.65-.008-44.474-.038-14.36-.029-28.719-.036-43.078-.02a21493.762 21493.762 0 0 1-54.52-.006 8202.99 8202.99 0 0 0-17.336.005c-7.048.008-14.095 0-21.143-.024-3.59-.013-7.181-.02-10.772-.008-3.903.012-7.805-.007-11.708-.03l-3.392.026C102.686 512.407 92.26 508.5 82 501l-1.957-1.398C69.64 491.476 63.113 478.906 61 466a205.646 205.646 0 0 1-.177-7.338l-.02-2.185c-.02-2.378-.031-4.755-.041-7.133l-.013-2.478c-.02-4.333-.035-8.666-.044-13-.011-4.443-.046-8.886-.085-13.33-.027-3.444-.035-6.887-.038-10.331a578.32 578.32 0 0 0-.035-4.908c-.189-17.542 3.785-32.48 16.14-45.61 12.259-11.587 25.8-15.497 42.188-16.25l2.664-.13c2.154-.106 4.307-.207 6.461-.307l-2.492-2.238C89.21 307.908 64.117 261.462 61 212c-.187-5.396-.246-10.788-.25-16.188l-.002-2.282c.028-19.503 2.519-37.858 8.252-56.53l.651-2.133C79.008 104.944 95.524 79.539 117 57l2.2-2.36C129.69 43.706 142.247 35.078 155 27l3.05-1.934C183.44 9.64 214.939.06 244.688-.238ZM85.75 374.312c-5.896 7.26-8.89 14.931-8.848 24.204l.01 3.789.025 3.945.014 3.992c.012 3.253.028 6.505.049 9.758l1.871.025c6.424.086 12.848.185 19.272.292 2.397.039 4.795.074 7.193.105 3.445.046 6.89.104 10.336.164l3.252.035 3.032.06 2.665.04c2.568.301 4.2.901 6.379 2.279 1.42 2.84 1.315 4.855 1 8-2 2.544-3.218 3.832-6.417 4.519l-2.719.027-3.093.06-3.318.003-3.413.05c-3.597.05-7.193.07-10.79.091-2.439.028-4.878.058-7.316.09-5.978.074-11.956.125-17.934.16-.118 4.437-.188 8.874-.25 13.313l-.102 3.767C76.537 463.732 78.453 472.407 85 481l1.688 2.5c7.186 7.77 17.544 12.61 28.062 13.418 3.756.137 7.492.142 11.25.082a90.338 90.338 0 0 0-7.453-11.707l-1.875-2.53a352.649 352.649 0 0 0-3.89-5.117c-4.387-5.994-5.743-10.234-4.782-17.646 3.638-1.213 6.177-1.395 10-1 4.68 3.93 7.824 8.882 11.188 13.938 1.622 2.42 3.25 4.83 4.931 7.21 1.44 2.184 2.616 4.253 3.793 6.572 3.77 6.957 3.77 6.957 10.285 10.999 6.299 1.023 12.591.558 18.928.156 1.93-.07 3.86-.134 5.79-.191 4.7-.154 9.39-.395 14.085-.684l-2.879-4.336-1.62-2.439a141.053 141.053 0 0 0-3.439-4.85c-1.54-3.443-1.009-5.79-.062-9.375 3.801-2.534 5.497-2.687 10-2 3.568 3.083 6.132 7.09 8.464 11.148 4.53 7.83 4.53 7.83 11.845 12.693 6.304 1.139 12.592.624 18.941.159 1.92-.08 3.84-.153 5.762-.219 4.67-.175 9.326-.45 13.988-.781-2.734-5.087-5.505-9.947-9-14.563-8.806-11.958-8.806-11.958-9.5-17.25.5-3.187.5-3.187 1.563-5.125 3.152-1.728 5.415-1.548 8.937-1.062 4.15 3.578 7.04 7.744 10.063 12.25l1.493 2.076c2.654 3.734 4.749 7.215 6.385 11.502 2.376 5.447 4.531 9.522 10.059 12.172 13.2 2.705 27.673 1.006 41 0l-2.879-4.336-1.62-2.439a141.053 141.053 0 0 0-3.438-4.85c-1.54-3.443-1.01-5.79-.063-9.375 3.841-2.56 5.446-2.759 10-2 2.87 2.242 4.866 5.071 7 8l1.266 1.737c2.259 3.11 4.49 6.236 6.695 9.384 1.76 2.656 1.76 2.656 3.039 3.879 3.03.089 6.037.115 9.066.098l2.754-.005c2.914-.005 5.828-.018 8.743-.03A7441.983 7441.983 0 0 0 370 497c-1.57-3.394-3.55-6.337-5.696-9.395l-2.168-3.146a800.89 800.89 0 0 0-4.547-6.508l-2.16-3.158-1.993-2.859c-1.74-3.552-1.774-6.024-1.437-9.934 1.063-1.938 1.063-1.938 3-3 3.375-.5 3.375-.5 7 0 5.387 4.417 8.98 10.483 12.875 16.188 2.047 2.974 4.095 5.947 6.154 8.913a167.971 167.971 0 0 1 3.803 5.85c3.176 5.34 3.176 5.34 8.492 7.983 12.901-1.903 24.746-5.748 33.422-15.997 7.345-10.256 8.838-20.229 8.504-32.625l-.055-3.896c-.046-3.14-.112-6.277-.195-9.416l-1.778-.002a75884.764 75884.764 0 0 1-116.777-.206l-2.516-.005a28199.82 28199.82 0 0 0-40.362-.06c-13.8-.013-27.6-.04-41.4-.082-8.518-.025-17.037-.038-25.556-.036-5.837 0-11.675-.015-17.512-.041-3.37-.015-6.741-.02-10.112-.014-3.65.007-7.301-.011-10.952-.035l-3.243.023c-7.148-.083-7.148-.083-10.462-2.445-1.525-2.405-1.754-3.432-1.33-6.222l.25-2.07c.75-1.805.75-1.805 2.496-2.901 2.53-1.015 4.352-1.158 7.072-1.166l2.948-.022 3.231.006 3.438-.018c3.816-.017 7.631-.02 11.447-.023 2.73-.008 5.46-.02 8.189-.03 5.884-.023 11.767-.038 17.651-.048 8.507-.014 17.014-.04 25.521-.068 13.802-.045 27.604-.082 41.406-.113 13.408-.03 26.816-.065 40.224-.105l2.504-.007 12.436-.037c34.396-.104 68.791-.193 103.187-.273.118-4.437.188-8.874.25-13.313l.102-3.767c.131-12.518-2.8-21.683-11.352-30.92-7.707-7.811-16.977-11.723-27.875-12.813-3.943.064-5.595.371-8.652 2.918-2.364 2.865-4.446 5.784-6.473 8.895-6.33 9.625-6.33 9.625-10.125 11.75-3.322.289-5.002-.074-7.875-1.75-2.085-3.127-2.362-4.325-1.758-7.957 1.324-3.57 3.81-6.259 6.262-9.125 1.701-1.775 1.701-1.775 1.496-3.918a594.856 594.856 0 0 0-16.595-.66c-1.88-.06-3.759-.14-5.636-.245-11.095-.907-11.095-.907-20.865 3.342-2.323 3.079-4.134 6.14-5.904 9.563-.99 1.467-2 2.922-3.04 4.355-.863 1.277-1.725 2.554-2.585 3.832-6.427 9.397-6.427 9.397-9.25 13.25l-1.492 2.06c-2.143 1.973-3.762 2.24-6.633 2.503-2.75-.813-2.75-.813-5-2-1.585-3.17-1.345-5.482-1-9 1.375-2.82 3.18-5.249 5.063-7.75.951-1.306 1.9-2.613 2.847-3.922l1.481-2.033c3.032-4.325 5.81-8.817 8.609-13.295a559.467 559.467 0 0 0-17.395-.769c-1.97-.07-3.939-.165-5.906-.287-10.726-1.027-10.726-1.027-20.535 2.363-3.103 3.21-5.183 6.857-7.176 10.823-2.406 4.554-4.707 8.275-9.488 10.495-3.5.375-3.5.375-6.375-.563-3.002-2.914-2.992-4.928-3.125-9.062 1.652-3.273 1.652-3.273 3.938-6.375 2.63-3.041 2.63-3.041 4.062-6.625a808.364 808.364 0 0 0-16.705-.494 325.623 325.623 0 0 1-5.677-.185c-10.592-.848-10.592-.848-20.266 2.446-1.827 2.324-3.083 4.569-4.352 7.233a141.7 141.7 0 0 1-2.809 3.992c-.878 1.293-1.754 2.587-2.629 3.883l-2.851 4.156a727.215 727.215 0 0 0-4.984 7.375l-2.04 2.969-1.738 2.586c-2.462 2.575-4.502 3.262-7.949 4.039-2.813-.75-2.813-.75-5-2-1.557-3.113-1.75-5.66-1-9 2.106-3.946 4.69-7.508 7.313-11.125l4.113-5.82 1.856-2.579c1.689-2.434 3.223-4.92 4.718-7.476-23.17-2.957-23.17-2.957-45.2 1.702-4.371 4.04-6.81 8.785-8.937 14.284-1.129 2.635-2.617 4.259-4.863 6.014-3.193 1.228-4.523 1.174-7.75 0-2.25-2-2.25-2-3.438-5.125.233-4.797 1.826-6.991 4.645-10.762 1.442-1.975 2.518-3.899 3.543-6.113-16.1-.792-27.934 2.134-39.25 14.313Z" fill="#FFC513"/><path d="M255.75 89.688c1.145.005 2.29.01 3.47.017 8.627.123 16.467.836 24.78 3.295l2.04.602C300.814 98.085 313.23 104.908 325 115l1.852 1.45c18.357 14.626 30.642 39.948 33.863 62.991 2.5 31.2-4.096 59.55-24.37 83.983C318.546 284.286 293.5 297.753 266 300c-31.555 1.74-59.323-7.55-82.902-28.59-19.036-18.181-31.537-43.62-32.399-70.172-.02-1.975-.023-3.95-.012-5.925l.015-3.172c.437-29.156 12.993-54.408 33.43-74.766 6.075-5.831 12.535-10.282 19.868-14.375.984-.56 1.967-1.121 2.98-1.7 15.136-8.108 31.686-11.701 48.77-11.612ZM221 113l1.137 1.32c1.074 1.25 2.14 2.507 3.199 3.77 1.785 2.107 1.785 2.107 4.476 4.597 2.433 3.684 2.32 4.648 2.258 8.88.534 7.809 4.47 11.52 9.993 16.683l2.529 2.582c4.972 4.963 4.972 4.963 11.408 7.262 5.92-.747 9.978-5.801 13.938-9.844l2.61-2.441c4.55-4.554 6.923-7.63 7.311-14.172l-.083-2.939c.403-4.857 3.842-7.501 7.224-10.698a335.018 335.018 0 0 0 4-5c-21.42-9.526-48.803-11.381-70 0Zm-22.625 13.875-1.597 1.488c-4.891 4.618-9.394 9.533-13.778 14.637 2.404 5.415 6.171 9.6 11 13 2.916.57 2.916.57 5.938.5 6.512.058 9.245 2.475 13.726 7L216 166c1.539 1.524 3.08 3.045 4.625 4.563A868.97 868.97 0 0 1 224 174l2.125-2.188c2.803-2.81 5.798-5.307 8.875-7.812-1.366-3.132-2.857-4.998-5.441-7.215-11.118-9.976-11.118-9.976-12.418-15.308.03-2.15.098-4.299.207-6.446-.6-5.224-4.175-7.882-7.903-11.3-4.982-3.526-7.33-.404-11.07 3.144Zm101.5-.688c-3.838 3.768-3.838 3.768-5.152 8.774l.214 3.101c.102 5.278-1.314 7.745-4.75 11.547-4.226 4.313-8.647 8.41-13.187 12.391 1.084 3.252 1.8 3.914 4.375 6a82.817 82.817 0 0 1 6.625 6l1.33-1.345c1.991-2.013 3.987-4.021 5.983-6.03l2.091-2.117 2.022-2.031 1.856-1.873c3.58-3.343 5.49-3.685 10.218-3.542 6.836-.383 9.793-3.404 14.197-8.2A185.764 185.764 0 0 0 329 145c-4.366-9.492-12.41-17.255-21-23-4.079 0-5.149 1.458-8.125 4.188ZM174 159c-.8 2.29-1.59 4.58-2.375 6.875l-.672 1.914c-2.966 8.725-4.324 17.188-4.266 26.399l.013 2.757c.193 11.641 2.38 22.441 7.3 33.055l1.32-1.137c1.25-1.074 2.507-2.14 3.77-3.199 2.107-1.785 2.107-1.785 4.597-4.476 3.684-2.433 4.648-2.32 8.88-2.258 7.809-.534 11.52-4.47 16.683-9.993l2.582-2.529c4.963-4.972 4.963-4.972 7.262-11.408-.747-5.92-5.801-9.978-9.844-13.938l-2.441-2.61c-5.632-5.628-9.175-7.093-17.074-7.169-4.526-.469-6.63-2.975-9.423-6.345a2191.948 2191.948 0 0 0-3.011-3.348L175 159h-1Zm163 0-2.3 2.59-1.468 1.627a114.147 114.147 0 0 0-2.96 3.43c-2.547 2.75-4.187 4.24-8.007 4.636l-3.042.03c-7.761.284-11.367 4.288-16.473 9.75l-2.582 2.529c-4.963 4.972-4.963 4.972-7.262 11.408.747 5.92 5.801 9.978 9.844 13.938l2.441 2.61c4.554 4.55 7.63 6.923 14.172 7.311 1.455-.04 1.455-.04 2.939-.083 4.857.403 7.501 3.842 10.698 7.224a335.018 335.018 0 0 0 5 4c9.707-20.942 9.507-44.915 1.813-66.438A272.102 272.102 0 0 0 338 159h-1Zm-97.438 21.188c-3.745 4.979-5.993 10.585-5.5 16.875 1.462 7.655 4.694 12.341 11.036 16.808 5.2 3.086 11.058 2.641 16.902 2.129 5.903-1.537 9.441-4.956 12.809-9.93 3.393-5.896 3.918-11.584 2.191-18.07-3.024-6.609-7.183-10.964-13.938-13.75-8.435-2.843-17.335-.673-23.5 5.938Zm-18.226 37.265-1.961 2.012-2.14 2.174-2.235 2.298a2036.6 2036.6 0 0 1-4.375 4.465l-1.96 2.016c-2.173 2.065-3.11 2.59-6.134 2.547-5.116-.046-8.382.163-12.547 3.324-2.452 2.488-4.769 5.01-6.984 7.711 3.171 9.347 12.326 17.098 20 23l3 1c7.515-5.882 7.515-5.882 11.637-14.05-.008-2.011-.021-4.022-.04-6.032.79-5.728 5.35-9.132 9.403-12.918 1.524-1.539 3.045-3.08 4.563-4.625A868.97 868.97 0 0 1 235 227l-2.188-2.125c-1.981-1.965-3.76-4.007-5.5-6.188L225 216c-2.117-.22-2.117-.22-3.664 1.453ZM287 216c-1.442 1.423-1.442 1.423-2.875 3.25-2.24 2.745-4.591 5.271-7.125 7.75l1.345 1.33c2.013 1.991 4.021 3.987 6.03 5.982l2.117 2.092 2.031 2.022 1.873 1.856c3.343 3.58 3.685 5.49 3.541 10.218.384 6.836 3.405 9.793 8.201 14.197A185.764 185.764 0 0 0 306 268c5.199-2.727 9.115-5.67 13.188-9.875l1.537-1.527c3.248-3.295 5.822-6.675 8.275-10.598-2.276-5.013-5.427-8.899-10-12-3.075-.52-6.003-.563-9.117-.633-5.05-.643-7.557-3.757-10.883-7.367-1.786-1.818-3.578-3.63-5.375-5.438l-2.523-2.62c-1.87-2.168-1.87-2.168-4.102-1.942Zm-44.313 25.25-2.783 2.586c-4.693 4.648-7.389 7.704-7.662 14.453l-.012 3.03c-.313 3.646-1.587 5.145-4.228 7.548l-1.565 1.258A280.229 280.229 0 0 0 221 275v2c23.515 9.114 46.407 9.663 70 0-1.86-4.556-5.273-6.943-9.004-10-2.277-3.422-2.15-4.64-2.168-8.64-.4-8.038-4.855-11.85-10.515-17.11l-2.725-2.727c-4.594-4.767-4.594-4.767-10.588-7.017-5.808.956-9.294 5.723-13.313 9.744Z" fill="#FFC513"/><path d="M342.676 91.98 345 94l1.98 1.613C367.2 112.173 381.163 138.762 387 164c.15.64.3 1.28.453 1.94 7.906 35.255.45 71.498-18.186 102.077-19.313 30.235-50.127 50.555-84.892 58.358-33.228 7.296-68.887 1.185-98.063-16.188-32.153-20.709-53.696-50.551-62.187-87.937-.873-4.153-1.434-8.003-1.125-12.25 2.456-3.323 3.926-4.776 8-5.625 4.136.862 5.358 2.332 8 5.625 1.123 3.142 1.699 6.35 2.313 9.625 6.562 30.626 24.697 56.588 50.681 74.088 25.72 16.504 57.666 22.298 87.56 16.326 29.898-6.645 57.158-23.872 74.009-49.726 17.06-26.988 24.366-58.63 17.472-90.2-4.794-19.78-13.486-39.994-28.34-54.39C340 113 340 113 340 111l-1.758-.777c-2.45-1.336-4.11-2.852-6.117-4.785C308.06 83.731 276.988 76.79 245.4 77.805c-24.877 1.429-51.674 13.154-69.142 30.996C174 111 174 111 172 111l-.777 1.758c-1.336 2.45-2.852 4.11-4.786 6.117-15.512 17.2-22.887 38.535-27.664 60.805-.857 2.57-1.61 3.708-3.773 5.32-4.208.623-6.31.403-10-1.75-3.917-6.365-1.552-13.043.07-19.965 8.608-34.051 29.928-64.754 60.211-83.125 49.574-29.123 113.115-25.973 157.395 11.82ZM256 25.875l2.828-.012c15.343.022 15.343.022 19.735 2.7 1.74 2.951 1.954 5.064 2.066 8.437-1.013 3.22-2.812 4.208-5.629 6-2.88.576-5.696.561-8.625.531l-2.499.012c-1.738.003-3.476-.005-5.214-.022-2.654-.02-5.305 0-7.959.026-1.693-.003-3.385-.008-5.078-.016l-2.393.025c-3.936-.067-5.824-.296-9.232-2.464C232 39 232 39 231.371 37c.112-3.373.326-5.486 2.066-8.438 6.305-3.843 15.398-2.717 22.563-2.687Z" fill="#FFC513"/></svg>