<svg width="12" height="12" viewBox="0 0 12 12" fill="none" xmlns="http://www.w3.org/2000/svg">
<path d="M10.5286 3.59191C10.5332 3.69752 10.5332 3.79832 10.5332 3.90392C10.5378 7.10553 8.18559 10.8015 3.88396 10.8015C2.61524 10.8015 1.36967 10.4223 0.300049 9.71193C0.485264 9.73593 0.670479 9.74553 0.855695 9.74553C1.90679 9.74553 2.93011 9.38073 3.75894 8.70393C2.75878 8.68473 1.87901 8.00793 1.5734 7.01913C1.92531 7.09113 2.28648 7.07673 2.62913 6.97593C1.54099 6.75512 0.758457 5.76152 0.753826 4.60472C0.753826 4.59512 0.753826 4.58552 0.753826 4.57592C1.07795 4.76312 1.44375 4.86872 1.81418 4.87832C0.790869 4.16792 0.471373 2.75191 1.09184 1.64311C2.28185 3.15991 4.03214 4.07672 5.91207 4.17752C5.72223 3.33751 5.98153 2.45431 6.58811 1.85911C7.52807 0.942306 9.0098 0.990307 9.89883 1.96471C10.4221 1.85911 10.9268 1.65751 11.3852 1.37431C11.2092 1.93591 10.8434 2.41111 10.3572 2.71351C10.8203 2.65591 11.2741 2.52631 11.7 2.33431C11.3852 2.82391 10.987 3.24631 10.5286 3.59191Z" fill="#1A1A1A"/>
</svg>
